<svg xmlns="http://www.w3.org/2000/svg"><symbol id="archive" viewBox="0 0 16 16"><path fill="currentColor" d="M0 2a1 1 0 0 1 1-1h14a1 1 0 0 1 1 1v2a1 1 0 0 1-1 1v7.5a2.5 2.5 0 0 1-2.5 2.5h-9A2.5 2.5 0 0 1 1 12.5V5a1 1 0 0 1-1-1zm2 3v7.5A1.5 1.5 0 0 0 3.5 14h9a1.5 1.5 0 0 0 1.5-1.5V5zm13-3H1v2h14zM5 7.5a.5.5 0 0 1 .5-.5h5a.5.5 0 0 1 0 1h-5a.5.5 0 0 1-.5-.5"></path></symbol><symbol id="at" viewBox="0 0 16 16"><path fill="currentColor" d="M13.106 7.222c0-2.967-2.249-5.032-5.482-5.032-3.35 0-5.646 2.318-5.646 5.702 0 3.493 2.235 5.708 5.762 5.708.862 0 1.689-.123 2.304-.335v-.862c-.43.199-1.354.328-2.29.328-2.926 0-4.813-1.88-4.813-4.798 0-2.844 1.921-4.881 4.594-4.881 2.735 0 4.608 1.688 4.608 4.156 0 1.682-.554 2.769-1.416 2.769-.492 0-.772-.28-.772-.76V5.206H8.923v.834h-.11c-.266-.595-.881-.964-1.6-.964-1.4 0-2.378 1.162-2.378 2.823 0 1.737.957 2.906 2.379 2.906.8 0 1.415-.39 1.709-1.087h.11c.081.67.703 1.148 1.503 1.148 1.572 0 2.57-1.416 2.57-3.644m-7.177.704c0-1.197.54-1.907 1.456-1.907.93 0 1.524.738 1.524 1.907S8.308 9.84 7.371 9.84c-.895 0-1.442-.725-1.442-1.914"></path></symbol><symbol id="book" viewBox="0 0 16 16"><path fill="currentColor" d="M1 2.828c.885-.37 2.154-.769 3.388-.893 1.33-.134 2.458.063 3.112.752v9.746c-.935-.53-2.12-.603-3.213-.493-1.18.12-2.37.461-3.287.811zm7.5-.141c.654-.689 1.782-.886 3.112-.752 1.234.124 2.503.523 3.388.893v9.923c-.918-.35-2.107-.692-3.287-.81-1.094-.111-2.278-.039-3.213.492zM8 1.783C7.015.936 5.587.81 4.287.94c-1.514.153-3.042.672-3.994 1.105A.5.5 0 0 0 0 2.5v11a.5.5 0 0 0 .707.455c.882-.4 2.303-.881 3.68-1.02 1.409-.142 2.59.087 3.223.877a.5.5 0 0 0 .78 0c.633-.79 1.814-1.019 3.222-.877 1.378.139 2.8.62 3.681 1.02A.5.5 0 0 0 16 13.5v-11a.5.5 0 0 0-.293-.455c-.952-.433-2.48-.952-3.994-1.105C10.413.809 8.985.936 8 1.783"></path></symbol><symbol id="bookmark" viewBox="0 0 16 16"><path fill="currentColor" d="M2 2a2 2 0 0 1 2-2h8a2 2 0 0 1 2 2v13.5a.5.5 0 0 1-.777.416L8 13.101l-5.223 2.815A.5.5 0 0 1 2 15.5zm2-1a1 1 0 0 0-1 1v12.566l4.723-2.482a.5.5 0 0 1 .554 0L13 14.566V2a1 1 0 0 0-1-1z"></path></symbol><symbol id="box-seam" viewBox="0 0 16 16"><path fill="currentColor" d="M8.186 1.113a.5.5 0 0 0-.372 0L1.846 3.5l2.404.961L10.404 2zm3.564 1.426L5.596 5 8 5.961 14.154 3.5zm3.25 1.7-6.5 2.6v7.922l6.5-2.6zM7.5 14.762V6.838L1 4.239v7.923zM7.443.184a1.5 1.5 0 0 1 1.114 0l7.129 2.852A.5.5 0 0 1 16 3.5v8.662a1 1 0 0 1-.629.928l-7.185 2.874a.5.5 0 0 1-.372 0L.63 13.09a1 1 0 0 1-.63-.928V3.5a.5.5 0 0 1 .314-.464z"></path></symbol><symbol id="box2" viewBox="0 0 16 16"><path fill="currentColor" d="M2.95.4a1 1 0 0 1 .8-.4h8.5a1 1 0 0 1 .8.4l2.85 3.8a.5.5 0 0 1 .1.3V15a1 1 0 0 1-1 1H1a1 1 0 0 1-1-1V4.5a.5.5 0 0 1 .1-.3zM7.5 1H3.75L1.5 4h6zm1 0v3h6l-2.25-3zM15 5H1v10h14z"></path></symbol><symbol id="boxes" viewBox="0 0 16 16"><path fill="currentColor" d="M7.752.066a.5.5 0 0 1 .496 0l3.75 2.143a.5.5 0 0 1 .252.434v3.995l3.498 2A.5.5 0 0 1 16 9.07v4.286a.5.5 0 0 1-.252.434l-3.75 2.143a.5.5 0 0 1-.496 0l-3.502-2-3.502 2a.5.5 0 0 1-.496 0l-3.75-2.142A.5.5 0 0 1 0 13.357V9.07a.5.5 0 0 1 .252-.434l3.498-2V2.644a.5.5 0 0 1 .252-.434zM4.25 7.504 1.508 9.07l2.742 1.567L6.992 9.07zM7.5 9.933l-2.75 1.57v3.135l2.75-1.571zm1 3.134 2.75 1.57v-3.133L8.5 9.933zm.508-3.996 2.742 1.567 2.742-1.567-2.742-1.567zm2.242-2.433V3.504L8.5 5.076V8.21zM7.5 8.21V5.076L4.75 3.504v3.134zM5.258 2.643 8 4.21l2.742-1.567L8 1.076zM15 9.933l-2.75 1.57v3.135L15 13.067zM3.75 14.638v-3.134L1 9.933v3.134z"></path></symbol><symbol id="briefcase" viewBox="0 0 16 16"><path fill="currentColor" d="M6.5 1A1.5 1.5 0 0 0 5 2.5V3H1.5A1.5 1.5 0 0 0 0 4.5v8A1.5 1.5 0 0 0 1.5 14h13a1.5 1.5 0 0 0 1.5-1.5v-8A1.5 1.5 0 0 0 14.5 3H11v-.5A1.5 1.5 0 0 0 9.5 1zm0 1h3a.5.5 0 0 1 .5.5V3H6v-.5a.5.5 0 0 1 .5-.5m1.886 6.914L15 7.151V12.5a.5.5 0 0 1-.5.5h-13a.5.5 0 0 1-.5-.5V7.15l6.614 1.764a1.5 1.5 0 0 0 .772 0M1.5 4h13a.5.5 0 0 1 .5.5v1.616L8.129 7.948a.5.5 0 0 1-.258 0L1 6.116V4.5a.5.5 0 0 1 .5-.5"></path></symbol><symbol id="building-fill" viewBox="0 0 16 16"><path fill="currentColor" d="M3 0a1 1 0 0 0-1 1v14a1 1 0 0 0 1 1h3v-3.5a.5.5 0 0 1 .5-.5h3a.5.5 0 0 1 .5.5V16h3a1 1 0 0 0 1-1V1a1 1 0 0 0-1-1zm1 2.5a.5.5 0 0 1 .5-.5h1a.5.5 0 0 1 .5.5v1a.5.5 0 0 1-.5.5h-1a.5.5 0 0 1-.5-.5zm3 0a.5.5 0 0 1 .5-.5h1a.5.5 0 0 1 .5.5v1a.5.5 0 0 1-.5.5h-1a.5.5 0 0 1-.5-.5zm3.5-.5h1a.5.5 0 0 1 .5.5v1a.5.5 0 0 1-.5.5h-1a.5.5 0 0 1-.5-.5v-1a.5.5 0 0 1 .5-.5M4 5.5a.5.5 0 0 1 .5-.5h1a.5.5 0 0 1 .5.5v1a.5.5 0 0 1-.5.5h-1a.5.5 0 0 1-.5-.5zM7.5 5h1a.5.5 0 0 1 .5.5v1a.5.5 0 0 1-.5.5h-1a.5.5 0 0 1-.5-.5v-1a.5.5 0 0 1 .5-.5m2.5.5a.5.5 0 0 1 .5-.5h1a.5.5 0 0 1 .5.5v1a.5.5 0 0 1-.5.5h-1a.5.5 0 0 1-.5-.5zM4.5 8h1a.5.5 0 0 1 .5.5v1a.5.5 0 0 1-.5.5h-1a.5.5 0 0 1-.5-.5v-1a.5.5 0 0 1 .5-.5m2.5.5a.5.5 0 0 1 .5-.5h1a.5.5 0 0 1 .5.5v1a.5.5 0 0 1-.5.5h-1a.5.5 0 0 1-.5-.5zm3.5-.5h1a.5.5 0 0 1 .5.5v1a.5.5 0 0 1-.5.5h-1a.5.5 0 0 1-.5-.5v-1a.5.5 0 0 1 .5-.5"></path></symbol><symbol id="calculator" viewBox="0 0 16 16"><path fill="currentColor" d="M12 1a1 1 0 0 1 1 1v12a1 1 0 0 1-1 1H4a1 1 0 0 1-1-1V2a1 1 0 0 1 1-1zM4 0a2 2 0 0 0-2 2v12a2 2 0 0 0 2 2h8a2 2 0 0 0 2-2V2a2 2 0 0 0-2-2z"></path><path fill="currentColor" d="M4 2.5a.5.5 0 0 1 .5-.5h7a.5.5 0 0 1 .5.5v2a.5.5 0 0 1-.5.5h-7a.5.5 0 0 1-.5-.5zm0 4a.5.5 0 0 1 .5-.5h1a.5.5 0 0 1 .5.5v1a.5.5 0 0 1-.5.5h-1a.5.5 0 0 1-.5-.5zm0 3a.5.5 0 0 1 .5-.5h1a.5.5 0 0 1 .5.5v1a.5.5 0 0 1-.5.5h-1a.5.5 0 0 1-.5-.5zm0 3a.5.5 0 0 1 .5-.5h1a.5.5 0 0 1 .5.5v1a.5.5 0 0 1-.5.5h-1a.5.5 0 0 1-.5-.5zm3-6a.5.5 0 0 1 .5-.5h1a.5.5 0 0 1 .5.5v1a.5.5 0 0 1-.5.5h-1a.5.5 0 0 1-.5-.5zm0 3a.5.5 0 0 1 .5-.5h1a.5.5 0 0 1 .5.5v1a.5.5 0 0 1-.5.5h-1a.5.5 0 0 1-.5-.5zm0 3a.5.5 0 0 1 .5-.5h1a.5.5 0 0 1 .5.5v1a.5.5 0 0 1-.5.5h-1a.5.5 0 0 1-.5-.5zm3-6a.5.5 0 0 1 .5-.5h1a.5.5 0 0 1 .5.5v1a.5.5 0 0 1-.5.5h-1a.5.5 0 0 1-.5-.5zm0 3a.5.5 0 0 1 .5-.5h1a.5.5 0 0 1 .5.5v4a.5.5 0 0 1-.5.5h-1a.5.5 0 0 1-.5-.5z"></path></symbol><symbol id="calendar" viewBox="0 0 16 16"><path fill="currentColor" d="M3.5 0a.5.5 0 0 1 .5.5V1h8V.5a.5.5 0 0 1 1 0V1h1a2 2 0 0 1 2 2v11a2 2 0 0 1-2 2H2a2 2 0 0 1-2-2V3a2 2 0 0 1 2-2h1V.5a.5.5 0 0 1 .5-.5M1 4v10a1 1 0 0 0 1 1h12a1 1 0 0 0 1-1V4z"></path></symbol><symbol id="calendar3" viewBox="0 0 16 16"><path fill="currentColor" d="M14 0H2a2 2 0 0 0-2 2v12a2 2 0 0 0 2 2h12a2 2 0 0 0 2-2V2a2 2 0 0 0-2-2M1 3.857C1 3.384 1.448 3 2 3h12c.552 0 1 .384 1 .857v10.286c0 .473-.448.857-1 .857H2c-.552 0-1-.384-1-.857z"></path><path fill="currentColor" d="M6.5 7a1 1 0 1 0 0-2 1 1 0 0 0 0 2m3 0a1 1 0 1 0 0-2 1 1 0 0 0 0 2m3 0a1 1 0 1 0 0-2 1 1 0 0 0 0 2m-9 3a1 1 0 1 0 0-2 1 1 0 0 0 0 2m3 0a1 1 0 1 0 0-2 1 1 0 0 0 0 2m3 0a1 1 0 1 0 0-2 1 1 0 0 0 0 2m3 0a1 1 0 1 0 0-2 1 1 0 0 0 0 2m-9 3a1 1 0 1 0 0-2 1 1 0 0 0 0 2m3 0a1 1 0 1 0 0-2 1 1 0 0 0 0 2m3 0a1 1 0 1 0 0-2 1 1 0 0 0 0 2"></path></symbol><symbol id="caret-down-fill" viewBox="0 0 16 16"><path fill="currentColor" d="M7.247 11.14 2.451 5.658C1.885 5.013 2.345 4 3.204 4h9.592a1 1 0 0 1 .753 1.659l-4.796 5.48a1 1 0 0 1-1.506 0z"></path></symbol><symbol id="caret-up-fill" viewBox="0 0 16 16"><path fill="currentColor" d="m7.247 4.86-4.796 5.481c-.566.647-.106 1.659.753 1.659h9.592a1 1 0 0 0 .753-1.659l-4.796-5.48a1 1 0 0 0-1.506-.001"></path></symbol><symbol id="chat-left-text-fill" viewBox="0 0 16 16"><path fill="currentColor" d="M0 2a2 2 0 0 1 2-2h12a2 2 0 0 1 2 2v8a2 2 0 0 1-2 2H4.414a1 1 0 0 0-.707.293L.854 15.146A.5.5 0 0 1 0 14.793zm3.5 1a.5.5 0 1 0 0 1h9a.5.5 0 0 0 0-1zm0 2.5a.5.5 0 1 0 0 1h9a.5.5 0 0 0 0-1zm0 2.5a.5.5 0 1 0 0 1h5a.5.5 0 1 0 0-1z"></path></symbol><symbol id="chevron-down" viewBox="0 0 16 16"><path fill="currentColor" fill-rule="evenodd" d="M1.646 4.646a.5.5 0 0 1 .708 0L8 10.293l5.646-5.647a.5.5 0 0 1 .708.708l-6 6a.5.5 0 0 1-.708 0l-6-6a.5.5 0 0 1 0-.708" clip-rule="evenodd"></path></symbol><symbol id="chevron-left" viewBox="0 0 16 16"><path fill="currentColor" fill-rule="evenodd" d="M11.354 1.646a.5.5 0 0 1 0 .708L5.707 8l5.647 5.646a.5.5 0 0 1-.708.708l-6-6a.5.5 0 0 1 0-.708l6-6a.5.5 0 0 1 .708 0" clip-rule="evenodd"></path></symbol><symbol id="chevron-right" viewBox="0 0 16 16"><path fill="currentColor" fill-rule="evenodd" d="M4.646 1.646a.5.5 0 0 1 .708 0l6 6a.5.5 0 0 1 0 .708l-6 6a.5.5 0 1 1-.708-.708L10.293 8 4.646 2.354a.5.5 0 0 1 0-.708" clip-rule="evenodd"></path></symbol><symbol id="chevron-up" viewBox="0 0 16 16"><path fill="currentColor" fill-rule="evenodd" d="M7.646 4.646a.5.5 0 0 1 .708 0l6 6a.5.5 0 0 1-.708.708L8 5.707l-5.646 5.647a.5.5 0 1 1-.708-.708z" clip-rule="evenodd"></path></symbol><symbol id="clock" viewBox="0 0 16 16"><path fill="currentColor" d="M8 3.5a.5.5 0 1 0-1 0V9a.5.5 0 0 0 .252.434l3.5 2a.5.5 0 0 0 .496-.868L8 8.71z"></path><path fill="currentColor" d="M8 16A8 8 0 1 0 8-.001 8 8 0 0 0 8 16m7-8A7 7 0 1 1 1 8a7 7 0 0 1 14 0"></path></symbol><symbol id="download" viewBox="0 0 16 16"><path fill="currentColor" d="M.5 9.9a.5.5 0 0 1 .5.5v2.5a1 1 0 0 0 1 1h12a1 1 0 0 0 1-1v-2.5a.5.5 0 0 1 1 0v2.5a2 2 0 0 1-2 2H2a2 2 0 0 1-2-2v-2.5a.5.5 0 0 1 .5-.5"></path><path fill="currentColor" d="M7.646 11.854a.5.5 0 0 0 .708 0l3-3a.5.5 0 0 0-.708-.708L8.5 10.293V1.5a.5.5 0 1 0-1 0v8.793L5.354 8.146a.5.5 0 1 0-.708.708z"></path></symbol><symbol id="envelope-fill" viewBox="0 0 16 16"><path fill="currentColor" d="M.05 3.555A2 2 0 0 1 2 2h12a2 2 0 0 1 1.95 1.555L8 8.414zM0 4.697v7.104l5.803-3.558zM6.761 8.83l-6.57 4.027A2 2 0 0 0 2 14h12a2 2 0 0 0 1.808-1.144l-6.57-4.027L8 9.586zm3.436-.586L16 11.801V4.697z"></path></symbol><symbol id="facebook" viewBox="0 0 16 16"><path fill="currentColor" d="M16 8.049c0-4.446-3.582-8.05-8-8.05C3.58 0-.002 3.603-.002 8.05c0 4.017 2.926 7.347 6.75 7.951v-5.625h-2.03V8.05H6.75V6.275c0-2.017 1.195-3.131 3.022-3.131.876 0 1.791.157 1.791.157v1.98h-1.009c-.993 0-1.303.621-1.303 1.258v1.51h2.218l-.354 2.326H9.25V16c3.824-.604 6.75-3.934 6.75-7.951"></path></symbol><symbol id="hammer" viewBox="0 0 16 16"><path fill="currentColor" d="M9.972 2.508a.5.5 0 0 0-.16-.556l-.178-.129a5 5 0 0 0-2.076-.783C6.215.862 4.504 1.229 2.84 3.133H1.786a.5.5 0 0 0-.354.147L.146 4.567a.5.5 0 0 0 0 .706l2.57 2.579a.5.5 0 0 0 .709 0l1.286-1.29a.5.5 0 0 0 .146-.353V5.57l8.387 8.873A.5.5 0 0 0 14 14.5l1.5-1.5a.5.5 0 0 0 .017-.689l-9.13-8.63c.748-.456 1.773-.839 3.113-.839a.5.5 0 0 0 .472-.334"></path></symbol><symbol id="instagram" viewBox="0 0 16 16"><path fill="currentColor" d="M8 0C5.829 0 5.556.01 4.703.048 3.85.088 3.269.222 2.76.42a3.9 3.9 0 0 0-1.417.923A3.9 3.9 0 0 0 .42 2.76C.222 3.268.087 3.85.048 4.7.01 5.555 0 5.827 0 8.001c0 2.172.01 2.444.048 3.297.04.852.174 1.433.372 1.942.205.526.478.972.923 1.417.444.445.89.719 1.416.923.51.198 1.09.333 1.942.372C5.555 15.99 5.827 16 8 16s2.444-.01 3.298-.048c.851-.04 1.434-.174 1.943-.372a3.9 3.9 0 0 0 1.416-.923c.445-.445.718-.891.923-1.417.197-.509.332-1.09.372-1.942C15.99 10.445 16 10.173 16 8s-.01-2.445-.048-3.299c-.04-.851-.175-1.433-.372-1.941a3.9 3.9 0 0 0-.923-1.417A3.9 3.9 0 0 0 13.24.42c-.51-.198-1.092-.333-1.943-.372C10.443.01 10.172 0 7.998 0zm-.717 1.442h.718c2.136 0 2.389.007 3.232.046.78.035 1.204.166 1.486.275.373.145.64.319.92.599s.453.546.598.92c.11.281.24.705.275 1.485.039.843.047 1.096.047 3.231s-.008 2.389-.047 3.232c-.035.78-.166 1.203-.275 1.485a2.5 2.5 0 0 1-.599.919c-.28.28-.546.453-.92.598-.28.11-.704.24-1.485.276-.843.038-1.096.047-3.232.047s-2.39-.009-3.233-.047c-.78-.036-1.203-.166-1.485-.276a2.5 2.5 0 0 1-.92-.598 2.5 2.5 0 0 1-.6-.92c-.109-.281-.24-.705-.275-1.485-.038-.843-.046-1.096-.046-3.233s.008-2.388.046-3.231c.036-.78.166-1.204.276-1.486.145-.373.319-.64.599-.92s.546-.453.92-.598c.282-.11.705-.24 1.485-.276.738-.034 1.024-.044 2.515-.045zm4.988 1.328a.96.96 0 1 0 0 1.92.96.96 0 0 0 0-1.92m-4.27 1.122a4.11 4.11 0 1 0-.128 8.217A4.11 4.11 0 0 0 8 3.892Zm0 1.441a2.667 2.667 0 1 1 0 5.334 2.667 2.667 0 0 1 0-5.334"></path></symbol><symbol id="list-stars" viewBox="0 0 16 16"><path fill="currentColor" fill-rule="evenodd" d="M5 11.5a.5.5 0 0 1 .5-.5h9a.5.5 0 0 1 0 1h-9a.5.5 0 0 1-.5-.5m0-4a.5.5 0 0 1 .5-.5h9a.5.5 0 0 1 0 1h-9a.5.5 0 0 1-.5-.5m0-4a.5.5 0 0 1 .5-.5h9a.5.5 0 0 1 0 1h-9a.5.5 0 0 1-.5-.5" clip-rule="evenodd"></path><path fill="currentColor" d="M2.242 2.194a.27.27 0 0 1 .516 0l.162.53c.035.115.14.194.258.194h.551c.26 0 .37.333.164.493l-.468.363a.28.28 0 0 0-.094.3l.173.569c.078.256-.213.462-.423.3l-.417-.324a.27.27 0 0 0-.328 0l-.417.323c-.21.163-.5-.043-.423-.3l.173-.57a.28.28 0 0 0-.094-.298l-.468-.363c-.206-.16-.095-.493.164-.493h.55a.27.27 0 0 0 .26-.194zm0 4a.27.27 0 0 1 .516 0l.162.53c.035.115.14.194.258.194h.551c.26 0 .37.333.164.493l-.468.363a.28.28 0 0 0-.094.3l.173.569c.078.255-.213.462-.423.3l-.417-.324a.27.27 0 0 0-.328 0l-.417.323c-.21.163-.5-.043-.423-.3l.173-.57a.28.28 0 0 0-.094-.298l-.468-.363c-.206-.16-.095-.493.164-.493h.55a.27.27 0 0 0 .26-.194zm0 4a.27.27 0 0 1 .516 0l.162.53c.035.115.14.194.258.194h.551c.26 0 .37.333.164.493l-.468.363a.28.28 0 0 0-.094.3l.173.569c.078.255-.213.462-.423.3l-.417-.324a.27.27 0 0 0-.328 0l-.417.323c-.21.163-.5-.043-.423-.3l.173-.57a.28.28 0 0 0-.094-.298l-.468-.363c-.206-.16-.095-.493.164-.493h.55a.27.27 0 0 0 .26-.194z"></path></symbol><symbol id="menu"><path stroke="currentColor" stroke-linecap="round" stroke-width="1.2" d="M2 12h12M2 8h12M2 4h12"></path></symbol><symbol id="quote" viewBox="0 0 16 16"><path fill="currentColor" d="M12 12a1 1 0 0 0 1-1V8.558a1 1 0 0 0-1-1h-1.388q0-.527.062-1.054.093-.558.31-.992.216-.434.559-.683.34-.279.868-.279V3q-.868 0-1.52.372a3.3 3.3 0 0 0-1.085.992 4.9 4.9 0 0 0-.62 1.458A7.7 7.7 0 0 0 9 7.558V11a1 1 0 0 0 1 1zm-6 0a1 1 0 0 0 1-1V8.558a1 1 0 0 0-1-1H4.612q0-.527.062-1.054.094-.558.31-.992t.559-.683q.34-.279.868-.279V3q-.868 0-1.52.372a3.3 3.3 0 0 0-1.085.992 4.9 4.9 0 0 0-.62 1.458A7.7 7.7 0 0 0 3 7.558V11a1 1 0 0 0 1 1z"></path></symbol><symbol id="search" viewBox="0 0 16 16"><path fill="currentColor" d="M11.742 10.344a6.5 6.5 0 1 0-1.397 1.398h-.001q.044.06.098.115l3.85 3.85a1 1 0 0 0 1.415-1.414l-3.85-3.85a1 1 0 0 0-.115-.099M12 6.5a5.5 5.5 0 1 1-11 0 5.5 5.5 0 0 1 11 0"></path></symbol><symbol id="send-fill" viewBox="0 0 16 16"><path fill="currentColor" d="M15.964.686a.5.5 0 0 0-.65-.65L.767 5.856H.766l-.452.18a.5.5 0 0 0-.082.886l.41.26.001.002 4.995 3.178 3.178 4.995.002.002.26.41a.5.5 0 0 0 .886-.083zm-1.833 1.89L6.637 10.07l-.215-.338a.5.5 0 0 0-.154-.154l-.338-.215 7.494-7.494 1.178-.471z"></path></symbol><symbol id="telegram" viewBox="0 0 16 16"><path fill="currentColor" d="M16 8A8 8 0 1 1-.001 8 8 8 0 0 1 16 8M8.287 5.906q-1.168.486-4.666 2.01-.567.225-.595.442c-.03.243.275.339.69.47l.175.055c.408.133.958.288 1.243.294q.39.01.868-.32 3.27-2.206 3.374-2.23c.05-.012.12-.026.166.016s.042.12.037.141c-.03.129-1.227 1.241-1.846 1.817-.193.18-.33.307-.358.336a8 8 0 0 1-.188.186c-.38.366-.664.64.015 1.088.327.216.589.393.85.571.284.194.568.387.936.629q.14.092.27.187c.331.236.63.448.997.414.214-.02.435-.22.547-.82.265-1.417.786-4.486.906-5.751q.011-.157-.013-.315a.34.34 0 0 0-.114-.217.53.53 0 0 0-.31-.093c-.3.005-.763.166-2.984 1.09"></path></symbol><symbol id="telephone-fill" viewBox="0 0 16 16"><path fill="currentColor" fill-rule="evenodd" d="M1.885.511a1.745 1.745 0 0 1 2.61.163L6.29 2.98c.329.423.445.974.315 1.494l-.547 2.19a.68.68 0 0 0 .178.643l2.457 2.457a.68.68 0 0 0 .644.178l2.189-.547a1.75 1.75 0 0 1 1.494.315l2.306 1.794c.829.645.905 1.87.163 2.611l-1.034 1.034c-.74.74-1.846 1.065-2.877.702a18.6 18.6 0 0 1-7.01-4.42 18.6 18.6 0 0 1-4.42-7.009c-.362-1.03-.037-2.137.703-2.877z" clip-rule="evenodd"></path></symbol><symbol id="translate" viewBox="0 0 16 16"><path fill="currentColor" d="M4.545 6.714 4.11 8H3l1.862-5h1.284L8 8H6.833l-.435-1.286zm1.634-.736L5.5 3.956h-.049l-.679 2.022z"></path><path fill="currentColor" d="M0 2a2 2 0 0 1 2-2h7a2 2 0 0 1 2 2v3h3a2 2 0 0 1 2 2v7a2 2 0 0 1-2 2H7a2 2 0 0 1-2-2v-3H2a2 2 0 0 1-2-2zm2-1a1 1 0 0 0-1 1v7a1 1 0 0 0 1 1h7a1 1 0 0 0 1-1V2a1 1 0 0 0-1-1zm7.138 9.995q.29.45.63.846c-.748.575-1.673 1.001-2.768 1.292.178.217.451.635.555.867 1.125-.359 2.08-.844 2.886-1.494.777.665 1.739 1.165 2.93 1.472.133-.254.414-.673.629-.89-1.125-.253-2.057-.694-2.82-1.284.681-.747 1.222-1.651 1.621-2.757H14V8h-3v1.047h.765c-.318.844-.74 1.546-1.272 2.13a6 6 0 0 1-.415-.492 2 2 0 0 1-.94.31"></path></symbol></svg>