<svg width="3108" height="386" viewBox="0 0 3108 386" fill="none" xmlns="http://www.w3.org/2000/svg">
<path d="M835.831 172.916L836.143 173.589L845.375 194.007V265.42L852.459 263.807L869.596 273.264V295.173L882.393 297.765V206.147L888.423 205.26V190.964L930.577 182.981V199.055L936.608 198.167V319.785H948.139V249.077H951.748V241.86H955.131V234.865H996.568V241.86H999.953V249.077H1002.96V340.375H1035.85V385.344H0V340.375H50.1474V278.866H54.6595V205.766H58.7209V164.703H63.6841V126.8H92.761V164.703H97.7245V205.766H101.786V278.866H106.298V314.272H125.798V261.262L137.638 263.143V248.948L144.467 248.327V236.197L193.074 230.535V243.91L199.91 243.289V273.034L209.204 274.51V171.826L214.587 171.033V158.271L252.219 151.144V165.494L257.603 164.701V253.279H319.803L320.199 254.619L320.331 255.066L320.463 255.513L320.595 255.96L320.727 256.407L320.859 256.854L320.991 257.301L321.123 257.748L323.763 266.688L323.895 267.135L324.027 267.582H330.717V315.65H345.115V229.945H349.53V210.893H415.508V229.945H419.503V242.758H464.88V255.524H468.305V331.502H489.94V225.57H485.541V219.734H490.304L493.718 213.381L496.687 207.859L496.957 207.357L498.576 204.345H572.259L574.148 207.859L574.417 208.361L574.957 209.365L580.528 219.734H585.29V225.57H580.891V280.501H607.201V169.404C607.201 169.246 607.204 169.091 607.21 168.939C607.215 168.786 607.223 168.635 607.233 168.487C607.243 168.339 607.257 168.193 607.272 168.049C607.287 167.905 607.306 167.764 607.326 167.624C607.347 167.484 607.37 167.347 607.396 167.212C607.421 167.077 607.449 166.944 607.479 166.814C607.51 166.683 607.542 166.554 607.577 166.428C607.612 166.302 607.65 166.177 607.689 166.055C607.729 165.933 607.771 165.813 607.815 165.695C607.86 165.577 607.907 165.461 607.955 165.347C608.004 165.233 608.055 165.121 608.109 165.011C608.162 164.901 608.218 164.794 608.275 164.688C608.333 164.582 608.393 164.478 608.455 164.376C608.479 164.336 608.504 164.295 608.529 164.256C608.568 164.195 608.607 164.135 608.647 164.076C608.712 163.978 608.781 163.882 608.851 163.787C608.921 163.693 608.994 163.601 609.068 163.51C609.099 163.472 609.131 163.434 609.163 163.396C609.206 163.345 609.251 163.294 609.296 163.244C609.343 163.193 609.39 163.141 609.438 163.091C609.454 163.074 609.47 163.057 609.487 163.04C609.503 163.023 609.52 163.006 609.536 162.989C609.618 162.906 609.701 162.825 609.787 162.745C609.873 162.666 609.96 162.589 610.05 162.512C610.139 162.437 610.23 162.362 610.323 162.29C610.416 162.218 610.51 162.147 610.607 162.078C610.651 162.047 610.694 162.016 610.739 161.986C610.792 161.949 610.847 161.913 610.901 161.877C610.938 161.853 610.974 161.829 611.011 161.806C611.042 161.786 611.074 161.766 611.107 161.746C611.139 161.726 611.172 161.705 611.206 161.685C611.309 161.623 611.413 161.563 611.52 161.504C611.627 161.445 611.734 161.388 611.844 161.333C611.953 161.277 612.064 161.223 612.177 161.171C612.29 161.119 612.404 161.068 612.519 161.019C612.635 160.969 612.751 160.922 612.87 160.876C612.92 160.857 612.969 160.838 613.019 160.819C613.089 160.793 613.159 160.768 613.23 160.743C613.351 160.7 613.474 160.658 613.597 160.618C613.722 160.578 613.846 160.54 613.973 160.503L613.978 160.501L613.991 160.497L614 160.495L614.004 160.493L614.006 160.493C614.013 160.49 614.02 160.488 614.027 160.487L614.04 160.483C614.045 160.481 614.049 160.48 614.054 160.479C614.058 160.477 614.063 160.476 614.068 160.475C614.072 160.473 614.077 160.472 614.081 160.471C614.086 160.469 614.09 160.468 614.095 160.467C614.1 160.465 614.104 160.464 614.109 160.462L614.118 160.46L614.122 160.459C614.127 160.457 614.132 160.456 614.136 160.455C614.141 160.453 614.145 160.452 614.15 160.451L614.155 160.449L614.173 160.444L614.177 160.442L614.179 160.442L614.191 160.438C614.195 160.437 614.198 160.436 614.202 160.435L614.207 160.434L614.219 160.43C614.228 160.428 614.238 160.425 614.247 160.422C614.257 160.42 614.266 160.417 614.275 160.414L614.284 160.412L614.289 160.411L614.303 160.407C614.313 160.405 614.322 160.402 614.332 160.4L614.34 160.397L614.345 160.396L614.352 160.394L614.36 160.392C614.369 160.39 614.378 160.387 614.388 160.385L614.394 160.383L614.402 160.381C614.407 160.38 614.411 160.378 614.416 160.377L614.43 160.373C614.435 160.372 614.44 160.371 614.444 160.37C614.454 160.367 614.463 160.365 614.473 160.362C614.479 160.361 614.484 160.36 614.49 160.358L614.502 160.355L614.559 160.341L614.588 160.334L614.649 160.319C614.657 160.318 614.665 160.316 614.673 160.314L614.677 160.313C614.686 160.311 614.694 160.309 614.702 160.308L614.708 160.307C614.716 160.305 614.723 160.303 614.731 160.302C614.735 160.301 614.74 160.3 614.744 160.299C614.749 160.298 614.754 160.297 614.759 160.295L614.788 160.289C614.792 160.288 614.797 160.287 614.801 160.286L614.802 160.286L614.81 160.284L614.817 160.283C614.825 160.281 614.833 160.279 614.841 160.278L614.845 160.277C614.851 160.276 614.856 160.275 614.862 160.274L614.874 160.271C614.928 160.259 614.982 160.246 615.036 160.234L615.199 160.198C615.254 160.186 615.309 160.174 615.364 160.164C615.409 160.154 615.455 160.145 615.5 160.136L615.504 160.135L615.529 160.13C615.561 160.124 615.593 160.118 615.625 160.112L615.696 160.099L615.783 160.083C615.81 160.078 615.837 160.073 615.864 160.068C615.899 160.062 615.934 160.056 615.969 160.05L616.033 160.04L616.203 160.012C616.222 160.009 616.242 160.006 616.261 160.003L616.307 159.996C616.329 159.993 616.352 159.99 616.374 159.987C616.431 159.978 616.489 159.97 616.546 159.962C616.604 159.954 616.662 159.947 616.72 159.938L616.895 159.916L617.07 159.895C617.109 159.891 617.147 159.887 617.186 159.883L617.247 159.876C617.306 159.87 617.365 159.864 617.424 159.858L617.603 159.841C617.663 159.835 617.723 159.83 617.783 159.825L617.836 159.821C617.878 159.817 617.921 159.814 617.963 159.811C618.023 159.806 618.084 159.802 618.145 159.798L618.328 159.786C618.358 159.783 618.389 159.782 618.42 159.78L618.511 159.775L618.6 159.77C618.631 159.768 618.663 159.766 618.695 159.765L618.88 159.756C618.942 159.753 619.004 159.751 619.066 159.749L619.072 159.749C619.133 159.746 619.193 159.744 619.253 159.743L619.441 159.737C619.465 159.737 619.488 159.736 619.512 159.736L619.565 159.735L619.629 159.733C619.692 159.732 619.755 159.731 619.819 159.731L619.883 159.73C619.925 159.729 619.967 159.729 620.009 159.729C620.041 159.729 620.074 159.728 620.106 159.728L620.392 159.728C620.456 159.728 620.52 159.729 620.584 159.729C620.593 159.729 620.603 159.729 620.612 159.729C620.617 159.729 620.622 159.729 620.626 159.729C620.631 159.728 620.636 159.728 620.64 159.728C620.645 159.728 620.65 159.728 620.654 159.728C620.659 159.728 620.664 159.728 620.668 159.728C620.673 159.728 620.678 159.728 620.682 159.727C620.687 159.727 620.692 159.727 620.696 159.727C620.706 159.727 620.715 159.727 620.725 159.727C620.734 159.727 620.743 159.727 620.753 159.726H620.977C620.986 159.726 620.996 159.726 621.005 159.727C621.014 159.727 621.024 159.727 621.033 159.727H621.034C621.043 159.727 621.052 159.727 621.061 159.728H621.062L621.074 159.728L621.08 159.728L621.089 159.728C621.098 159.728 621.108 159.729 621.117 159.729C621.122 159.729 621.127 159.729 621.131 159.729C621.136 159.729 621.141 159.729 621.145 159.729C621.155 159.729 621.164 159.73 621.173 159.73C621.178 159.73 621.183 159.73 621.188 159.73C621.193 159.73 621.197 159.731 621.202 159.731L621.21 159.731C621.217 159.731 621.223 159.731 621.23 159.731C621.235 159.731 621.24 159.731 621.245 159.731C621.249 159.732 621.254 159.732 621.259 159.732L621.265 159.732L621.273 159.732L621.279 159.732L621.287 159.732C621.297 159.732 621.306 159.733 621.316 159.733C621.326 159.733 621.335 159.733 621.345 159.733L621.352 159.734L621.365 159.734L621.373 159.734C621.383 159.734 621.392 159.735 621.402 159.735L621.41 159.735L621.416 159.735C621.421 159.735 621.426 159.735 621.431 159.735C621.436 159.735 621.44 159.735 621.445 159.735L621.452 159.736L621.459 159.736C621.466 159.736 621.472 159.736 621.478 159.736L621.488 159.737C621.546 159.739 621.604 159.741 621.662 159.743C621.719 159.745 621.777 159.748 621.836 159.751C621.894 159.753 621.952 159.756 622.01 159.759L622.186 159.767C622.244 159.77 622.302 159.773 622.361 159.776L622.537 159.787C622.596 159.79 622.654 159.794 622.713 159.798C622.772 159.802 622.83 159.805 622.889 159.809L623.066 159.821L623.12 159.825L623.154 159.827L623.5 159.854C623.533 159.857 623.566 159.859 623.6 159.862C623.659 159.867 623.719 159.872 623.778 159.877L623.957 159.893C624.017 159.898 624.076 159.904 624.136 159.909L624.316 159.926L624.33 159.927C624.362 159.93 624.395 159.933 624.428 159.937L624.495 159.944L624.556 159.95L624.586 159.953L624.855 159.981C624.915 159.987 624.975 159.994 625.035 160C625.093 160.006 625.152 160.013 625.21 160.02L625.215 160.02L625.396 160.041C625.425 160.044 625.453 160.048 625.482 160.051C625.513 160.055 625.545 160.059 625.577 160.062C625.637 160.069 625.698 160.076 625.758 160.084L625.956 160.108L625.957 160.108C626.011 160.115 626.066 160.122 626.121 160.129C626.154 160.133 626.186 160.137 626.219 160.142L626.569 160.188C626.601 160.192 626.633 160.197 626.665 160.201C626.726 160.21 626.787 160.218 626.847 160.227L627.109 160.264C627.143 160.269 627.177 160.274 627.211 160.279C627.22 160.28 627.23 160.282 627.239 160.283C627.249 160.284 627.258 160.286 627.267 160.287L627.279 160.289L627.282 160.289L627.296 160.291C627.303 160.292 627.311 160.294 627.319 160.295L627.324 160.296C627.333 160.297 627.342 160.299 627.352 160.3C627.361 160.302 627.371 160.303 627.38 160.305C627.384 160.306 627.389 160.307 627.394 160.307C627.398 160.308 627.403 160.309 627.408 160.31C627.412 160.31 627.417 160.311 627.422 160.312C627.427 160.313 627.431 160.313 627.436 160.314C627.445 160.316 627.455 160.317 627.464 160.319C627.473 160.32 627.483 160.322 627.492 160.323C627.501 160.325 627.511 160.326 627.52 160.328C627.525 160.329 627.529 160.329 627.534 160.33C627.539 160.331 627.544 160.332 627.548 160.333C627.557 160.334 627.567 160.335 627.576 160.337C627.585 160.339 627.595 160.34 627.604 160.342C627.609 160.343 627.614 160.343 627.618 160.344C627.623 160.345 627.628 160.345 627.632 160.346C627.641 160.348 627.651 160.349 627.66 160.351C627.67 160.353 627.679 160.354 627.688 160.355C627.698 160.357 627.707 160.358 627.717 160.36C627.726 160.362 627.735 160.363 627.745 160.365C627.749 160.365 627.754 160.366 627.759 160.367C627.763 160.368 627.768 160.368 627.773 160.369C627.777 160.37 627.782 160.371 627.787 160.371L627.792 160.372L627.801 160.374C627.805 160.375 627.81 160.375 627.815 160.376C627.819 160.377 627.824 160.377 627.829 160.378C627.838 160.38 627.848 160.381 627.857 160.383C627.861 160.384 627.866 160.384 627.871 160.385C627.876 160.386 627.88 160.387 627.885 160.387C627.894 160.389 627.904 160.39 627.913 160.392C627.918 160.393 627.922 160.393 627.927 160.394L627.941 160.397C627.95 160.398 627.96 160.4 627.969 160.401C627.978 160.403 627.988 160.404 627.997 160.406C628.006 160.408 628.016 160.409 628.025 160.41C628.034 160.412 628.044 160.413 628.053 160.414C628.058 160.415 628.062 160.416 628.067 160.417L628.081 160.418C628.09 160.42 628.1 160.421 628.109 160.422L628.29 160.452C628.35 160.461 628.41 160.471 628.47 160.481L628.525 160.49L628.596 160.502L628.651 160.511L628.741 160.527C628.771 160.532 628.801 160.537 628.831 160.542C628.891 160.551 628.951 160.562 629.011 160.572C629.072 160.583 629.132 160.594 629.192 160.604C629.252 160.615 629.312 160.625 629.372 160.636L629.588 160.675L629.659 160.688L629.732 160.702C629.792 160.713 629.852 160.724 629.912 160.735C629.942 160.741 629.972 160.746 630.002 160.752C630.032 160.758 630.062 160.763 630.092 160.769L630.271 160.803C630.332 160.815 630.391 160.826 630.451 160.838L630.63 160.873C630.69 160.885 630.75 160.897 630.809 160.909L631.167 160.981C631.197 160.987 631.227 160.993 631.257 160.999L631.304 161.009L631.396 161.028L631.44 161.037L631.881 161.13C631.94 161.143 631.999 161.156 632.059 161.169L632.237 161.207C632.296 161.22 632.355 161.233 632.414 161.246C632.473 161.259 632.532 161.272 632.591 161.285L632.945 161.364C632.974 161.371 633.003 161.377 633.033 161.384C633.062 161.391 633.092 161.397 633.121 161.404C633.147 161.41 633.173 161.416 633.199 161.422L633.223 161.427L633.297 161.444C633.327 161.451 633.356 161.458 633.385 161.465C633.415 161.471 633.444 161.478 633.473 161.485L633.514 161.494C633.559 161.505 633.604 161.515 633.649 161.526L633.824 161.567C633.833 161.569 633.843 161.571 633.852 161.574L633.88 161.581C633.889 161.583 633.899 161.585 633.908 161.587L633.936 161.594L633.993 161.608L634.021 161.615L634.077 161.629L634.105 161.636C634.114 161.638 634.124 161.64 634.133 161.642L634.162 161.649L634.191 161.656L634.248 161.67C634.257 161.672 634.267 161.674 634.277 161.677L634.305 161.684L634.334 161.69C634.344 161.693 634.353 161.695 634.362 161.697L634.404 161.707L634.419 161.711L634.447 161.718C634.457 161.72 634.466 161.723 634.475 161.725L634.559 161.745L634.587 161.752L634.601 161.756L634.615 161.759L634.643 161.766L634.67 161.773L634.725 161.787L634.914 161.833C634.977 161.849 635.04 161.864 635.103 161.88C635.166 161.896 635.229 161.912 635.292 161.927C635.355 161.942 635.417 161.959 635.479 161.975C635.511 161.983 635.542 161.99 635.573 161.998L635.611 162.008L635.667 162.022L635.705 162.032L635.707 162.032C635.756 162.045 635.804 162.058 635.853 162.07L636.04 162.118C636.101 162.134 636.163 162.15 636.225 162.166C636.286 162.182 636.348 162.198 636.409 162.214C636.47 162.23 636.531 162.246 636.593 162.263L636.623 162.27L636.776 162.311C636.837 162.327 636.898 162.344 636.959 162.36C636.989 162.368 637.02 162.376 637.05 162.385C637.08 162.393 637.111 162.401 637.141 162.409L637.196 162.424C637.238 162.435 637.28 162.447 637.322 162.459C637.382 162.475 637.442 162.491 637.502 162.508C637.562 162.524 637.622 162.54 637.682 162.557C637.712 162.565 637.742 162.574 637.772 162.582C637.801 162.59 637.831 162.598 637.861 162.606C637.92 162.623 637.98 162.639 638.039 162.656C638.098 162.672 638.158 162.689 638.217 162.705C638.276 162.721 638.335 162.738 638.393 162.755L638.569 162.804L638.636 162.823L638.642 162.825C638.676 162.834 638.71 162.844 638.743 162.854L638.803 162.871C638.841 162.882 638.879 162.893 638.917 162.904C638.975 162.92 639.033 162.937 639.09 162.953L639.262 163.003C639.319 163.019 639.376 163.036 639.433 163.052L639.538 163.083L639.603 163.101C639.66 163.118 639.716 163.134 639.772 163.15C639.8 163.159 639.828 163.167 639.856 163.175L640.063 163.236L640.179 163.27C640.21 163.279 640.242 163.289 640.274 163.298C640.298 163.306 640.323 163.313 640.348 163.32L640.349 163.321L640.378 163.329C640.398 163.335 640.419 163.341 640.439 163.347C640.449 163.351 640.458 163.354 640.468 163.357C640.474 163.359 640.48 163.361 640.485 163.363L640.497 163.366L640.505 163.369L640.514 163.372L640.525 163.375L640.533 163.378L640.54 163.38L640.545 163.382L640.554 163.385C640.559 163.386 640.563 163.388 640.568 163.389C640.573 163.391 640.578 163.392 640.583 163.394C640.587 163.395 640.591 163.397 640.596 163.398L640.597 163.398L640.603 163.4L640.611 163.403C640.616 163.404 640.621 163.406 640.625 163.408C640.63 163.409 640.635 163.411 640.64 163.412C640.65 163.415 640.659 163.418 640.668 163.421C640.678 163.424 640.687 163.427 640.697 163.43L640.783 163.456L640.867 163.482L640.895 163.491L640.96 163.511L640.97 163.513L640.979 163.516L640.989 163.519L640.999 163.522L641.008 163.524L641.02 163.528L641.03 163.53L641.036 163.532C641.04 163.533 641.045 163.535 641.05 163.536C641.054 163.537 641.059 163.538 641.064 163.54C641.073 163.543 641.083 163.545 641.092 163.548C641.101 163.551 641.11 163.553 641.12 163.556L641.128 163.558L641.136 163.561L641.148 163.564C641.157 163.567 641.166 163.569 641.176 163.572C641.185 163.575 641.195 163.577 641.204 163.58C641.211 163.582 641.218 163.584 641.225 163.586L641.232 163.588L641.26 163.596L641.272 163.599L641.282 163.602L641.288 163.603C641.297 163.606 641.307 163.609 641.316 163.611L641.324 163.613L641.33 163.615C641.335 163.616 641.339 163.617 641.344 163.618C641.418 163.641 641.49 163.664 641.562 163.687L641.656 163.717L641.658 163.717C641.699 163.73 641.739 163.742 641.778 163.755C641.85 163.778 641.922 163.8 641.993 163.823C642.033 163.835 642.072 163.848 642.112 163.861L642.205 163.89L642.317 163.926L642.414 163.957C642.483 163.98 642.553 164.002 642.621 164.024C642.69 164.046 642.758 164.068 642.827 164.09C642.895 164.113 642.962 164.134 643.029 164.156C643.096 164.178 643.163 164.2 643.229 164.221L643.297 164.243C643.34 164.258 643.384 164.272 643.427 164.286L643.479 164.303L643.622 164.35C643.687 164.372 643.751 164.393 643.815 164.414L643.848 164.425C643.9 164.443 643.953 164.46 644.005 164.478C644.068 164.499 644.13 164.52 644.192 164.541C644.254 164.562 644.316 164.583 644.376 164.603L644.464 164.633L644.559 164.665L644.633 164.69L644.738 164.725C644.797 164.745 644.856 164.766 644.914 164.786L644.977 164.807C645.014 164.82 645.051 164.833 645.088 164.845L645.138 164.862C645.179 164.876 645.219 164.89 645.258 164.904L645.281 164.912C645.329 164.929 645.378 164.946 645.426 164.962C645.482 164.981 645.537 165 645.591 165.019C645.646 165.038 645.699 165.057 645.753 165.075L645.817 165.098L645.911 165.131L646.029 165.172L646.067 165.185L646.134 165.209L646.266 165.256L646.268 165.256C646.302 165.268 646.335 165.28 646.369 165.292L646.468 165.327L646.515 165.344L646.573 165.365C646.601 165.375 646.63 165.385 646.658 165.395C646.677 165.402 646.696 165.409 646.715 165.415L646.765 165.433L646.797 165.445L646.853 165.465L646.856 165.466L646.876 165.473C646.895 165.48 646.914 165.487 646.934 165.494C646.978 165.51 647.023 165.526 647.067 165.542C647.077 165.546 647.087 165.55 647.098 165.554L647.109 165.558L647.13 165.566C647.14 165.57 647.15 165.573 647.16 165.577C647.171 165.581 647.181 165.585 647.191 165.589L647.198 165.591L647.205 165.594L647.211 165.596L647.222 165.6L647.236 165.605C647.241 165.607 647.247 165.609 647.253 165.611C647.261 165.614 647.269 165.617 647.277 165.62L647.283 165.623C647.293 165.626 647.303 165.63 647.313 165.634L647.328 165.639L647.343 165.645L647.373 165.656L647.385 165.66C647.391 165.662 647.397 165.664 647.403 165.666C647.412 165.67 647.422 165.673 647.432 165.677C647.442 165.681 647.451 165.684 647.461 165.688L647.474 165.693L647.49 165.699C647.497 165.701 647.505 165.704 647.513 165.707L647.518 165.709L647.547 165.719C647.557 165.723 647.566 165.726 647.575 165.729L647.603 165.74L647.631 165.75L647.658 165.76L647.66 165.761C647.669 165.764 647.677 165.767 647.686 165.77L647.704 165.777L647.713 165.78C647.722 165.783 647.73 165.787 647.74 165.79C647.749 165.793 647.757 165.796 647.766 165.799L647.771 165.801L647.778 165.804L647.779 165.804L647.783 165.806L647.818 165.819C647.827 165.822 647.835 165.825 647.844 165.829C647.852 165.831 647.861 165.835 647.87 165.838C647.874 165.84 647.879 165.842 647.884 165.843L647.895 165.848L647.902 165.851L647.907 165.853L647.92 165.858C647.928 165.861 647.937 165.864 647.945 165.867C647.953 165.87 647.961 165.873 647.969 165.876L648.001 165.888L648.079 165.916C648.095 165.922 648.111 165.928 648.127 165.934L648.141 165.939L648.157 165.945L648.203 165.962C648.227 165.971 648.252 165.98 648.276 165.989C648.3 165.998 648.324 166.007 648.347 166.015C648.371 166.024 648.394 166.032 648.416 166.041C648.425 166.045 648.435 166.048 648.444 166.052L648.482 166.066C648.504 166.074 648.525 166.082 648.547 166.09C648.568 166.098 648.588 166.105 648.608 166.113C648.628 166.12 648.648 166.128 648.668 166.135L648.704 166.149L648.725 166.157L648.758 166.169L648.799 166.185C648.81 166.189 648.82 166.193 648.831 166.197C648.848 166.204 648.864 166.21 648.88 166.216L648.898 166.223L648.899 166.223C648.909 166.227 648.918 166.231 648.927 166.235L648.947 166.242L648.972 166.252C648.98 166.255 648.988 166.258 648.996 166.261L649.014 166.268C649.028 166.273 649.041 166.278 649.053 166.283C649.06 166.286 649.068 166.289 649.075 166.292L649.106 166.304L649.124 166.311L649.136 166.316L649.153 166.322L649.156 166.323C649.166 166.327 649.176 166.331 649.185 166.335L649.199 166.34L649.211 166.345L649.235 166.354L649.248 166.359L649.256 166.363C649.259 166.364 649.263 166.366 649.267 166.368L649.274 166.37L649.279 166.372L649.285 166.374L649.289 166.377L649.296 166.379C649.298 166.38 649.3 166.381 649.302 166.382C649.306 166.384 649.309 166.385 649.312 166.386C649.315 166.387 649.317 166.388 649.319 166.389C649.32 166.389 649.322 166.39 649.323 166.39L649.324 166.391V187.413C649.373 187.415 649.421 187.416 649.47 187.417L649.516 187.419C649.549 187.42 649.582 187.422 649.615 187.423C649.659 187.425 649.702 187.427 649.746 187.429L649.903 187.436C649.95 187.439 649.998 187.441 650.046 187.444L650.189 187.452L650.191 187.452L650.224 187.454L650.268 187.457L650.297 187.459L650.331 187.461L650.357 187.463L650.401 187.466C650.425 187.468 650.449 187.47 650.472 187.471C650.519 187.475 650.566 187.478 650.613 187.482C650.66 187.486 650.707 187.49 650.753 187.494L650.893 187.506L650.939 187.51C650.97 187.513 651.001 187.516 651.032 187.519L651.171 187.533L651.207 187.536L651.24 187.54C651.263 187.542 651.286 187.545 651.309 187.547C651.355 187.552 651.401 187.557 651.446 187.562C651.492 187.567 651.537 187.572 651.583 187.578L651.604 187.58L651.644 187.585L651.647 187.586L651.65 187.586L651.668 187.588L651.719 187.594L651.855 187.612C651.874 187.614 651.893 187.616 651.911 187.619L651.99 187.63L652.124 187.649C652.147 187.652 652.171 187.655 652.194 187.659L652.196 187.659L652.258 187.668C652.288 187.673 652.317 187.677 652.347 187.682L652.391 187.689C652.435 187.696 652.479 187.703 652.523 187.71L652.655 187.732C652.699 187.74 652.742 187.747 652.786 187.755L652.824 187.762L652.857 187.768L652.858 187.768L652.916 187.779C652.96 187.787 653.003 187.795 653.047 187.803L653.07 187.808L653.111 187.816C653.132 187.82 653.154 187.824 653.175 187.829L653.176 187.829C653.219 187.837 653.262 187.846 653.304 187.855C653.33 187.86 653.355 187.866 653.381 187.871L653.559 187.909C653.601 187.919 653.643 187.928 653.685 187.938L653.714 187.945L653.742 187.952L653.8 187.966L653.828 187.972L653.886 187.986L653.914 187.993L653.942 188C653.951 188.002 653.961 188.004 653.97 188.007L653.998 188.014C654.007 188.017 654.017 188.019 654.026 188.022L654.036 188.024C654.042 188.026 654.048 188.027 654.054 188.029L654.068 188.033L654.095 188.04L654.097 188.041L654.11 188.044L654.122 188.047C654.128 188.048 654.133 188.05 654.138 188.051L654.152 188.055L654.158 188.057L654.166 188.059L654.194 188.066L654.2 188.068L654.207 188.07L654.208 188.07L654.222 188.074C654.231 188.076 654.241 188.079 654.25 188.081C654.255 188.082 654.259 188.083 654.263 188.085L654.27 188.086L654.278 188.089C654.288 188.091 654.297 188.094 654.307 188.096C654.316 188.098 654.325 188.101 654.335 188.104C654.344 188.106 654.353 188.109 654.363 188.111L654.375 188.114C654.38 188.116 654.385 188.117 654.391 188.118C654.396 188.12 654.4 188.121 654.405 188.122C654.409 188.123 654.414 188.125 654.419 188.126C654.428 188.128 654.437 188.131 654.447 188.133C654.451 188.134 654.456 188.136 654.461 188.137L654.466 188.139L654.474 188.141L654.484 188.144L654.491 188.145L654.502 188.148C654.507 188.15 654.512 188.151 654.517 188.152L654.531 188.156C654.54 188.158 654.549 188.161 654.558 188.163C654.567 188.165 654.576 188.168 654.585 188.171C654.712 188.208 654.837 188.246 654.962 188.286C655.086 188.325 655.209 188.367 655.33 188.41C655.452 188.453 655.571 188.497 655.69 188.543C655.75 188.566 655.81 188.59 655.869 188.614L655.919 188.634L655.949 188.647C655.98 188.66 656.01 188.673 656.041 188.685C656.157 188.734 656.27 188.785 656.383 188.837C656.415 188.852 656.446 188.866 656.477 188.881C656.558 188.919 656.638 188.958 656.717 188.998C656.744 189.012 656.771 189.026 656.798 189.04L656.849 189.066L656.895 189.091L656.943 189.116C656.976 189.133 657.008 189.151 657.04 189.169C657.147 189.227 657.252 189.288 657.355 189.35C657.391 189.371 657.427 189.393 657.462 189.415C657.487 189.431 657.511 189.446 657.536 189.461C657.577 189.488 657.618 189.514 657.659 189.541C657.758 189.606 657.856 189.673 657.953 189.742C658.049 189.81 658.144 189.881 658.237 189.953C658.33 190.025 658.421 190.099 658.51 190.175C658.6 190.25 658.687 190.328 658.773 190.407C658.858 190.486 658.942 190.567 659.024 190.651C659.106 190.734 659.186 190.818 659.264 190.905C659.342 190.991 659.418 191.08 659.493 191.171C659.567 191.261 659.639 191.353 659.709 191.447C659.78 191.541 659.847 191.637 659.913 191.735C659.979 191.833 660.043 191.933 660.105 192.035C660.167 192.137 660.226 192.241 660.284 192.347C660.342 192.453 660.397 192.561 660.45 192.671C660.504 192.781 660.555 192.892 660.603 193.006C660.652 193.12 660.699 193.236 660.743 193.354C660.787 193.472 660.829 193.593 660.869 193.715C660.879 193.748 660.89 193.78 660.9 193.813L660.917 193.867C660.939 193.94 660.961 194.014 660.981 194.089C661.016 194.215 661.049 194.344 661.079 194.475C661.11 194.605 661.138 194.738 661.163 194.873C661.188 195.009 661.211 195.146 661.232 195.285C661.239 195.335 661.246 195.386 661.253 195.436L661.258 195.478L661.264 195.523C661.271 195.585 661.279 195.647 661.285 195.71C661.301 195.854 661.314 196.001 661.324 196.149C661.335 196.297 661.343 196.448 661.348 196.601C661.356 196.753 661.359 196.909 661.359 197.066V275.065L682.857 264.574L752.992 278.021V256.458H767.291V280.762L770.635 281.404V328.745H789.719V124.563L814.534 86.8447L835.831 124.563V172.916Z" fill="url(#paint0_linear_248_3469)"/>
<path d="M2781.96 175.261L2782.11 175.262H2786.91V321.509H2816.75V240.862H2849.96V248.923H2857.6V268.011H2865.66V333.915H2890.59V272.209L2891.67 271.897L2894.37 271.116L2896 270.648L2897.17 270.31V264.055L2965.4 242.921V250.621L2971.99 248.721V302.901H2990.41V223.337L2995 222.498V201.407L2999.21 200.256V171.385L3023.63 181.029V193.579L3027.84 192.428V216.494L3032.43 215.655V340.244H3107.56V385.214H2071.71V340.244H2107.75V163.959H2112.94V151.968H2141.45V163.959H2159.86V151.968H2169.7V163.959H2174.54V318.408H2187.6V305.626L2187.61 305.597L2187.61 305.567L2187.62 305.537L2187.62 305.507L2187.63 305.478L2187.63 305.448L2187.64 305.388L2187.65 305.358L2187.65 305.329L2187.65 305.299L2187.66 305.27L2187.66 305.24L2187.67 305.21L2187.67 305.18L2187.68 305.15L2187.68 305.121L2187.69 305.091L2187.69 305.061L2187.7 305.002L2187.71 304.972L2187.71 304.943L2187.72 304.913L2187.72 304.883L2187.73 304.853L2187.73 304.823L2187.74 304.794L2187.74 304.764L2187.75 304.734L2187.75 304.704L2187.76 304.675L2187.78 304.532L2187.8 304.39L2187.83 304.248L2187.87 303.964L2187.9 303.822L2187.92 303.68L2187.94 303.538L2187.97 303.396L2187.99 303.253L2188.04 302.969L2188.06 302.827L2188.08 302.684L2188.11 302.542L2188.15 302.258L2188.18 302.116L2188.2 301.973L2188.22 301.831L2188.24 301.689L2188.27 301.547L2188.31 301.263L2188.34 301.121L2188.36 300.979L2188.38 300.836L2188.41 300.694L2188.43 300.552L2188.48 300.267L2188.5 300.125L2188.52 299.98L2188.57 299.688L2188.6 299.542L2188.62 299.396L2188.64 299.25L2188.69 298.958L2188.71 298.812L2188.74 298.666L2188.76 298.52L2188.81 298.228L2188.83 298.083L2188.86 297.937L2188.88 297.791L2188.93 297.499L2188.95 297.353L2189 297.061L2189.02 296.916L2189.05 296.77L2189.07 296.623L2189.12 296.332L2189.14 296.186L2189.19 295.894L2189.21 295.748L2189.24 295.602L2189.26 295.456L2189.28 295.35L2189.28 295.329L2189.28 295.307L2189.3 295.18L2189.31 295.159L2189.32 295.053L2189.33 295.031L2189.36 294.819L2189.37 294.798L2189.37 294.776L2189.59 293.443L2189.63 293.176L2189.85 291.842L2189.89 291.575L2190.11 290.241L2190.15 289.975L2190.37 288.641L2190.42 288.374L2190.63 287.04L2190.68 286.773L2190.77 286.24L2190.77 286.197L2190.78 286.176L2190.8 286.049L2190.8 286.028L2190.8 286.006L2190.82 285.921L2190.82 285.9L2190.84 285.794L2190.84 285.773L2190.86 285.667L2190.86 285.645L2190.86 285.624L2190.87 285.56L2191.16 283.779L2191.19 283.601L2191.72 280.393L2191.75 280.215L2191.81 279.859H2196.21V261.55H2242.4L2242.45 259.23L2242.46 259.027L2242.51 256.583L2242.51 256.52L2242.51 256.456L2242.52 256.33L2242.52 256.266L2242.52 256.202L2242.52 256.139L2242.52 256.076L2242.52 256.012L2242.53 255.885L2242.53 255.822L2242.53 255.758L2242.53 255.695L2242.53 255.568L2242.53 255.505L2242.54 255.441L2242.54 255.378L2242.54 255.314L2242.54 255.251L2242.54 255.124L2242.54 255.06L2242.55 254.997L2242.55 254.934L2242.55 254.807L2242.55 254.743L2242.55 254.68L2242.55 254.616L2242.55 254.553L2242.7 248.028L2242.7 247.965L2242.7 247.901L2242.71 247.774L2242.71 247.71L2242.71 247.647L2242.71 247.584L2242.71 247.457L2242.72 247.393L2242.72 247.33L2242.72 247.266L2242.72 247.203L2242.72 247.139L2242.72 247.012L2242.73 246.949L2242.73 246.886L2242.73 246.822L2242.73 246.695L2242.73 246.632L2242.73 246.568L2242.73 246.505L2242.74 246.441L2242.74 246.378L2242.74 246.251L2242.74 246.187L2242.74 246.124L2242.74 246.06L2242.75 245.997L2242.76 245.386L2242.76 245.181L2242.78 244.366L2242.79 244.162L2242.8 243.55L2242.8 243.346L2242.82 242.531L2242.83 242.327L2242.85 241.307L2242.85 241.103L2242.87 240.288L2242.88 240.083L2242.89 239.471L2242.89 239.408L2242.89 239.345L2242.89 239.281L2242.89 239.218L2242.9 239.155L2242.9 239.091L2242.9 239.028L2242.9 238.964L2242.9 238.901L2242.9 238.837L2242.9 238.774L2242.91 238.71L2242.91 238.647L2242.91 238.584L2242.91 238.52L2242.91 238.457L2242.91 238.394L2242.91 238.33L2242.92 238.266L2242.92 238.203L2242.92 238.076L2242.92 238.013L2242.92 237.95L2242.92 237.886L2242.93 237.823L2242.93 237.759L2242.93 237.696L2242.93 237.632L2242.93 237.569L2242.93 237.505L2242.93 237.442L2242.98 235.609L2242.98 235.405L2243.03 233.164L2243.03 232.961L2243.08 230.924L2243.12 229.527L2243.12 229.463L2243.13 228.955L2243.13 228.892L2243.14 228.689L2243.16 227.873L2243.16 227.67L2243.18 226.854L2243.18 226.65L2243.2 226.039L2243.2 225.835L2243.22 224.816L2243.23 224.612L2243.25 223.797L2243.25 223.593L2243.27 222.778L2243.27 222.574L2243.28 222.37L2243.28 222.306L2243.28 222.18L2243.28 222.116L2243.28 222.053L2243.29 221.99L2243.29 221.863L2243.29 221.8L2243.29 221.736L2243.29 221.672L2243.29 221.609L2243.3 221.546L2243.3 221.419L2243.3 221.355L2243.3 221.292L2243.3 221.229L2243.3 221.101L2243.31 221.038L2243.31 220.975L2243.31 220.911L2243.31 220.848L2243.31 220.785L2243.31 220.658L2243.32 220.595L2243.32 220.531L2243.32 220.467L2243.32 220.341L2243.37 218.097L2243.38 217.893L2243.43 215.649L2243.43 215.445L2243.47 213.813L2243.47 213.75L2243.47 213.686L2243.47 213.623L2243.47 213.56L2243.47 213.496L2243.48 213.432L2243.48 213.369L2243.48 213.305L2243.48 213.242L2243.48 213.179L2243.48 213.115L2243.48 213.052L2243.49 212.988L2243.49 212.925L2243.49 212.861L2243.49 212.798L2243.49 212.734L2243.49 212.671L2243.49 212.608L2243.5 212.544L2243.5 212.481L2243.5 212.417L2243.5 212.354L2243.5 212.29L2243.5 212.227L2243.5 212.163L2243.51 212.037L2243.51 211.973L2243.51 211.91L2243.51 211.846L2243.51 211.783L2243.54 210.357L2243.55 210.153L2243.58 208.728L2243.58 208.525L2243.62 207.099L2243.62 206.896L2243.65 205.674L2243.65 205.47L2243.66 205.267L2243.66 205.203L2243.66 205.076L2243.66 205.013L2243.66 204.886L2243.67 204.822L2243.67 204.695L2243.67 204.632L2243.67 204.569L2243.67 204.505L2243.68 204.379L2243.68 204.315L2243.68 204.188L2243.68 204.124L2243.68 203.998L2243.68 203.934L2243.69 203.808L2243.69 203.744L2243.69 203.617L2243.69 203.553L2243.7 203.427L2243.7 203.363L2243.7 203.236L2243.7 203.032L2243.71 202.828L2243.78 199.566L2243.79 199.362L2243.85 196.712L2243.85 196.648L2243.85 196.521L2243.85 196.458L2243.85 196.395L2243.86 196.331L2243.86 196.204L2243.86 196.14L2243.86 196.014L2243.86 195.95L2243.87 195.823L2243.87 195.76L2243.87 195.696L2243.87 195.633L2243.87 195.506L2243.87 195.443L2243.88 195.316L2243.88 195.252L2243.88 195.188L2243.88 195.125L2243.88 194.998L2243.89 194.935L2243.89 194.807L2243.89 194.744L2243.89 194.681L2243.93 193.052L2243.93 192.848L2243.98 190.812L2243.98 190.609L2244.03 188.369L2244.04 188.165L2244.04 188.102L2244.04 188.038L2244.04 187.975L2244.04 187.912L2244.04 187.848L2244.04 187.785L2244.05 187.721L2244.05 187.658L2244.05 187.594L2244.05 187.531L2244.05 187.468L2244.05 187.404L2244.05 187.341L2244.06 187.277L2244.06 187.214L2244.06 187.15L2244.06 187.087L2244.06 187.023L2244.06 186.96L2244.06 186.897L2244.07 186.833L2244.07 186.77L2244.07 186.707L2244.07 186.643L2244.07 186.58L2244.07 186.516L2244.07 186.453L2244.08 186.389L2244.08 186.326L2244.08 186.263L2244.08 186.199L2244.08 186.136L2244.09 185.728L2244.1 185.524L2244.12 184.504L2244.12 184.3L2244.15 183.281L2244.15 183.077L2244.17 182.057L2244.18 181.853L2244.2 181.036L2244.2 180.833L2244.23 179.813L2244.23 179.609L2244.23 179.545L2244.23 179.482L2244.24 179.418L2244.24 179.291L2244.24 179.228L2244.24 179.165L2244.24 179.101L2244.25 178.974L2244.25 178.91L2244.25 178.848L2244.25 178.784L2244.25 178.657L2244.25 178.593L2244.26 178.53L2244.26 178.467L2244.26 178.339L2244.26 178.276L2244.26 178.213L2244.27 178.149L2244.27 178.022L2244.27 177.959L2244.27 177.895L2244.27 177.832L2244.28 177.705L2244.28 177.641L2244.28 177.578L2244.28 177.436L2244.38 173.023H2251.99L2251.99 172.996L2252.06 172.132L2252.1 171.7L2252.17 170.837L2252.2 170.405L2252.27 169.541L2252.31 169.109L2252.38 168.245L2252.41 167.813L2252.49 166.949L2252.52 166.518L2252.59 165.654L2252.63 165.222L2252.7 164.358L2252.73 163.926L2252.8 163.062L2252.84 162.63L2252.91 161.767L2252.94 161.335H2281.37V173.023H2287.08V205.965H2319.39V216.98H2329.82V243.059H2340.83V322.198H2369.93V225.493L2403.03 212.858L2407.11 215.093L2407.79 215.466L2411.19 217.329L2415.26 219.564L2417.3 220.682L2423.42 224.034L2424.1 224.407L2424.78 224.78V291.437L2435.3 288.073V268.82L2452.76 264.843L2469.9 274.3V296.207L2470.59 296.344L2478.85 298.017V189.488L2479.72 189.74C2480.15 189.862 2480.57 189.983 2480.98 190.102L2484.69 191.173V176.219L2501.82 182.742V171.837L2512.52 162.332L2517.38 158.012V188.669L2520.98 190.041V201.626L2524.07 202.516C2524.52 202.647 2524.98 202.778 2525.44 202.911C2525.66 202.976 2525.89 203.04 2526.11 203.104C2526.35 203.172 2526.59 203.241 2526.83 203.31V292.563H2559.53V241.76L2602.6 266.369H2634.3V319.696H2629.86V328.746H2669.46L2669.67 320.097L2669.67 320.014L2669.68 319.762L2669.68 319.679L2669.69 319.428L2669.69 319.344L2669.69 319.01L2669.7 318.926L2669.7 318.591L2669.71 318.507L2669.71 318.257L2669.71 318.172L2669.72 317.921L2669.72 317.838L2669.73 317.503L2669.73 317.419L2670.51 285.605L2670.51 285.521L2670.51 285.437L2670.52 285.27L2670.52 285.186L2670.52 285.018L2670.52 284.935L2670.53 284.767L2670.53 284.683L2670.54 284.516L2670.54 284.432L2670.54 284.348L2670.54 284.264L2670.55 284.097L2670.55 284.013L2670.55 283.846L2670.55 283.762L2670.56 283.594L2670.56 283.511L2670.56 283.343L2670.57 283.259L2670.57 283.092L2670.57 283.008L2670.58 282.924L2671.35 251.11L2671.36 251.026L2671.36 250.775L2671.36 250.691L2671.37 250.44L2671.37 250.356L2671.37 250.189L2671.38 250.106L2671.38 249.938L2671.38 249.854L2671.39 249.603L2671.39 249.52L2671.39 249.352L2671.39 249.269L2671.4 249.101L2671.4 249.017L2671.41 248.767L2671.41 248.683L2671.41 248.431L2672.23 214.981H2704.08L2704.9 248.431L2704.9 248.515L2704.91 248.599L2704.91 248.683L2704.91 248.767L2704.91 248.934L2704.91 249.017L2704.92 249.185L2704.92 249.269L2704.92 249.436L2704.93 249.52L2704.93 249.687L2704.93 249.771L2704.94 249.938L2704.94 250.021L2704.94 250.189L2704.94 250.273L2704.95 250.44L2704.95 250.524L2704.95 250.691L2704.95 250.775L2704.96 250.942L2704.96 251.026L2704.96 251.11L2705.74 282.924L2705.74 283.008L2705.74 283.092L2705.74 283.176L2705.75 283.343L2705.75 283.427L2705.76 283.594L2705.76 283.679L2705.76 283.846L2705.76 283.929L2705.77 284.097L2705.77 284.181L2705.77 284.348L2705.78 284.432L2705.78 284.599L2705.78 284.683L2705.78 284.767L2705.79 284.851L2705.79 284.935L2705.79 285.102L2705.79 285.186L2705.8 285.353L2705.8 285.437L2705.81 285.605L2705.96 292.046H2738.14V175.262H2743.09V160.251L2746.26 155.787L2746.44 155.539L2746.97 154.795L2747.14 154.546L2747.5 154.05L2747.67 153.802L2748.38 152.81L2748.73 152.313C2748.83 152.132 2748.94 151.944 2749.05 151.75C2749.16 151.556 2749.27 151.355 2749.39 151.148C2749.5 150.941 2749.62 150.727 2749.74 150.507C2749.86 150.287 2749.98 150.061 2750.11 149.828C2750.23 149.595 2750.36 149.356 2750.49 149.11C2750.61 148.865 2750.75 148.613 2750.88 148.354C2750.95 148.222 2751.01 148.089 2751.08 147.953C2751.15 147.824 2751.22 147.692 2751.28 147.56C2751.42 147.289 2751.56 147.011 2751.7 146.728C2751.84 146.444 2751.98 146.154 2752.12 145.858C2752.27 145.562 2752.41 145.259 2752.56 144.95C2752.7 144.641 2752.85 144.326 2753 144.005C2753.15 143.684 2753.3 143.356 2753.45 143.022C2753.6 142.689 2753.75 142.348 2753.9 142.003C2754.05 141.657 2754.21 141.304 2754.36 140.946C2754.52 140.588 2754.67 140.223 2754.83 139.852C2754.98 139.482 2755.14 139.105 2755.29 138.722C2755.45 138.34 2755.61 137.951 2755.76 137.556C2755.92 137.161 2756.08 136.76 2756.24 136.352C2756.39 135.945 2756.55 135.532 2756.71 135.113C2756.87 134.694 2757.03 134.269 2757.18 133.838C2757.34 133.407 2757.5 132.969 2757.66 132.527C2757.81 132.083 2757.97 131.634 2758.13 131.179C2758.28 130.724 2758.44 130.264 2758.59 129.797C2758.75 129.331 2758.9 128.858 2759.06 128.379C2759.21 127.901 2759.36 127.417 2759.52 126.926C2759.67 126.436 2759.82 125.94 2759.97 125.438C2760.12 124.937 2760.27 124.429 2760.42 123.915C2760.57 123.402 2760.71 122.883 2760.86 122.358C2761 121.833 2761.15 121.303 2761.29 120.766C2761.43 120.229 2761.57 119.687 2761.71 119.139C2761.85 118.592 2761.99 118.038 2762.12 117.479C2762.26 116.919 2762.39 116.355 2762.53 115.784C2762.62 116.273 2762.71 116.762 2762.81 117.249C2762.91 117.736 2763.01 118.221 2763.12 118.705C2763.23 119.188 2763.34 119.67 2763.45 120.15C2763.57 120.63 2763.69 121.108 2763.81 121.584C2763.93 122.061 2764.06 122.534 2764.18 123.006C2764.31 123.478 2764.44 123.947 2764.58 124.414C2764.71 124.881 2764.85 125.346 2764.99 125.807C2765.12 126.269 2765.27 126.728 2765.41 127.184C2765.55 127.64 2765.7 128.094 2765.85 128.544C2766 128.994 2766.15 129.441 2766.3 129.885C2766.45 130.329 2766.61 130.77 2766.76 131.207C2766.92 131.644 2767.08 132.078 2767.23 132.508C2767.39 132.938 2767.55 133.364 2767.71 133.787C2767.88 134.209 2768.04 134.627 2768.2 135.042C2768.36 135.457 2768.53 135.867 2768.69 136.273C2768.86 136.679 2769.02 137.082 2769.19 137.479C2769.35 137.877 2769.52 138.269 2769.69 138.658C2769.85 139.046 2770.02 139.43 2770.18 139.808C2770.35 140.187 2770.52 140.561 2770.68 140.93C2770.85 141.299 2771.01 141.662 2771.18 142.021C2771.34 142.379 2771.51 142.733 2771.67 143.08C2771.83 143.428 2771.99 143.771 2772.16 144.107C2772.32 144.444 2772.48 144.775 2772.64 145.1C2772.8 145.426 2772.95 145.745 2773.11 146.058C2773.27 146.371 2773.42 146.679 2773.57 146.98C2773.72 147.28 2773.88 147.575 2774.02 147.863C2774.17 148.152 2774.32 148.434 2774.46 148.709C2774.61 148.984 2774.75 149.252 2774.89 149.514C2774.92 149.579 2774.96 149.644 2774.99 149.708L2775.09 149.888L2775.09 149.89L2775.09 149.892L2775.19 150.073L2775.3 150.278C2775.43 150.525 2775.56 150.766 2775.69 151C2775.82 151.233 2775.95 151.46 2776.07 151.678C2776.13 151.784 2776.18 151.888 2776.24 151.991L2776.35 152.177L2776.42 152.312L2776.6 152.56L2776.77 152.809L2776.94 153.057L2777.29 153.553L2777.46 153.801L2777.64 154.05L2777.81 154.298L2777.98 154.546L2778.15 154.794L2778.33 155.042L2778.5 155.29L2778.85 155.787L2779.19 156.283L2779.37 156.531L2779.89 157.275L2780.06 157.523L2780.75 158.515L2780.92 158.763L2781.44 159.507L2781.62 159.755L2781.96 160.251V175.261Z" fill="url(#paint1_linear_248_3469)"/>
<path d="M1114.6 21.0138L1114.12 0H1112.75L1112.28 21.0138H1111.02C1111 21.0138 1110.99 21.0144 1110.98 21.015C1110.96 21.0155 1110.95 21.0167 1110.94 21.0178C1110.92 21.019 1110.91 21.0207 1110.9 21.023C1110.88 21.0247 1110.87 21.027 1110.86 21.0298C1110.85 21.0314 1110.84 21.0334 1110.83 21.0354L1110.82 21.0384L1110.81 21.0413L1110.79 21.0449L1110.78 21.0493C1110.76 21.0533 1110.75 21.0573 1110.74 21.0619L1110.72 21.0678C1110.72 21.0705 1110.71 21.0733 1110.7 21.0762L1110.68 21.0839C1110.68 21.0866 1110.67 21.0894 1110.67 21.0923C1110.66 21.0964 1110.65 21.1004 1110.64 21.1047C1110.64 21.1065 1110.63 21.1082 1110.63 21.11L1110.62 21.1157C1110.61 21.1201 1110.6 21.1247 1110.59 21.1295L1110.59 21.1301L1110.58 21.1388C1110.57 21.1426 1110.57 21.1463 1110.56 21.1501C1110.55 21.157 1110.54 21.1644 1110.53 21.1725L1110.52 21.1751L1110.51 21.1818C1110.51 21.1865 1110.5 21.1914 1110.5 21.1965C1110.49 21.2045 1110.48 21.2131 1110.46 21.2217L1110.46 21.2285C1110.45 21.2327 1110.45 21.2371 1110.44 21.2415L1110.44 21.2486C1110.43 21.2578 1110.42 21.267 1110.41 21.2767L1110.4 21.2865C1110.39 21.293 1110.38 21.2994 1110.38 21.3059C1110.38 21.31 1110.37 21.3141 1110.37 21.3183C1110.36 21.3242 1110.36 21.3303 1110.35 21.3363C1110.35 21.3428 1110.34 21.3496 1110.34 21.3564C1110.33 21.3604 1110.33 21.3644 1110.33 21.3683C1110.32 21.3792 1110.31 21.3901 1110.3 21.4016L1110.3 21.4121L1110.3 21.4129C1110.29 21.4204 1110.29 21.4279 1110.28 21.4359C1110.27 21.4474 1110.27 21.4594 1110.26 21.4714C1110.25 21.4835 1110.25 21.4955 1110.24 21.5081C1110.23 21.5201 1110.23 21.5327 1110.22 21.5453C1110.22 21.552 1110.22 21.5587 1110.21 21.5655C1110.21 21.5715 1110.21 21.5775 1110.21 21.5837C1110.2 21.5969 1110.2 21.61 1110.19 21.6232L1110.18 21.6414L1110.18 21.6633L1110.16 21.7045L1110.15 21.7463L1110.15 21.7636L1110.15 21.7893L1110.15 21.7901C1110.14 21.8042 1110.14 21.8182 1110.14 21.8328L1109.9 23.7206H1110.24L1108.06 48.0471H1093.63V58.8789H1084.89L1067.92 340.374H1035.85V385.344H2071.71V340.374H2020.39V200.451C2020.39 200.438 2020.39 200.425 2020.39 200.412C2020.39 200.392 2020.39 200.373 2020.38 200.354C2020.38 200.322 2020.37 200.29 2020.37 200.258C2020.36 200.225 2020.35 200.194 2020.34 200.163C2020.33 200.145 2020.33 200.128 2020.32 200.11C2020.32 200.097 2020.31 200.083 2020.3 200.07C2020.29 200.052 2020.29 200.034 2020.28 200.016C2020.27 200.003 2020.26 199.99 2020.25 199.977C2020.24 199.947 2020.22 199.917 2020.2 199.887C2020.18 199.857 2020.15 199.827 2020.13 199.798C2020.1 199.768 2020.08 199.739 2020.05 199.709C2020.02 199.68 2019.99 199.652 2019.96 199.623C2019.93 199.594 2019.9 199.566 2019.86 199.538C2019.83 199.51 2019.79 199.481 2019.76 199.453C2019.72 199.425 2019.68 199.398 2019.64 199.37L2019.62 199.359L2019.58 199.334C2019.56 199.319 2019.54 199.304 2019.51 199.289C2019.47 199.262 2019.43 199.235 2019.38 199.209L2019.33 199.184C2019.3 199.166 2019.27 199.148 2019.24 199.13C2019.19 199.103 2019.14 199.078 2019.08 199.052C2019.03 199.027 2018.98 199.002 2018.92 198.976L2018.88 198.955L2018.8 198.924L2018.75 198.901C2018.69 198.877 2018.64 198.852 2018.57 198.828C2018.51 198.804 2018.45 198.78 2018.39 198.756C2018.32 198.732 2018.26 198.708 2018.19 198.685C2018.16 198.674 2018.13 198.662 2018.1 198.651C2018.06 198.639 2018.03 198.627 2017.99 198.615C2017.96 198.604 2017.92 198.593 2017.89 198.582L2017.84 198.565L2017.78 198.547C2017.74 198.535 2017.71 198.523 2017.67 198.511L2017.57 198.48C2017.49 198.458 2017.42 198.436 2017.34 198.415C2017.26 198.393 2017.19 198.372 2017.11 198.351C2017.05 198.335 2016.99 198.319 2016.93 198.303L2016.87 198.288C2016.83 198.278 2016.79 198.267 2016.75 198.257C2016.71 198.247 2016.67 198.237 2016.62 198.227L2016.48 198.193L2016.37 198.166C2016.29 198.146 2016.2 198.127 2016.11 198.107C2016.02 198.088 2015.94 198.069 2015.85 198.05L2015.57 197.994V184.212C2015.57 184.193 2015.57 184.174 2015.57 184.155C2015.57 184.144 2015.57 184.133 2015.56 184.121C2015.56 184.105 2015.56 184.088 2015.56 184.071C2015.56 184.025 2015.55 183.979 2015.55 183.933C2015.54 183.887 2015.53 183.842 2015.52 183.796C2015.52 183.772 2015.51 183.748 2015.51 183.724C2015.5 183.703 2015.5 183.683 2015.49 183.662C2015.48 183.618 2015.46 183.574 2015.45 183.53C2015.43 183.487 2015.42 183.443 2015.4 183.4C2015.38 183.357 2015.36 183.314 2015.34 183.272C2015.31 183.23 2015.29 183.188 2015.27 183.146C2015.24 183.105 2015.22 183.063 2015.19 183.023C2015.16 182.981 2015.13 182.941 2015.1 182.901C2015.07 182.861 2015.04 182.82 2015.01 182.781C2014.97 182.741 2014.94 182.702 2014.9 182.664C2014.87 182.625 2014.83 182.586 2014.79 182.548C2014.77 182.525 2014.75 182.501 2014.72 182.478C2014.71 182.463 2014.69 182.449 2014.67 182.434C2014.65 182.415 2014.63 182.396 2014.61 182.377C2014.59 182.359 2014.57 182.341 2014.55 182.323C2014.5 182.287 2014.46 182.25 2014.41 182.214C2014.37 182.178 2014.32 182.142 2014.27 182.107C2014.22 182.071 2014.17 182.036 2014.12 182.002C2014.07 181.968 2014.02 181.933 2013.97 181.899C2013.91 181.865 2013.86 181.831 2013.8 181.798C2013.77 181.776 2013.73 181.753 2013.69 181.731C2013.67 181.721 2013.65 181.71 2013.63 181.7C2013.58 181.667 2013.52 181.635 2013.46 181.603C2013.4 181.571 2013.34 181.539 2013.27 181.508C2013.21 181.477 2013.15 181.446 2013.09 181.416L2013 181.377L2012.95 181.354C2012.93 181.344 2012.91 181.335 2012.89 181.325C2012.86 181.311 2012.83 181.298 2012.8 181.284C2012.76 181.268 2012.72 181.252 2012.69 181.236C2012.62 181.207 2012.55 181.178 2012.48 181.15C2012.44 181.134 2012.4 181.118 2012.36 181.102C2012.33 181.09 2012.3 181.078 2012.27 181.066C2012.21 181.043 2012.15 181.021 2012.09 180.999L2012.05 180.983C2012.01 180.97 2011.98 180.957 2011.94 180.944C2011.9 180.93 2011.86 180.917 2011.82 180.903C2011.75 180.877 2011.67 180.85 2011.59 180.824C2011.51 180.799 2011.43 180.773 2011.36 180.748V169.77C2011.36 169.569 2011.33 169.375 2011.29 169.186C2011.25 168.998 2011.19 168.816 2011.11 168.641C2011.03 168.465 2010.94 168.295 2010.82 168.132C2010.71 167.969 2010.57 167.812 2010.43 167.661C2010.28 167.511 2010.11 167.366 2009.93 167.228C2009.76 167.09 2009.56 166.958 2009.36 166.833C2009.15 166.708 2008.93 166.588 2008.7 166.475C2008.47 166.362 2008.23 166.255 2007.97 166.155C2007.72 166.055 2007.45 165.96 2007.18 165.872C2006.91 165.785 2006.62 165.703 2006.33 165.628C2006.04 165.552 2005.74 165.484 2005.44 165.421C2005.26 165.383 2005.07 165.348 2004.88 165.315C2004.76 165.292 2004.63 165.271 2004.5 165.251C2004.19 165.201 2003.86 165.157 2003.54 165.119C2003.21 165.082 2002.88 165.05 2002.55 165.025C2002.21 165 2001.88 164.981 2001.54 164.969C2001.2 164.956 2000.87 164.95 2000.53 164.95C2000.19 164.95 1999.85 164.956 1999.51 164.969C1999.18 164.981 1998.84 165 1998.51 165.025C1998.17 165.051 1997.84 165.082 1997.52 165.119C1997.19 165.157 1996.87 165.201 1996.55 165.251C1996.23 165.301 1995.92 165.358 1995.62 165.421C1995.31 165.483 1995.01 165.552 1994.72 165.628C1994.43 165.704 1994.15 165.785 1993.87 165.872C1993.6 165.961 1993.34 166.055 1993.08 166.155C1992.83 166.255 1992.58 166.362 1992.35 166.475C1992.12 166.588 1991.9 166.707 1991.7 166.833C1991.49 166.958 1991.3 167.09 1991.12 167.228C1990.94 167.366 1990.78 167.511 1990.63 167.661C1990.48 167.812 1990.35 167.969 1990.23 168.132C1990.12 168.295 1990.02 168.465 1989.94 168.641C1989.86 168.816 1989.8 168.999 1989.76 169.186C1989.72 169.374 1989.7 169.569 1989.7 169.77V180.748C1989.62 180.773 1989.54 180.799 1989.46 180.824C1989.38 180.85 1989.31 180.876 1989.23 180.903C1989.16 180.929 1989.08 180.956 1989.01 180.983C1988.93 181.01 1988.86 181.038 1988.79 181.066C1988.73 181.088 1988.67 181.11 1988.62 181.133L1988.61 181.134L1988.57 181.15C1988.5 181.178 1988.43 181.207 1988.37 181.236C1988.32 181.258 1988.27 181.279 1988.22 181.301L1988.16 181.325C1988.13 181.34 1988.1 181.354 1988.07 181.369C1988.03 181.384 1988 181.4 1987.97 181.416C1987.9 181.446 1987.84 181.477 1987.78 181.508C1987.72 181.54 1987.66 181.571 1987.6 181.603C1987.54 181.635 1987.48 181.667 1987.42 181.7C1987.36 181.732 1987.31 181.765 1987.25 181.798L1987.21 181.822L1987.17 181.846C1987.14 181.864 1987.11 181.881 1987.09 181.899C1987.03 181.933 1986.98 181.967 1986.93 182.002C1986.88 182.037 1986.83 182.072 1986.78 182.107C1986.73 182.142 1986.69 182.178 1986.64 182.214C1986.59 182.25 1986.55 182.286 1986.51 182.323C1986.46 182.36 1986.42 182.397 1986.38 182.434C1986.34 182.472 1986.3 182.509 1986.26 182.548C1986.22 182.586 1986.19 182.625 1986.15 182.664C1986.13 182.681 1986.12 182.698 1986.1 182.715C1986.09 182.729 1986.08 182.743 1986.07 182.757L1986.05 182.781C1986.01 182.82 1985.98 182.86 1985.95 182.901C1985.92 182.941 1985.89 182.981 1985.87 183.023C1985.84 183.063 1985.81 183.105 1985.79 183.146C1985.76 183.188 1985.74 183.23 1985.72 183.272C1985.71 183.295 1985.7 183.318 1985.68 183.341C1985.68 183.361 1985.67 183.38 1985.66 183.4L1985.65 183.42L1985.64 183.435C1985.63 183.466 1985.62 183.498 1985.61 183.53C1985.59 183.574 1985.58 183.618 1985.56 183.662C1985.55 183.706 1985.54 183.752 1985.53 183.796C1985.52 183.842 1985.51 183.887 1985.51 183.933C1985.5 183.958 1985.5 183.982 1985.5 184.007C1985.5 184.02 1985.5 184.034 1985.49 184.047C1985.49 184.055 1985.49 184.063 1985.49 184.071C1985.49 184.118 1985.49 184.165 1985.49 184.212V197.994C1985.45 198.002 1985.4 198.011 1985.36 198.019C1985.31 198.03 1985.26 198.04 1985.22 198.05C1985.13 198.069 1985.04 198.088 1984.95 198.107C1984.86 198.127 1984.78 198.146 1984.69 198.166L1984.55 198.2C1984.51 198.209 1984.47 198.217 1984.44 198.227L1984.38 198.24L1984.33 198.253C1984.28 198.264 1984.24 198.276 1984.19 198.288C1984.11 198.309 1984.03 198.33 1983.95 198.351C1983.87 198.372 1983.8 198.393 1983.72 198.415C1983.64 198.437 1983.57 198.459 1983.5 198.48C1983.42 198.502 1983.35 198.524 1983.28 198.547L1983.23 198.564C1983.17 198.581 1983.12 198.598 1983.07 198.615C1983 198.638 1982.93 198.661 1982.87 198.685C1982.82 198.7 1982.78 198.716 1982.74 198.732L1982.67 198.756C1982.61 198.78 1982.55 198.804 1982.49 198.828C1982.43 198.852 1982.37 198.877 1982.31 198.901C1982.25 198.926 1982.2 198.951 1982.14 198.976C1982.09 199.002 1982.03 199.027 1981.98 199.052C1981.93 199.078 1981.88 199.104 1981.83 199.13C1981.78 199.156 1981.73 199.182 1981.68 199.209C1981.66 199.219 1981.65 199.23 1981.63 199.24C1981.6 199.256 1981.57 199.273 1981.55 199.289C1981.51 199.316 1981.46 199.343 1981.42 199.37C1981.38 199.398 1981.34 199.425 1981.31 199.453C1981.29 199.464 1981.28 199.475 1981.26 199.486C1981.24 199.503 1981.22 199.52 1981.2 199.538C1981.16 199.566 1981.13 199.594 1981.1 199.623C1981.09 199.633 1981.08 199.643 1981.07 199.653C1981.05 199.672 1981.03 199.691 1981.01 199.709L1980.99 199.732C1980.97 199.753 1980.95 199.775 1980.93 199.798C1980.91 199.827 1980.89 199.857 1980.87 199.887C1980.85 199.917 1980.83 199.947 1980.81 199.977C1980.8 199.99 1980.79 200.003 1980.79 200.015L1980.77 200.039C1980.77 200.049 1980.76 200.06 1980.76 200.07C1980.75 200.101 1980.73 200.132 1980.72 200.163C1980.72 200.182 1980.71 200.201 1980.7 200.22C1980.7 200.233 1980.7 200.245 1980.7 200.258C1980.69 200.289 1980.68 200.321 1980.68 200.354C1980.68 200.386 1980.67 200.418 1980.67 200.451V263.616H1942.28V113.827H1936.29V93.7009L1912.96 60.99L1890.76 93.7009V113.83H1884.79V298.205L1807.43 287.606V297.472H1798.44V125.467H1791.61V115.784H1761.36V125.467H1757.61V141.058H1748.53V302.9H1727.46V254.198H1710.81V222.979H1637.96V254.198H1627.65V234.122C1627.65 234.082 1627.65 234.042 1627.65 234.003L1627.65 233.967L1627.65 233.95C1627.65 233.928 1627.65 233.906 1627.65 233.884L1627.65 233.766C1627.65 233.726 1627.65 233.687 1627.64 233.648C1627.64 233.608 1627.64 233.569 1627.64 233.53C1627.64 233.511 1627.64 233.491 1627.64 233.472V233.472C1627.64 233.452 1627.64 233.432 1627.64 233.412L1627.64 233.295C1627.64 233.256 1627.63 233.217 1627.63 233.178L1627.63 233.154L1627.63 233.12C1627.63 233.1 1627.63 233.081 1627.63 233.061C1627.63 233.044 1627.63 233.028 1627.63 233.011V233.01C1627.62 232.988 1627.62 232.966 1627.62 232.945L1627.62 232.829L1627.62 232.821L1627.62 232.804C1627.62 232.773 1627.61 232.743 1627.61 232.712C1627.61 232.674 1627.61 232.635 1627.61 232.597L1627.59 232.366C1627.59 232.328 1627.59 232.289 1627.58 232.251C1627.58 232.212 1627.58 232.174 1627.58 232.136L1627.57 232.022C1627.57 231.983 1627.56 231.946 1627.56 231.907C1627.56 231.869 1627.55 231.831 1627.55 231.793C1627.55 231.782 1627.55 231.771 1627.55 231.759L1627.55 231.739L1627.54 231.679L1627.53 231.566C1627.53 231.528 1627.52 231.49 1627.52 231.452L1627.52 231.41L1627.51 231.37L1627.51 231.357L1627.5 231.226L1627.49 231.181C1627.49 231.158 1627.49 231.136 1627.48 231.113L1627.48 231.085L1627.47 231.032C1627.47 231.021 1627.47 231.011 1627.47 231.001C1627.47 230.984 1627.47 230.967 1627.46 230.951L1627.46 230.947C1627.46 230.928 1627.46 230.908 1627.46 230.888L1627.44 230.776C1627.44 230.739 1627.43 230.702 1627.43 230.664L1627.42 230.622L1627.41 230.552L1627.4 230.44C1627.39 230.39 1627.38 230.34 1627.38 230.289L1627.36 230.138C1627.35 230.088 1627.34 230.038 1627.33 229.987L1627.31 229.837C1627.3 229.788 1627.29 229.738 1627.28 229.687L1627.26 229.538C1627.25 229.488 1627.24 229.438 1627.23 229.389L1627.2 229.24L1627.2 229.201C1627.19 229.165 1627.18 229.128 1627.18 229.092C1627.17 229.042 1627.16 228.993 1627.15 228.943L1627.14 228.898L1627.13 228.877C1627.13 228.85 1627.12 228.823 1627.12 228.796C1627.11 228.775 1627.11 228.754 1627.1 228.733L1627.1 228.699L1627.09 228.648C1627.08 228.599 1627.06 228.549 1627.05 228.501C1627.05 228.465 1627.04 228.429 1627.03 228.393L1627.02 228.353C1627.01 228.305 1627 228.255 1626.99 228.207L1626.95 228.06C1626.94 228.011 1626.93 227.963 1626.92 227.914L1626.88 227.768C1626.87 227.719 1626.86 227.671 1626.84 227.623L1626.81 227.477C1626.8 227.443 1626.79 227.408 1626.78 227.374L1626.78 227.364L1626.77 227.332L1626.75 227.251C1626.74 227.23 1626.73 227.208 1626.73 227.187C1626.71 227.139 1626.7 227.09 1626.69 227.042C1626.67 226.994 1626.66 226.946 1626.64 226.897L1626.63 226.859L1626.62 226.825C1626.62 226.801 1626.61 226.777 1626.6 226.753L1626.58 226.67C1626.57 226.65 1626.57 226.629 1626.56 226.609C1626.54 226.561 1626.53 226.514 1626.51 226.466L1626.5 226.409C1626.49 226.38 1626.48 226.351 1626.47 226.322L1626.42 226.179L1626.38 226.035L1626.37 226.004L1626.36 225.983L1626.34 225.938L1626.33 225.892C1626.31 225.845 1626.3 225.797 1626.28 225.75C1626.21 225.554 1626.14 225.359 1626.07 225.165C1626 224.97 1625.93 224.776 1625.85 224.582C1625.77 224.389 1625.7 224.195 1625.61 224.002C1625.53 223.809 1625.45 223.617 1625.36 223.424C1625.28 223.232 1625.19 223.04 1625.1 222.848C1625.01 222.656 1624.91 222.464 1624.82 222.273C1624.77 222.182 1624.73 222.092 1624.68 222.002C1624.64 221.927 1624.6 221.852 1624.56 221.777L1624.52 221.698C1624.42 221.507 1624.32 221.316 1624.21 221.124C1624.1 220.933 1624 220.742 1623.88 220.55C1623.77 220.359 1623.66 220.168 1623.54 219.976C1623.43 219.785 1623.31 219.593 1623.19 219.401C1623.07 219.209 1622.95 219.017 1622.82 218.825C1622.69 218.633 1622.57 218.441 1622.44 218.248C1622.37 218.146 1622.3 218.045 1622.23 217.944C1622.16 217.852 1622.1 217.761 1622.04 217.669L1621.96 217.558C1621.92 217.51 1621.89 217.461 1621.86 217.412L1621.83 217.373L1621.75 217.269C1621.71 217.209 1621.67 217.148 1621.62 217.088C1621.48 216.893 1621.34 216.699 1621.19 216.504C1621.05 216.309 1620.9 216.113 1620.75 215.917C1620.6 215.722 1620.45 215.525 1620.29 215.328C1620.21 215.227 1620.13 215.126 1620.05 215.025C1619.97 214.928 1619.9 214.831 1619.82 214.734C1619.66 214.536 1619.49 214.337 1619.33 214.137C1619.16 213.937 1619 213.736 1618.83 213.535C1618.66 213.333 1618.48 213.132 1618.31 212.928C1618.13 212.726 1617.95 212.522 1617.77 212.317C1617.59 212.112 1617.41 211.906 1617.22 211.7C1617.04 211.493 1616.85 211.286 1616.66 211.077C1616.47 210.868 1616.28 210.659 1616.08 210.447C1615.89 210.236 1615.69 210.025 1615.49 209.811C1615.36 209.68 1615.24 209.547 1615.11 209.414C1615.04 209.333 1614.96 209.251 1614.88 209.169C1614.67 208.953 1614.47 208.736 1614.26 208.519C1614.05 208.301 1613.83 208.082 1613.62 207.861C1613.4 207.641 1613.18 207.419 1612.96 207.195C1612.74 206.972 1612.52 206.747 1612.29 206.521L1612.29 206.511C1612.28 206.508 1612.28 206.504 1612.28 206.502C1612.27 206.498 1612.27 206.495 1612.27 206.492C1612.26 206.488 1612.26 206.485 1612.26 206.482L1612.25 206.472C1612.24 206.469 1612.24 206.466 1612.24 206.463L1612.23 206.453L1612.22 206.443C1612.21 206.44 1612.21 206.437 1612.21 206.433C1612.21 206.43 1612.2 206.427 1612.2 206.424C1612.2 206.421 1612.19 206.417 1612.19 206.414C1612.19 206.413 1612.19 206.412 1612.19 206.411L1612.19 206.409C1612.18 206.408 1612.18 206.406 1612.18 206.404C1612.18 206.401 1612.17 206.398 1612.17 206.395L1612.17 206.392C1612.17 206.389 1612.16 206.387 1612.16 206.385L1612.16 206.381L1612.16 206.379C1612.16 206.378 1612.15 206.377 1612.15 206.376L1612.15 206.373C1612.15 206.371 1612.15 206.369 1612.14 206.367L1612.14 206.361C1612.14 206.36 1612.14 206.359 1612.13 206.358L1612.13 206.355C1612.13 206.353 1612.13 206.351 1612.13 206.349C1612.12 206.346 1612.12 206.342 1612.12 206.34C1612.11 206.337 1612.11 206.334 1612.11 206.33C1612.11 206.328 1612.1 206.326 1612.1 206.324L1612.1 206.321C1612.1 206.318 1612.09 206.315 1612.09 206.312C1612.09 206.309 1612.09 206.306 1612.08 206.303C1612.08 206.3 1612.08 206.297 1612.07 206.294L1612.07 206.285L1612.06 206.277L1612.05 206.268L1612.04 206.259L1612.03 206.251L1612.02 206.242L1612.01 206.234L1612.01 206.225C1612 206.224 1612 206.223 1612 206.222C1612 206.221 1612 206.22 1612 206.219C1612 206.219 1612 206.218 1612 206.217C1612 206.217 1612 206.216 1612 206.216C1612 206.215 1612 206.215 1612 206.214C1612 206.214 1611.99 206.213 1611.99 206.213C1611.99 206.212 1611.99 206.211 1611.99 206.21C1611.99 206.209 1611.99 206.208 1611.99 206.207C1611.99 206.207 1611.99 206.205 1611.99 206.204C1611.98 206.203 1611.98 206.202 1611.98 206.201L1611.98 206.2L1611.98 206.199L1611.98 206.199L1611.98 206.197C1611.98 206.197 1611.98 206.196 1611.98 206.196L1611.98 206.194C1611.97 206.194 1611.97 206.193 1611.97 206.193C1611.97 206.192 1611.97 206.191 1611.97 206.19C1611.97 206.189 1611.97 206.188 1611.97 206.187C1611.97 206.187 1611.97 206.185 1611.97 206.184C1611.96 206.184 1611.96 206.183 1611.96 206.183L1611.96 206.182L1611.96 206.181C1611.96 206.181 1611.96 206.181 1611.96 206.18C1611.96 206.179 1611.96 206.179 1611.96 206.179C1611.96 206.177 1611.96 206.176 1611.96 206.176C1611.96 206.175 1611.95 206.173 1611.95 206.173L1611.95 206.172C1611.95 206.171 1611.95 206.17 1611.95 206.17C1611.95 206.17 1611.95 206.169 1611.95 206.169C1611.95 206.168 1611.95 206.167 1611.95 206.167L1611.94 206.161L1611.94 206.159L1611.92 206.144C1611.92 206.143 1611.92 206.142 1611.92 206.141C1611.92 206.141 1611.92 206.141 1611.92 206.14L1611.92 206.139L1611.92 206.138C1611.92 206.137 1611.92 206.135 1611.92 206.135C1611.91 206.134 1611.91 206.133 1611.91 206.132V141.49C1611.91 141.109 1611.89 140.758 1611.86 140.437C1611.83 140.116 1611.77 139.825 1611.71 139.562C1611.64 139.299 1611.56 139.065 1611.46 138.858C1611.36 138.65 1611.25 138.47 1611.12 138.316C1610.99 138.161 1610.85 138.033 1610.7 137.929C1610.54 137.825 1610.37 137.745 1610.19 137.689C1610.01 137.633 1609.82 137.6 1609.61 137.589C1609.41 137.578 1609.19 137.589 1608.96 137.621C1608.73 137.653 1608.5 137.705 1608.25 137.777C1608 137.849 1607.74 137.941 1607.47 138.05C1607.21 138.159 1606.93 138.287 1606.65 138.431C1606.36 138.576 1606.07 138.737 1605.77 138.914C1605.47 139.091 1605.16 139.283 1604.85 139.489C1604.53 139.696 1604.21 139.917 1603.89 140.151C1603.56 140.384 1603.23 140.632 1602.89 140.89C1602.55 141.148 1602.21 141.419 1601.87 141.7C1601.52 141.981 1601.17 142.272 1600.82 142.572C1600.47 142.873 1600.11 143.182 1599.75 143.5C1599.4 143.817 1599.04 144.142 1598.68 144.474C1598.31 144.805 1597.95 145.144 1597.59 145.488C1597.23 145.831 1596.86 146.18 1596.5 146.533C1596.13 146.887 1595.77 147.244 1595.41 147.603C1595.05 147.963 1594.69 148.325 1594.33 148.689C1593.97 149.053 1593.61 149.418 1593.26 149.784C1592.91 150.149 1592.56 150.515 1592.21 150.879C1591.86 151.244 1591.52 151.607 1591.18 151.968C1590.84 152.329 1590.51 152.687 1590.18 153.043C1589.85 153.398 1589.53 153.749 1589.21 154.095C1588.89 154.441 1588.58 154.782 1588.28 155.117C1587.98 155.452 1587.68 155.781 1587.39 156.102C1587.11 156.423 1586.83 156.737 1586.55 157.041C1586.28 157.346 1586.02 157.642 1585.77 157.928C1585.54 158.193 1585.31 158.457 1585.08 158.721C1584.85 158.985 1584.62 159.249 1584.39 159.513C1584.17 159.777 1583.95 160.04 1583.73 160.304C1583.51 160.568 1583.29 160.832 1583.07 161.096C1582.96 161.229 1582.85 161.362 1582.75 161.496C1582.64 161.627 1582.53 161.758 1582.43 161.889C1582.33 162.011 1582.24 162.133 1582.14 162.255C1582.03 162.398 1581.92 162.541 1581.8 162.684C1581.6 162.95 1581.39 163.216 1581.19 163.482C1581.15 163.536 1581.11 163.59 1581.07 163.644C1581.01 163.732 1580.94 163.82 1580.87 163.908C1580.78 164.033 1580.69 164.158 1580.6 164.284C1580.4 164.552 1580.21 164.82 1580.02 165.09C1579.83 165.36 1579.64 165.63 1579.46 165.902C1579.28 166.173 1579.1 166.446 1578.92 166.72C1578.74 166.993 1578.57 167.268 1578.4 167.544C1578.22 167.82 1578.06 168.098 1577.89 168.377C1577.73 168.656 1577.56 168.937 1577.41 169.218C1577.25 169.5 1577.09 169.784 1576.94 170.07C1576.88 170.192 1576.81 170.314 1576.75 170.437C1576.67 170.601 1576.58 170.766 1576.5 170.931C1576.36 171.22 1576.22 171.511 1576.08 171.804C1575.94 172.097 1575.81 172.391 1575.68 172.689C1575.64 172.787 1575.6 172.886 1575.55 172.986C1575.47 173.185 1575.39 173.385 1575.31 173.586C1575.19 173.887 1575.07 174.192 1574.96 174.497C1574.84 174.804 1574.73 175.112 1574.63 175.423C1574.52 175.734 1574.42 176.048 1574.33 176.364C1574.23 176.68 1574.14 176.999 1574.05 177.321C1574 177.526 1573.94 177.732 1573.89 177.939C1573.86 178.058 1573.83 178.176 1573.8 178.295C1573.72 178.623 1573.65 178.953 1573.58 179.287C1573.54 179.465 1573.51 179.644 1573.47 179.824C1573.44 179.981 1573.41 180.139 1573.38 180.298C1573.32 180.638 1573.27 180.981 1573.22 181.329C1573.17 181.675 1573.12 182.026 1573.08 182.379C1573.04 182.732 1573 183.09 1572.97 183.451C1572.94 183.811 1572.91 184.176 1572.89 184.544C1572.87 184.912 1572.86 185.284 1572.85 185.66C1572.83 186.036 1572.83 186.416 1572.83 186.8V315.305H1556.69V102.181L1548.65 100.008V77.0955L1543.4 75.2255L1534.64 72.1098V96.2169L1525.76 93.8158V45.3032L1515.49 40.3181V91.0381L1507.45 88.8652V231.194H1433.12V259.938H1426.21L1426.17 260.218L1426.12 260.498L1425.8 262.456L1425.75 262.736L1425.43 264.694L1425.39 264.973L1425.07 266.931L1425.02 267.212L1424.74 268.89L1424.74 268.923L1424.73 268.956L1424.73 268.99L1424.72 269.023L1424.72 269.056L1424.71 269.09L1424.71 269.123L1424.7 269.157L1424.7 269.19L1424.69 269.223L1424.69 269.256L1424.68 269.289L1424.68 269.323L1424.67 269.39L1424.66 269.423L1424.65 269.456L1424.65 269.49L1424.64 269.523L1424.64 269.556L1424.63 269.59L1424.63 269.623L1424.62 269.657L1424.62 269.69L1424.61 269.723L1424.61 269.756L1424.6 269.789L1424.6 269.823L1424.59 269.856L1424.59 269.89L1424.58 269.923L1424.58 269.956L1424.51 270.375L1424.37 271.213L1424.3 271.631L1424.23 272.051L1424.16 272.469L1424.1 272.888L1424.03 273.307L1423.89 274.145L1423.82 274.563L1423.75 274.982L1423.69 275.401L1423.55 276.239L1423.48 276.658L1423.41 277.076L1423.34 277.495L1423.27 277.914L1423.21 278.333L1423.07 279.17L1423 279.589L1422.93 280.008L1422.86 280.427L1422.79 280.846L1422.73 281.265L1422.59 282.102L1422.52 282.521L1422.45 282.94L1422.38 283.359L1422.38 283.392L1422.37 283.425L1422.37 283.459L1422.36 283.492L1422.36 283.525L1422.35 283.559L1422.35 283.592L1422.34 283.626L1422.34 283.659L1422.33 283.692L1422.32 283.726L1422.32 283.759L1422.31 283.792L1422.31 283.826L1422.3 283.859L1422.3 283.893L1422.29 283.926L1422.29 283.959L1422.28 283.992L1422.28 284.026L1422.27 284.059L1422.26 284.092L1422.26 284.126L1422.25 284.159L1422.25 284.193L1422.24 284.226L1422.24 284.259L1422.23 284.293L1422.23 284.326L1422.22 284.359L1422.22 284.393L1422.21 284.426L1421.61 288.091L1421.58 288.32L1421.02 291.756L1420.95 292.203L1420.91 292.426L1420.84 292.873L1420.8 293.095L1420.73 293.542L1420.69 293.765L1420.62 294.212L1420.58 294.435L1420.47 295.105L1420.44 295.327L1420.36 295.774L1420.33 295.997L1420.25 296.444L1420.22 296.666L1420.14 297.113L1420.11 297.337L1420 298.006L1419.96 298.229L1419.89 298.676L1419.85 298.898L1419.84 298.945L1419.84 298.992L1419.83 299.039L1419.82 299.085L1419.81 299.132L1419.81 299.178L1419.8 299.225L1419.79 299.272L1419.78 299.319L1419.78 299.365L1419.77 299.412L1419.76 299.459L1419.75 299.505L1419.75 299.552L1419.74 299.599L1419.73 299.645L1419.72 299.692L1419.72 299.739L1419.71 299.785L1419.7 299.832L1419.69 299.878L1419.68 299.925L1419.68 299.972L1419.67 300.019L1419.66 300.065L1419.65 300.112L1419.65 300.158L1419.64 300.205L1419.63 300.252L1419.62 300.299L1419.62 300.345L1419.61 300.392V309.619H1400.36V262.893H1394.03V228.578H1383.47V198.487H1350.38V340.374H1335.35C1335.43 339.412 1335.51 338.388 1335.59 337.307C1335.7 335.917 1335.81 334.432 1335.91 332.858C1336.01 331.284 1336.11 329.621 1336.21 327.877C1336.3 326.133 1336.39 324.307 1336.47 322.406C1336.55 320.505 1336.62 318.529 1336.68 316.485C1336.74 314.441 1336.79 312.329 1336.82 310.155C1336.85 307.981 1336.87 305.746 1336.87 303.457C1336.87 301.167 1336.85 298.823 1336.81 296.431C1336.78 294.039 1336.72 291.599 1336.63 289.119C1336.55 286.638 1336.44 284.117 1336.31 281.561C1336.18 279.005 1336.02 276.415 1335.83 273.798C1335.64 271.181 1335.42 268.536 1335.17 265.871C1334.91 263.206 1334.63 260.521 1334.31 257.821C1333.99 255.122 1333.63 252.409 1333.24 249.689C1332.85 246.969 1332.41 244.242 1331.94 241.516C1331.46 238.789 1330.95 236.061 1330.39 233.341C1329.83 230.621 1329.23 227.907 1328.57 225.207C1327.92 222.507 1327.22 219.821 1326.47 217.154C1325.72 214.488 1324.92 211.842 1324.07 209.223C1323.22 206.604 1322.31 204.012 1321.35 201.454C1320.39 198.896 1319.37 196.372 1318.29 193.889C1317.21 191.406 1316.07 188.964 1314.87 186.569C1313.67 184.174 1312.41 181.826 1311.08 179.533C1309.76 177.24 1308.36 175.001 1306.9 172.824C1305.44 170.646 1303.91 168.53 1302.32 166.481C1300.72 164.433 1299.04 162.453 1297.3 160.547C1295.56 158.649 1293.74 156.818 1291.85 155.068V294.629H1266.76V169.714H1254.03V135.942H1247.38V117.852H1237.15V135.942H1230.18V117.852H1204.28V135.942H1199.15V169.714H1186.41V252.696H1153.67L1141.99 58.8789H1133.25V48.0471H1118.82L1116.64 23.7206H1116.97L1116.73 21.8328C1116.73 21.8185 1116.73 21.8036 1116.73 21.7893C1116.72 21.775 1116.72 21.7607 1116.72 21.7463C1116.72 21.7397 1116.72 21.7331 1116.71 21.7266L1116.71 21.7138L1116.71 21.7045C1116.71 21.6908 1116.7 21.677 1116.7 21.6633C1116.69 21.6497 1116.69 21.6366 1116.68 21.6236C1116.68 21.6213 1116.68 21.6187 1116.68 21.6164C1116.68 21.6139 1116.68 21.6115 1116.68 21.6091L1116.68 21.6006L1116.67 21.5837C1116.66 21.5705 1116.66 21.5579 1116.65 21.5453C1116.65 21.5327 1116.64 21.5201 1116.64 21.5081L1116.63 21.4987C1116.63 21.4896 1116.62 21.4804 1116.62 21.4714C1116.61 21.4594 1116.6 21.4479 1116.59 21.4359L1116.57 21.4016L1116.57 21.3973C1116.56 21.3874 1116.56 21.3779 1116.55 21.3683L1116.54 21.3613L1116.54 21.3528L1116.52 21.3363C1116.51 21.326 1116.51 21.3156 1116.5 21.3059C1116.49 21.2956 1116.48 21.2859 1116.47 21.2767L1116.47 21.2763L1116.47 21.2758C1116.46 21.2664 1116.45 21.2575 1116.44 21.2486C1116.43 21.2405 1116.42 21.2327 1116.41 21.2247L1116.41 21.2217L1116.4 21.2161L1116.39 21.2081L1116.38 21.2L1116.38 21.1965C1116.37 21.1885 1116.36 21.1805 1116.35 21.1725L1116.33 21.1585L1116.31 21.1501C1116.3 21.1427 1116.29 21.1358 1116.28 21.1295C1116.27 21.1226 1116.26 21.1163 1116.25 21.11L1116.24 21.106L1116.23 21.0998C1116.22 21.0973 1116.21 21.0948 1116.21 21.0923L1116.2 21.0871L1116.18 21.0813L1116.17 21.0762C1116.16 21.0711 1116.15 21.0665 1116.14 21.0619C1116.12 21.0573 1116.11 21.0533 1116.1 21.0493C1116.09 21.0453 1116.07 21.0419 1116.06 21.0385C1116.05 21.0351 1116.03 21.0321 1116.02 21.0298C1116.01 21.0284 1116.01 21.0272 1116 21.026C1115.99 21.0249 1115.99 21.0239 1115.98 21.023C1115.97 21.0214 1115.96 21.0204 1115.95 21.0194L1115.94 21.0178L1115.94 21.0176L1115.92 21.0164C1115.91 21.0158 1115.91 21.0153 1115.9 21.015C1115.88 21.0144 1115.87 21.0138 1115.86 21.0138H1114.6Z" fill="url(#paint2_linear_248_3469)"/>
<defs>
<linearGradient id="paint0_linear_248_3469" x1="510.839" y1="104.326" x2="510.839" y2="366.034" gradientUnits="userSpaceOnUse">
<stop stop-opacity="0.1"/>
<stop offset="1" stop-opacity="0"/>
</linearGradient>
<linearGradient id="paint1_linear_248_3469" x1="2582.55" y1="131.563" x2="2582.55" y2="367.784" gradientUnits="userSpaceOnUse">
<stop stop-opacity="0.1"/>
<stop offset="1" stop-opacity="0"/>
</linearGradient>
<linearGradient id="paint2_linear_248_3469" x1="1546.69" y1="22.567" x2="1546.69" y2="360.416" gradientUnits="userSpaceOnUse">
<stop stop-opacity="0.1"/>
<stop offset="1" stop-opacity="0"/>
</linearGradient>
</defs>
</svg>
