<svg viewBox="0 0 128 129" fill="none" xmlns="http://www.w3.org/2000/svg">
    <symbol id="footer-logo">
        <g clip-path="url(#clip0_215_636)">
            <path fill-rule="evenodd" clip-rule="evenodd" d="M62.6231 0.45373C61.92 0.469589 61.3287 0.498493 61.3093 0.51794C61.2353 0.591893 59.9015 3.87893 59.3529 5.33929C59.1352 5.91861 59.1311 5.92563 59.1025 5.76736C59.0865 5.6789 59.007 4.4874 58.9257 3.11962C58.8445 1.75184 58.7733 0.627933 58.7675 0.622022C58.7408 0.595115 54.7456 0.919469 54.7276 0.950004C54.7177 0.966638 56.1035 14.5347 56.1165 14.5489C56.1236 14.5567 56.4564 14.5323 56.8559 14.4947C57.2555 14.4571 58.0276 14.3938 58.5718 14.3541C59.1159 14.3144 59.5726 14.2704 59.5866 14.2564C59.6006 14.2424 59.5357 12.9784 59.4423 11.4475C59.3488 9.91665 59.2736 8.61826 59.275 8.5622L59.2776 8.46028L59.3328 8.5622C59.4103 8.70518 60.7081 12.1854 61.0945 13.2864L61.4146 14.1989L61.8631 14.1739C62.1097 14.1601 62.9857 14.1365 63.8098 14.1214C64.6338 14.1063 65.308 14.0887 65.308 14.0822C65.308 14.0758 65.1695 13.6154 65.0002 13.0592C64.5022 11.4234 63.8676 9.46567 63.3014 7.81883L62.7725 6.28047L63.0058 5.71926C63.4429 4.66723 64.1749 2.99947 64.7463 1.75388C65.0599 1.06999 65.326 0.486875 65.3376 0.458092C65.3607 0.400405 65.0132 0.399875 62.6231 0.45373ZM69.7761 0.660059C69.7411 0.883307 69.6553 3.261 69.6814 3.28705C69.6946 3.3003 70.1424 3.33593 70.6765 3.36627C71.2105 3.3966 71.7897 3.43337 71.9635 3.44801L72.2794 3.47463L72.2786 3.64366C72.2782 3.73661 72.1054 6.17921 71.8946 9.07164C71.6838 11.9641 71.5144 14.3336 71.5183 14.3371C71.5221 14.3407 71.9838 14.3828 72.5444 14.4306C73.105 14.4784 73.8847 14.5515 74.2771 14.593C74.6695 14.6345 74.9971 14.6624 75.0051 14.655C75.013 14.6476 75.2936 12.215 75.6285 9.24919C75.9634 6.28341 76.2431 3.85108 76.2502 3.84403C76.2631 3.83107 78.6557 4.12835 79.081 4.19578C79.208 4.21592 79.3143 4.2297 79.3171 4.2264C79.3356 4.20496 79.7052 1.50168 79.6916 1.48802C79.6486 1.44505 77.5139 1.16811 75.9486 1.00239C74.1554 0.812614 72.4723 0.679098 70.2536 0.550677L69.7975 0.524259L69.7761 0.660059ZM51.7118 1.28965C50.8979 1.40331 48.811 1.7136 48.5627 1.75787C48.3337 1.79872 48.3101 1.81201 48.3271 1.8907C48.3374 1.93876 48.6584 3.86772 49.0404 6.17725C50.3789 14.271 50.5438 15.2558 50.5648 15.2768C50.5765 15.2884 51.0136 15.2322 51.5362 15.1519C52.2803 15.0376 53.9634 14.7998 54.0287 14.7998C54.0353 14.7998 53.6597 11.759 53.1941 8.04241C52.7284 4.32583 52.3466 1.2713 52.3456 1.25446C52.3431 1.21361 52.1991 1.2216 51.7118 1.28965ZM80.9022 2.21293C79.9609 4.84991 78.9497 7.82071 78.1679 10.2461C77.4392 12.5071 76.713 14.844 76.7331 14.8641C76.7413 14.8723 77.256 14.9535 77.8768 15.0446C78.4976 15.1357 79.3766 15.2729 79.8302 15.3496C80.295 15.4282 80.6648 15.4729 80.6776 15.4522C80.6901 15.4319 80.7983 14.9054 80.918 14.282C81.0378 13.6587 81.1495 13.1336 81.1663 13.1153C81.1979 13.0808 83.2014 13.4425 83.257 13.4927C83.2813 13.5148 82.9602 15.3828 82.8592 15.8071C82.8339 15.9134 82.723 15.8807 84.2042 16.2041C84.7871 16.3315 85.6019 16.5172 86.0146 16.6169C86.4274 16.7165 86.7685 16.7933 86.7727 16.7876C86.7849 16.7706 87.0317 13.4201 87.1189 12.0887C87.2646 9.86133 87.397 7.34567 87.4847 5.13766C87.5075 4.56588 87.5373 3.83176 87.551 3.50622L87.5759 2.91443L87.2354 2.84101C85.4402 2.45395 83.4806 2.07611 82.023 1.83598C81.6082 1.76765 81.2297 1.70304 81.1819 1.69244C81.1032 1.67503 81.0764 1.72497 80.9022 2.21293ZM45.1811 2.36809C43.8737 2.62587 42.2616 2.97868 42.2212 3.01586C42.2034 3.03225 42.4931 4.3719 42.8648 5.99294C43.2366 7.61397 43.5353 8.95668 43.5286 8.97674C43.5219 8.99679 43.3896 8.83376 43.2345 8.61447C42.4637 7.52436 39.6033 3.75324 39.4979 3.68809C39.4231 3.64182 36.444 4.47566 36.444 4.54288C36.444 4.56922 36.5801 5.05779 36.7463 5.62863C36.9126 6.19943 37.7673 9.13398 38.6458 12.1498C39.5242 15.1657 40.2459 17.6362 40.2494 17.6399C40.253 17.6437 40.6319 17.5408 41.0916 17.4112C41.5513 17.2817 42.3034 17.0791 42.7631 16.9609C43.2228 16.8427 43.6128 16.7335 43.6299 16.7182C43.647 16.7029 43.3295 15.355 42.9242 13.7227C42.519 12.0905 42.1954 10.7471 42.2051 10.7373C42.2404 10.7021 43.5267 12.7537 44.7905 14.8609C45.51 16.0606 45.6338 16.2455 45.7111 16.2356C45.7602 16.2292 46.1856 16.1433 46.6565 16.0446C47.1274 15.9459 47.774 15.8141 48.0936 15.7518C48.5496 15.6628 48.6745 15.6246 48.6745 15.5737C48.6745 15.5142 46.1982 2.25366 46.1768 2.19817C46.1715 2.18468 45.7235 2.26112 45.1811 2.36809ZM90.792 3.86328C90.3619 5.49679 90.1439 6.38435 90.1676 6.40555C90.1839 6.41998 90.3347 6.46434 90.5029 6.50413C90.671 6.54388 90.8529 6.59276 90.9069 6.61274L91.0052 6.64906L90.8692 6.78935C90.7269 6.93615 90.4719 7.04162 90.1468 7.08814L89.9548 7.11562L89.8483 7.50255C89.7898 7.7154 89.7293 7.93995 89.7139 8.00164L89.686 8.11375H90.2114C91.8017 8.11375 92.7353 7.61116 93.2782 6.46263C93.4015 6.20196 93.8867 4.68949 93.8867 4.566C93.8867 4.54929 93.8454 4.52686 93.7949 4.5161C93.7445 4.50538 93.107 4.33154 92.3782 4.12982C91.6495 3.92814 91.0036 3.75116 90.9428 3.73657C90.8418 3.71231 90.8289 3.7232 90.792 3.86328ZM94.8958 4.96439C94.8851 5.00361 93.9917 7.94053 92.9105 11.4908C91.8293 15.0411 90.9508 17.9514 90.9582 17.9581C90.9656 17.9648 91.4212 18.1121 91.9705 18.2854C93.1791 18.6666 94.7288 19.2011 95.9871 19.6706C96.4999 19.8619 96.9326 20.0047 96.9487 19.9878C96.9837 19.951 97.9227 17.5096 97.9227 17.4555C97.9227 17.422 96.9396 17.0427 95.7008 16.5984C95.4025 16.4913 95.2567 16.4193 95.2652 16.3831C95.2723 16.3531 96.0771 14.0391 97.0538 11.2408C98.0304 8.44255 98.8226 6.14651 98.8143 6.13852C98.7574 6.08369 95.0841 4.89304 94.9717 4.89304C94.9407 4.89304 94.9066 4.92517 94.8958 4.96439ZM34.6298 5.03838C34.4729 5.08853 33.6886 5.34459 32.887 5.60747L31.4295 6.08536L31.4304 6.64091C31.4308 6.94647 31.4484 7.61841 31.4694 8.13413C31.5634 10.4446 31.563 10.3878 31.4819 10.2764C31.0693 9.71004 30.7688 9.33044 30.4629 8.98909C30.229 8.72809 29.9261 8.31258 29.6168 7.82837C29.3518 7.41355 29.1113 7.04859 29.0824 7.01732C29.0379 6.96918 28.8871 7.01549 28.0995 7.31901C27.1746 7.67549 25.5137 8.34915 25.4822 8.38062C25.4732 8.38967 25.5975 8.55804 25.7585 8.75483C27.1367 10.4394 28.9577 12.7183 29.3028 13.1905C29.3828 13.3 29.4114 13.4798 29.5557 14.7805C29.8043 17.0219 30.3336 21.0965 30.3824 21.1453C30.3905 21.1535 30.5973 21.0759 30.842 20.973C31.3394 20.7637 32.8697 20.152 33.4759 19.9201C33.7171 19.8278 33.8648 19.7499 33.8546 19.7202C33.7765 19.4915 33.245 16.732 33.1639 16.1341C33.0472 15.273 32.9866 14.3894 33.0487 14.4532C33.2091 14.6184 34.9593 17.5472 35.622 18.7597L35.7921 19.0708L36.8621 18.7125C37.4506 18.5154 38.2439 18.2584 38.6251 18.1413C39.0063 18.0242 39.3237 17.9237 39.3305 17.918C39.37 17.8845 37.0859 14.2797 35.697 12.1836L35.0668 11.2325L35.018 9.23488C34.9912 8.13617 34.9571 6.722 34.9422 6.09225L34.9152 4.94723L34.6298 5.03838ZM83.6771 7.48184C83.4292 11.1542 83.4416 11.0083 83.3775 11.0083C83.3188 11.0083 81.9709 10.758 81.9513 10.7435C81.9366 10.7326 82.6964 8.32937 83.2982 6.48338C83.7547 5.08302 83.7975 4.97197 83.8084 5.1584C83.8149 5.27031 83.7559 6.31586 83.6771 7.48184ZM100.533 14.0912C99.1399 17.5806 98.0058 20.4393 98.0125 20.4439C98.0192 20.4484 98.4191 20.6145 98.9012 20.8128C99.3832 21.0112 100.12 21.3233 100.538 21.5064L101.299 21.8392L102.42 19.3285C103.037 17.9476 104.287 15.1519 105.197 13.1158C106.108 11.0797 106.857 9.39543 106.862 9.37304C106.875 9.31654 103.243 7.74683 103.099 7.74683C103.08 7.74683 101.925 10.6018 100.533 14.0912ZM23.1331 9.39262C21.5855 10.0881 21.0925 10.3227 19.2499 11.2402C18.2801 11.7231 17.4867 12.1366 17.4867 12.1591C17.4867 12.1998 23.7515 24.169 23.8035 24.2278C23.8186 24.2448 24.4261 23.9593 25.1535 23.5934C26.5941 22.8688 27.7065 22.3417 29.0649 21.7402C29.547 21.5267 29.9493 21.3452 29.9589 21.3369C29.9839 21.3153 28.8928 18.7951 28.8585 18.7951C28.8187 18.7951 27.4242 19.4153 26.6188 19.7913C26.2489 19.964 25.9261 20.114 25.9017 20.1247C25.8644 20.141 24.6619 17.6885 24.6619 17.5961C24.6619 17.5638 25.2994 17.2575 26.3169 16.8007L26.9731 16.5062L26.4836 15.3932L25.9941 14.2802L25.6236 14.4438C25.4198 14.5337 24.8862 14.7772 24.4377 14.9849C23.9893 15.1925 23.6096 15.3505 23.5939 15.3359C23.5681 15.3118 22.8494 13.8146 22.5199 13.0984L22.3842 12.8035L22.7383 12.6361C22.933 12.544 23.5602 12.258 24.132 12.0004C24.7037 11.743 25.1879 11.5164 25.2078 11.497C25.2528 11.4533 24.1792 8.9696 24.1158 8.97054C24.0911 8.97091 23.6489 9.16085 23.1331 9.39262ZM108.54 11.5531C108.23 12.2064 106.906 14.9883 105.599 17.735C104.046 20.9988 103.24 22.7349 103.273 22.746C103.301 22.7553 104.029 23.1171 104.891 23.5501C105.754 23.983 106.462 24.3332 106.464 24.3282C106.467 24.3233 106.806 23.7138 107.216 22.9738C108.982 19.79 110.939 16.306 110.953 16.3202C110.987 16.3542 109.483 20.7349 108.501 23.4631C108.194 24.3151 107.935 25.0398 107.926 25.0734C107.913 25.117 108.098 25.2403 108.566 25.5015C108.928 25.7033 109.246 25.8736 109.273 25.88C109.3 25.8864 109.486 25.6849 109.687 25.4321C111.079 23.6773 114.998 18.9522 115.195 18.7895C115.257 18.7387 115.258 18.7427 115.209 18.8358C115.136 18.9736 112.968 22.8073 111.746 24.9592C111.202 25.9166 110.756 26.7146 110.755 26.7326C110.753 26.7506 111.154 27.0132 111.645 27.3163C112.136 27.6193 112.828 28.0542 113.182 28.2829L113.825 28.6985L114.123 28.2415C114.286 27.9902 115.974 25.4215 117.872 22.5333C119.77 19.6451 121.324 17.2735 121.324 17.2629C121.324 17.203 117.355 14.7281 116.731 14.399C116.65 14.356 116.556 14.4523 115.403 15.7687C114.721 16.5475 113.772 17.6434 113.294 18.2039C112.816 18.7645 112.411 19.229 112.392 19.2361C112.374 19.2432 112.45 18.9771 112.562 18.6449C112.674 18.3127 113.096 17.0227 113.5 15.7782C113.903 14.5338 114.267 13.4137 114.308 13.2892L114.382 13.0628L113.42 12.5477C112.23 11.9114 110.586 11.0716 109.741 10.6686L109.105 10.3653L108.54 11.5531ZM15.7337 13.0733C12.8374 14.693 11.0184 15.7951 8.42386 17.5022C7.78506 17.9225 7.50111 18.1317 7.51616 18.1708C7.53328 18.2154 8.97636 20.3592 9.03058 20.4206C9.03792 20.4289 9.41625 20.1884 9.87135 19.8863C10.8333 19.2476 11.2771 18.9616 11.3278 18.9477C11.3477 18.9422 12.6789 20.9925 14.2861 23.5038C15.8933 26.0152 17.2143 28.0759 17.2216 28.0832C17.2289 28.0906 17.6447 27.8411 18.1456 27.529C18.6465 27.2168 19.3444 26.7906 19.6964 26.5818C20.2224 26.2698 20.3302 26.1903 20.3011 26.136C20.2816 26.0996 19.053 23.9891 17.5709 21.4461C16.0887 18.9031 14.8818 16.805 14.8889 16.7837C14.9018 16.7452 16.016 16.1008 17.0584 15.5292C17.3606 15.3634 17.6081 15.2129 17.6084 15.1947C17.6091 15.1556 16.409 12.9294 16.3347 12.8319C16.2894 12.7725 16.2258 12.7981 15.7337 13.0733ZM60.8643 19.9642C59.4001 19.9996 57.2382 20.1258 55.7071 20.2651C43.5754 21.3694 31.9745 25.1863 20.7991 31.7505L19.6474 32.4269L19.6478 32.7761C19.6495 34.2872 19.7871 38.0489 19.9141 40.0558C20.7965 54.0057 23.4866 66.9887 27.6307 77.2978C30.2281 83.7594 33.4604 89.291 37.1637 93.6123C38.2086 94.8316 41.1684 98.0056 43.5433 100.453C50.826 107.96 57.0599 113.343 61.2794 115.767C61.7777 116.053 62.4272 116.395 62.4737 116.395C62.4854 116.395 62.495 104.617 62.495 90.2214V64.048H44.8423H27.1896V63.1307V62.2135H63.4734H99.7573V63.1307V64.048H82.1033C68.0176 64.048 64.4454 64.0583 64.43 64.099C64.4193 64.127 64.4153 75.8681 64.4211 90.1903L64.4315 116.231L65.2876 115.693C66.4402 114.969 68.744 113.425 69.8945 112.604C76.124 108.163 81.7233 103.248 86.3926 98.124C94.4212 89.3132 99.5138 80.1648 101.536 70.9209C101.734 70.0131 102.507 66.2278 102.83 64.578C105.503 50.9369 107.038 40.2203 107.321 33.2247L107.347 32.5905L106.856 32.2771C103.718 30.2736 99.1262 27.9724 94.8243 26.2478C83.8024 21.8292 72.235 19.6888 60.8643 19.9642ZM70.443 31.7821C73.9959 36.299 76.9114 39.9947 76.9218 39.9947C76.9323 39.9947 77.4701 39.8008 78.117 39.5638C78.7639 39.3268 79.3174 39.1387 79.3468 39.1459C79.3764 39.153 81.5719 41.6172 84.2259 44.6219C86.8799 47.6265 89.805 50.9379 90.7262 51.9806C98.9773 61.3194 99.7103 62.1517 99.696 62.166C99.6834 62.1786 98.7451 61.5079 92.0928 56.7308C90.8708 55.8533 87.6878 53.5698 85.0195 51.6564C82.3512 49.743 80.146 48.1572 80.1189 48.1324C80.0808 48.0973 80.1327 47.6841 80.35 46.2934C80.5041 45.3068 80.6271 44.4969 80.6234 44.4935C80.6196 44.4902 79.7268 45.4703 78.6393 46.6716C77.5518 47.8728 75.9665 49.6237 75.1165 50.5624C74.2665 51.5012 73.5579 52.2547 73.5419 52.237C73.5259 52.2193 71.9832 49.857 70.1137 46.9875C63.4269 36.7242 62.7521 35.6936 62.7184 35.6936C62.6876 35.6936 61.7304 36.8387 58.3286 40.9452L57.1866 42.3238L55.0055 46.0413C53.8059 48.0858 52.8123 49.7718 52.7975 49.7878C52.7827 49.8039 51.0712 48.1894 48.9943 46.2002C45.0555 42.4278 44.978 42.3542 45.015 42.4204C45.0347 42.4555 45.8763 44.3376 45.9287 44.4636C45.9391 44.4887 45.5384 44.8112 45.0382 45.1803C44.1947 45.8028 41.8625 47.5199 35.6083 52.1233C34.2405 53.13 32.043 54.7481 30.725 55.719L28.3286 57.4843H28.1226C28.0093 57.4843 27.9227 57.4683 27.9302 57.4488C27.942 57.4179 30.1453 54.973 35.3025 49.268C36.0536 48.437 38.0992 46.172 39.8482 44.2346C46.1165 37.2909 46.8644 36.4682 46.9081 36.4682C46.9481 36.4682 47.4837 37.132 50.6658 41.126C51.1884 41.7819 51.622 42.3185 51.6295 42.3185C51.637 42.3185 51.3325 41.5433 50.9529 40.596C50.5732 39.6487 50.2676 38.8433 50.2737 38.8063C50.2847 38.74 51.8516 36.9892 62.1171 25.5728C63.1101 24.4685 63.9361 23.566 63.9528 23.5672C63.9694 23.5685 66.89 27.2652 70.443 31.7821ZM9.01819 59.5125C8.33258 61.0094 8.01712 62.4932 8.01488 64.2315C8.01186 66.5737 8.59868 68.8135 9.84427 71.2138L10.1884 71.877L10.2733 72.4369C10.3751 73.1089 10.5971 74.327 10.7643 75.1313C10.8313 75.4532 10.8797 75.7358 10.8719 75.7593C10.8557 75.8078 10.0402 74.7915 9.29317 73.7917C8.27889 72.4344 7.35325 71.7022 5.46004 70.7595C4.75903 70.4105 3.6176 69.9199 3.26874 69.8177C3.1466 69.782 3.14807 69.8602 3.28142 70.499C3.72951 72.6454 4.89495 74.6137 6.57331 76.0585C7.8381 77.1473 9.24209 77.9426 10.923 78.5222L11.5957 78.7542L11.6647 78.9738C11.7027 79.0946 11.8648 79.6596 12.0249 80.2294C12.3622 81.4292 12.7328 82.6101 13.219 84.0348C13.4084 84.5897 13.5509 85.0438 13.5357 85.0438C13.512 85.0438 12.3912 84.0728 11.7631 83.5082C10.8439 82.6819 9.11224 81.9548 6.87825 81.4569C6.42095 81.355 5.61696 81.2128 5.49209 81.2118C5.47607 81.2117 5.49898 81.2956 5.54305 81.3984C5.58708 81.5012 5.62312 81.6027 5.62312 81.6241C5.62312 81.7001 6.14895 82.7629 6.36111 83.1158C7.4122 84.864 8.85528 86.154 10.8211 87.1025C11.7802 87.5654 13.0021 87.956 14.1437 88.1648C14.4688 88.2243 14.7545 88.2784 14.7785 88.285C14.8025 88.2917 14.9466 88.5878 15.0987 88.9433C15.6721 90.2828 16.2611 91.5502 16.9426 92.9104C17.3297 93.683 17.6386 94.323 17.6291 94.3325C17.6082 94.3534 16.9204 93.8599 15.7206 92.9632C14.9736 92.4049 14.7385 92.2532 14.253 92.0159C13.1716 91.4874 11.9609 91.1503 10.3115 90.9185C9.62091 90.8214 8.75975 90.7403 8.73056 90.7695C8.65918 90.8408 9.42065 92.1689 9.89972 92.8085C10.2684 93.3008 11.2655 94.3117 11.7198 94.6537C13.3323 95.8678 15.1844 96.6117 17.3734 96.9247C17.799 96.9855 18.0991 97.0124 18.7871 97.0513C18.9978 97.0633 19.1832 97.0811 19.1992 97.091C19.2151 97.1008 19.3535 97.3158 19.5067 97.5687C20.5297 99.2571 21.8138 101.145 23.0189 102.732C23.2296 103.009 23.3944 103.244 23.3852 103.253C23.3647 103.273 21.7937 102.494 21.0081 102.073C19.7727 101.412 19.3793 101.25 18.5467 101.065C17.6507 100.866 17.1188 100.814 15.7541 100.793C14.5976 100.775 13.6089 100.812 13.5445 100.877C13.5157 100.906 13.8865 101.435 14.2074 101.823C15.9736 103.961 18.3304 105.186 21.3393 105.532C22.3584 105.649 24.2543 105.597 24.9875 105.433L25.1539 105.395L25.668 105.972C26.994 107.46 28.1728 108.656 29.7712 110.136C30.1279 110.467 30.2791 110.637 30.3522 110.792C30.4066 110.907 30.4511 111.02 30.4511 111.044C30.4511 111.115 29.1903 110.721 27.2915 110.056C26.4253 109.753 26.1716 109.691 25.437 109.605C24.1362 109.453 22.2554 109.618 20.4491 110.043L20.0888 110.128L20.4695 110.513C22.7117 112.781 25.6061 113.802 29.0422 113.538C30.2247 113.447 32.1632 113.026 32.2931 112.832C32.3085 112.809 32.3331 112.703 32.3479 112.595C32.3627 112.487 32.3909 112.399 32.4105 112.399C32.4301 112.399 32.6169 112.533 32.8256 112.696C33.9887 113.605 35.9891 114.985 37.3333 115.805C37.8278 116.107 38.0206 116.248 38.0847 116.354C38.1321 116.432 38.2249 116.566 38.2909 116.651C38.3568 116.736 38.3995 116.817 38.3857 116.831C38.3457 116.871 37.2714 116.735 35.6898 116.491C34.2246 116.264 34.2209 116.264 33.5087 116.285C32.7179 116.309 32.1522 116.393 31.2484 116.621C30.3173 116.856 29.0635 117.288 28.2326 117.66L28.0322 117.75L28.1307 117.827C28.3704 118.014 29.0758 118.478 29.4115 118.668C31.1333 119.644 33.1768 120.076 35.2413 119.899C36.8699 119.759 38.5085 119.295 40.0214 118.543L40.5208 118.295V117.956C40.5208 117.77 40.5302 117.618 40.5416 117.618C40.5531 117.618 40.9064 117.79 41.3269 118C42.5719 118.624 43.9681 119.238 45.4131 119.798C46.183 120.097 46.1676 120.086 46.5639 120.598C46.6923 120.764 46.8703 120.973 46.9594 121.063C47.0484 121.152 47.1222 121.247 47.1233 121.274C47.1263 121.345 46.5827 121.353 44.5977 121.312C42.6178 121.272 42.3893 121.288 41.4381 121.531C40.3467 121.811 38.9023 122.415 37.7078 123.091C36.9429 123.523 36.9725 123.496 37.1463 123.604C37.4065 123.765 38.1709 124.132 38.5843 124.295C39.7463 124.754 40.8697 124.962 42.1923 124.963C43.9433 124.964 45.6471 124.552 47.4107 123.7C47.9821 123.423 48.8129 122.938 49.1875 122.662L49.4356 122.479L49.4001 122.179C49.3806 122.013 49.3414 121.718 49.313 121.521C49.2778 121.277 49.275 121.165 49.3043 121.165C49.3279 121.165 49.7325 121.276 50.2033 121.411C51.523 121.791 53.2607 122.209 54.7652 122.511C54.9742 122.553 55.0409 122.592 55.2748 122.81C55.6097 123.122 55.9455 123.4 56.145 123.531C56.3153 123.643 56.3313 123.677 56.2269 123.707C55.9218 123.796 54.1804 124.116 53.0979 124.284C52.7167 124.343 52.2672 124.428 52.0991 124.473C50.7303 124.838 49.0996 125.792 47.3903 127.227C46.6611 127.839 46.6825 127.773 47.1646 127.928C50.1731 128.894 53.3099 128.407 56.2258 126.521L56.6223 126.264L56.6335 123.25L56.6447 120.235L56.78 120.067L56.9153 119.899L56.7286 119.637C55.9898 118.602 54.4338 117.094 52.857 115.885C52.6815 115.751 52.4437 115.566 52.3287 115.476C51.9858 115.206 51.4072 114.805 51.3618 114.805C51.2275 114.805 51.6196 116.236 52.2497 118.045C52.7602 119.511 53.3449 120.595 54.1889 121.638C54.3439 121.83 54.462 121.995 54.4514 122.006C54.4304 122.027 52.867 121.684 52.0787 121.485C51.1274 121.246 49.2151 120.705 49.1867 120.668C49.1813 120.661 49.0995 120.261 49.0049 119.778C48.6908 118.177 48.5736 117.817 48.0497 116.844C47.3238 115.496 45.7922 113.483 44.3327 111.958L44.0065 111.617L43.9772 111.774C43.9078 112.145 44.0984 114.063 44.3552 115.579C44.5678 116.834 45.0574 118.224 45.6325 119.205C45.7155 119.347 45.7764 119.469 45.7679 119.478C45.7431 119.503 44.0129 118.791 43.1157 118.387C42.2994 118.02 40.6116 117.195 40.5496 117.133C40.5318 117.115 40.4996 116.763 40.4781 116.35C40.3971 114.793 40.3225 114.096 40.176 113.526C39.8399 112.22 38.9902 110.519 37.6774 108.526C37.0852 107.628 36.5334 106.855 36.4836 106.855C36.4666 106.855 36.4299 106.97 36.4021 107.11C36.3298 107.473 36.2989 110.539 36.3605 111.235C36.4763 112.543 36.7837 113.737 37.3076 114.916C37.421 115.171 37.5057 115.387 37.4959 115.397C37.4733 115.42 35.9069 114.413 35.1802 113.909C34.6214 113.521 32.8708 112.22 32.6139 112.002L32.4735 111.882L32.5224 111.56C32.6528 110.701 32.8155 109.037 32.8149 108.569C32.8134 107.568 32.6045 106.53 32.1045 105.041C31.8761 104.36 31.5396 103.445 31.4295 103.206C31.4089 103.161 31.2934 102.895 31.1729 102.615C30.7921 101.73 30.3914 100.904 30.3491 100.917C30.1554 100.977 29.5217 104.186 29.4259 105.593C29.3483 106.73 29.4672 107.971 29.7625 109.107C29.831 109.371 29.8803 109.607 29.872 109.632C29.8518 109.692 27.6759 107.55 26.8709 106.677C25.729 105.439 25.3053 104.939 25.3341 104.864C25.3929 104.711 25.7663 103.456 25.9002 102.961C26.1632 101.991 26.2873 101.457 26.3363 101.086C26.3926 100.66 26.3652 99.09 26.2936 98.64C26.2687 98.4831 26.212 98.1218 26.1677 97.8372C26.0384 97.0073 25.8019 95.9294 25.5253 94.9097C25.2502 93.8959 25.0533 93.2777 25.0097 93.2911C24.8047 93.3541 23.6731 96.4947 23.4055 97.7431C23.1963 98.7188 23.1737 98.9602 23.1763 100.189C23.1784 101.182 23.1908 101.401 23.2714 101.874C23.3223 102.173 23.3555 102.427 23.345 102.437C23.321 102.461 22.5507 101.422 21.9095 100.502C21.3349 99.6767 20.4434 98.3081 19.9459 97.4873L19.5932 96.9053L20.005 96.0604C20.7296 94.5741 21.2294 93.4016 21.3733 92.8509C21.7655 91.3497 21.7873 89.1252 21.4382 86.2464C21.3947 85.8877 21.341 85.4841 21.3189 85.3495C21.2968 85.215 21.2785 85.0911 21.2784 85.0743C21.2774 84.9384 20.9628 85.3427 20.6362 85.8999C20.1081 86.8006 19.274 88.4256 19.0248 89.0391C18.6117 90.0561 18.3201 91.2733 18.2239 92.3821C18.1846 92.8352 18.1963 93.9761 18.2437 94.3186C18.2637 94.4633 18.2592 94.5106 18.228 94.4817C18.1563 94.415 16.8718 91.8607 16.4341 90.9144C15.9583 89.8856 15.326 88.4446 15.326 88.3891C15.326 88.3677 15.4223 88.3447 15.54 88.3379L15.7541 88.3256L16.0984 87.7753C16.9705 86.3813 17.869 84.6396 18.0541 83.9838C18.2662 83.2325 18.4233 82.2638 18.505 81.2036C18.5944 80.0432 18.5831 77.7351 18.4833 76.7678L18.4559 76.5028L18.2121 76.7673C17.7839 77.2319 16.4883 79.227 15.9747 80.2127C15.1277 81.8382 14.7123 83.5077 14.7096 85.2986C14.709 85.6742 14.6999 85.9814 14.6894 85.9814C14.6788 85.9814 14.5718 85.9072 14.4516 85.8164L14.233 85.6513L13.9805 84.95C13.5789 83.835 13.2265 82.7796 12.8816 81.66C12.5567 80.6049 12.0238 78.7296 12.0238 78.6413C12.0238 78.6148 12.1723 78.4361 12.3539 78.2443C13.168 77.3842 14.492 75.7685 14.7814 75.2819C15.4547 74.1502 16.0607 72.2443 16.4887 69.9128C16.6521 69.0228 16.8412 67.7511 16.8142 67.7241C16.7065 67.6164 14.8306 69.4474 13.8027 70.6633C12.6509 72.0257 11.7889 73.7801 11.4275 75.4978C11.3797 75.7249 11.3466 75.8131 11.328 75.7628C11.2407 75.5264 10.6957 72.5719 10.6185 71.9163C10.5969 71.7329 10.6522 71.3729 10.9221 69.9391C11.142 68.7704 11.2668 67.996 11.2965 67.6162C11.452 65.6261 10.7289 62.5006 9.44524 59.6145C9.33304 59.3622 9.22782 59.1558 9.21143 59.1558C9.195 59.1558 9.10804 59.3164 9.01819 59.5125ZM118.498 59.6756C117.207 62.6307 116.531 65.5677 116.676 67.5926C116.712 68.0919 116.836 68.8215 117.335 71.4679C117.385 71.7356 117.367 71.9226 117.183 73.0171C117.051 73.7995 116.703 75.5874 116.648 75.769C116.632 75.8209 116.582 75.6686 116.509 75.3503C116.127 73.6808 115.327 72.0669 114.212 70.717C113.772 70.1847 112.391 68.7284 111.924 68.3045C111.57 67.9838 111.229 67.7172 111.173 67.7172C111.141 67.7172 111.146 67.7699 111.28 68.6956C111.701 71.6107 112.467 74.1743 113.294 75.4428C113.611 75.9277 114.685 77.2283 115.524 78.1409C115.754 78.3916 115.942 78.6229 115.942 78.6549C115.942 78.7274 115.513 80.2713 115.244 81.1708C114.898 82.3231 114.191 84.4371 113.82 85.4276C113.756 85.6 113.691 85.6839 113.522 85.8146C113.403 85.9063 113.294 85.9814 113.28 85.9814C113.266 85.9814 113.261 85.7659 113.269 85.5024C113.319 83.8438 112.894 82.0057 112.088 80.387C111.492 79.1922 109.933 76.8214 109.58 76.5741C109.537 76.5436 109.501 76.5334 109.501 76.5514C109.5 76.5695 109.481 76.8412 109.458 77.1551C109.411 77.7978 109.397 80.2228 109.437 80.7835C109.557 82.4493 109.748 83.5527 110.068 84.4286C110.255 84.9397 111.354 86.9629 111.98 87.9469L112.221 88.3256L112.431 88.3379C112.546 88.3447 112.64 88.3677 112.64 88.3892C112.64 88.4471 112.089 89.7218 111.663 90.6494C111.079 91.9209 109.762 94.5331 109.725 94.4941C109.718 94.4872 109.728 94.3532 109.746 94.1963C109.797 93.7656 109.762 92.3846 109.687 91.8333C109.56 90.9052 109.341 90.0579 109.001 89.1818C108.553 88.027 106.966 85.1246 106.744 85.0549C106.69 85.0379 106.684 85.0755 106.527 86.3293C106.363 87.6438 106.317 88.2966 106.302 89.5283C106.284 91.0229 106.381 92.0773 106.612 92.9121C106.757 93.4368 107.67 95.5268 108.138 96.4065C108.26 96.6356 108.359 96.8512 108.359 96.8856C108.359 97.0286 106.682 99.6363 105.71 101.005C105.094 101.871 104.646 102.462 104.623 102.439C104.613 102.429 104.632 102.258 104.666 102.059C104.786 101.357 104.819 100.955 104.819 100.169C104.819 98.7109 104.656 97.7901 104.101 96.1124C103.555 94.4636 103.087 93.3135 102.958 93.3027C102.836 93.2925 102.058 96.2989 101.83 97.6616C101.614 98.9495 101.534 100.352 101.634 101.086C101.715 101.682 102.237 103.645 102.637 104.863C102.66 104.932 102.31 105.357 101.471 106.282C100.45 107.407 98.0858 109.751 98.0858 109.638C98.0858 109.614 98.1493 109.348 98.2269 109.045C98.478 108.065 98.5491 107.463 98.5506 106.305C98.5521 105.199 98.5307 104.991 98.2655 103.512C98.0124 102.101 97.7423 100.988 97.6373 100.923C97.5911 100.894 97.3458 101.377 96.9321 102.309C95.7715 104.925 95.1503 107.102 95.1506 108.552C95.1506 109.043 95.2139 109.714 95.3792 110.978C95.4397 111.44 95.4792 111.845 95.467 111.876C95.4421 111.941 94.51 112.673 93.7032 113.261C92.672 114.012 90.5155 115.442 90.4751 115.402C90.4669 115.394 90.5176 115.261 90.5876 115.106C90.964 114.276 91.2708 113.335 91.4377 112.501C91.6112 111.633 91.6498 111.075 91.65 109.423C91.6503 107.713 91.5905 106.824 91.4778 106.863C91.4297 106.88 90.7321 107.859 90.2787 108.547C88.9364 110.582 88.0124 112.472 87.7365 113.748C87.6528 114.136 87.5557 115.201 87.4919 116.432C87.4616 117.016 87.4475 117.108 87.3799 117.159C87.2748 117.24 85.6178 118.049 84.9042 118.368C83.9002 118.817 82.2773 119.493 82.202 119.493C82.189 119.493 82.2293 119.406 82.2915 119.3C82.9036 118.256 83.3973 116.874 83.6288 115.559C83.8342 114.391 84.0625 112.079 84.0031 111.767L83.972 111.604L83.6462 111.951C81.493 114.242 79.8663 116.577 79.3567 118.11C79.2789 118.344 79.1204 119.012 79.0043 119.595C78.8883 120.178 78.788 120.661 78.7814 120.668C78.7428 120.71 76.8734 121.238 75.8566 121.493C75.027 121.702 73.5385 122.03 73.5173 122.008C73.5083 121.999 73.6329 121.829 73.7941 121.629C74.3705 120.916 74.9088 120.021 75.3288 119.076C75.6681 118.313 76.4236 116.008 76.5794 115.261C76.6525 114.91 76.6571 114.805 76.5994 114.805C76.5281 114.805 74.9 116.027 74.3382 116.502C73.6348 117.096 73.3695 117.338 72.7544 117.942C71.8591 118.821 71.2348 119.574 70.8718 120.211L70.6894 120.531V123.123C70.6894 125.136 70.7008 125.729 70.7404 125.778C70.8762 125.945 71.7339 126.53 72.4008 126.911C73.8669 127.748 75.4481 128.256 76.9882 128.385C78.1954 128.485 79.5228 128.327 80.7934 127.932L81.2148 127.801L81.0991 127.68C80.9 127.472 79.9589 126.705 79.4327 126.322C78.7781 125.845 78.0476 125.393 77.4366 125.085C76.4548 124.591 76.0223 124.464 74.5217 124.224C73.4328 124.05 71.8072 123.744 71.7174 123.695C71.6826 123.676 71.7718 123.584 71.9824 123.42C72.1569 123.284 72.4556 123.033 72.6461 122.863C72.9468 122.593 73.022 122.546 73.2168 122.508C74.732 122.205 76.4164 121.798 77.8546 121.387C78.3087 121.257 78.6867 121.159 78.6946 121.168C78.7025 121.177 78.6761 121.405 78.6361 121.674C78.5273 122.405 78.5314 122.475 78.6893 122.592C79.124 122.913 79.7538 123.29 80.3923 123.61C83.8802 125.36 87.3987 125.428 90.4527 123.805C90.9257 123.554 90.9846 123.511 90.9215 123.468C90.8819 123.44 90.6384 123.298 90.3806 123.152C88.7457 122.227 87.1401 121.602 85.7941 121.366C85.3379 121.286 85.2129 121.282 83.9392 121.306C82.2647 121.338 80.8801 121.34 80.8509 121.311C80.8389 121.299 80.9473 121.155 81.0918 120.992C81.2363 120.829 81.4516 120.564 81.57 120.403L81.7855 120.11L82.4852 119.836C83.9378 119.268 85.2506 118.69 86.5757 118.037C87.0204 117.818 87.3971 117.632 87.413 117.625C87.4289 117.618 87.4472 117.765 87.4537 117.951L87.4656 118.29L87.9141 118.523C88.6927 118.927 89.8222 119.343 90.7607 119.571C93.444 120.223 95.88 120.002 98.1062 118.904C98.8692 118.528 99.966 117.809 99.8902 117.735C99.8732 117.718 99.6054 117.601 99.2953 117.475C97.3458 116.683 95.6157 116.272 94.2287 116.272C93.7831 116.272 93.4861 116.303 92.6715 116.434C90.8835 116.722 89.5633 116.885 89.5675 116.818C89.5688 116.798 89.6743 116.646 89.8019 116.48C90.0171 116.2 90.0846 116.147 90.7271 115.753C92.0791 114.924 93.7695 113.761 94.9611 112.84C95.2493 112.617 95.5082 112.425 95.5363 112.415C95.5709 112.401 95.6026 112.472 95.6342 112.633L95.6809 112.87L95.9559 112.961C97.2038 113.373 98.47 113.56 100.002 113.559C101.429 113.558 102.316 113.421 103.554 113.01C104.981 112.535 106.178 111.797 107.312 110.69C107.837 110.178 107.868 110.138 107.781 110.105C107.563 110.025 106.044 109.745 105.404 109.667C104.485 109.556 103.339 109.52 102.713 109.583C101.922 109.663 101.499 109.768 100.341 110.173C98.7058 110.746 97.515 111.115 97.515 111.048C97.515 111.028 97.5683 110.905 97.6334 110.776C97.7221 110.601 97.8577 110.446 98.1736 110.161C99.4824 108.977 100.921 107.522 102.203 106.084L102.816 105.397L103.091 105.449C103.933 105.608 105.63 105.647 106.647 105.531C109.953 105.154 112.486 103.698 114.285 101.142L114.475 100.871L114.342 100.845C114.056 100.788 111.702 100.77 111.12 100.819C110.034 100.912 109.007 101.123 108.33 101.392C108.156 101.462 107.637 101.718 107.177 101.961C106.286 102.433 104.847 103.159 104.671 103.226C104.536 103.277 104.5 103.334 105.225 102.368C106.26 100.99 107.339 99.4029 108.229 97.947C108.476 97.5434 108.703 97.1814 108.733 97.1426C108.775 97.0876 108.873 97.0672 109.175 97.0506C110.501 96.9774 111.32 96.8484 112.416 96.5401C115.544 95.6599 117.855 93.7592 119.171 90.9858C119.241 90.837 119.264 90.7514 119.233 90.7515C119.206 90.7515 118.908 90.7782 118.572 90.8108C116.639 90.9977 114.86 91.4342 113.729 91.9994C113.232 92.2478 112.976 92.4166 112.132 93.0529C111.184 93.7672 110.392 94.3362 110.343 94.3378C110.325 94.3384 110.316 94.3252 110.324 94.3084C110.331 94.2916 110.633 93.6908 110.994 92.9732C111.752 91.468 112.165 90.5856 112.742 89.245L113.154 88.289L113.669 88.1983C117.937 87.4463 121.064 85.0413 122.405 81.4789L122.508 81.204L122.334 81.2314C122.238 81.2465 122.104 81.2671 122.037 81.2772C120.499 81.5079 118.644 82.0788 117.465 82.6847C116.75 83.0517 116.532 83.2148 115.372 84.2485C114.741 84.8099 114.438 85.0623 114.419 85.0393C114.412 85.0306 114.524 84.6932 114.667 84.2896C115.049 83.2176 115.572 81.5595 115.947 80.2331C116.127 79.5941 116.297 79.0003 116.323 78.9137L116.37 78.7562L116.941 78.5648C120.863 77.25 123.626 74.5281 124.548 71.0721C124.619 70.8077 124.709 70.411 124.749 70.1906L124.821 69.7898L124.713 69.8167C124.143 69.959 122.008 70.9652 121.222 71.4616C120.025 72.2173 119.489 72.7176 118.571 73.9344C117.804 74.9515 117.124 75.8023 117.098 75.7766C117.088 75.7665 117.135 75.4946 117.202 75.1724C117.374 74.3452 117.593 73.1399 117.697 72.4463C117.785 71.8623 117.789 71.8494 118.047 71.3763C118.387 70.7532 118.741 69.9788 118.995 69.3004C120.169 66.1646 120.281 63.2002 119.328 60.4498C119.152 59.9405 118.804 59.1558 118.755 59.1558C118.739 59.1558 118.623 59.3897 118.498 59.6756ZM82.6205 71.5145C82.7861 71.5562 82.814 71.5809 82.8863 71.7489C82.9308 71.8522 83.0131 72.1018 83.0693 72.3036C83.2364 72.9037 83.2474 72.9125 83.223 72.4259C83.2107 72.1793 83.1905 71.9178 83.178 71.845C83.1584 71.7296 83.1668 71.7125 83.2432 71.7125C83.4991 71.7125 83.9118 72.0849 84.0938 72.48C84.2248 72.7643 84.2611 73.1537 84.1727 73.3267C84.1206 73.4286 84.1197 73.4765 84.1667 73.6694C84.2582 74.0457 84.9063 76.9181 85.0358 77.522C85.0551 77.6117 85.1484 78.0245 85.2432 78.4393C85.338 78.8541 85.4308 79.2669 85.4494 79.3566C85.4681 79.4463 85.5104 79.6345 85.5434 79.7747C85.6009 80.0187 85.5997 80.0368 85.5164 80.189L85.4292 80.3481L85.5224 80.79C85.5737 81.0331 85.7325 81.8006 85.8753 82.4957C86.0182 83.1908 86.1638 83.8972 86.199 84.0653C86.2341 84.2335 86.2629 84.3833 86.2629 84.3982C86.263 84.4131 86.4052 84.4369 86.5789 84.4512C87.0101 84.4865 87.0538 84.4984 87.1967 84.6187C87.3495 84.7472 87.4188 84.9739 87.364 85.1653C87.3198 85.319 87.144 85.5236 87.0117 85.5751C86.9426 85.602 86.9145 85.6664 86.8757 85.8869C86.6417 87.2166 86.5492 87.7654 86.5488 87.8262C86.5484 87.888 86.5902 87.8976 86.8604 87.8976C87.169 87.8976 87.1741 87.8993 87.3206 88.0533C87.402 88.1389 87.4927 88.2892 87.5221 88.3874C87.6598 88.8468 87.8787 89.224 88.2355 89.6169C88.674 90.0997 88.8863 90.3797 89.0338 90.6698C89.3065 91.206 89.4193 91.751 89.4179 92.5248C89.4168 93.1807 89.3528 93.4131 89.0777 93.7612C88.9146 93.9675 88.5976 94.2411 88.5624 94.2059C88.5511 94.1946 88.5985 94.096 88.6679 93.9869C88.8158 93.754 88.8923 93.5104 88.9741 93.011C89.0805 92.3624 89.0407 92.0243 88.7886 91.4335C88.621 91.0406 88.0538 90.1665 87.902 90.067C87.8491 90.0324 87.6756 89.8466 87.5162 89.6541C87.3569 89.4616 87.2381 89.3351 87.2522 89.3731C87.3357 89.598 87.5728 90.6624 87.6046 90.9552C87.6413 91.2932 87.6236 91.689 87.5719 91.689C87.5577 91.689 87.5065 91.5233 87.4581 91.3208C87.3223 90.7521 87.175 90.4785 86.8061 90.1097C86.6307 89.9343 86.3863 89.7376 86.263 89.6726C86.0215 89.5453 85.7737 89.3638 85.7737 89.3143C85.7737 89.2975 85.8572 89.2837 85.9592 89.2837C86.0612 89.2837 86.1987 89.2558 86.2648 89.2216C86.3991 89.1521 86.5891 88.818 86.5891 88.6512V88.546L86.246 88.5581C86.0574 88.5648 85.8914 88.5587 85.8772 88.5445C85.863 88.5304 85.9532 87.9043 86.0776 87.1532C86.202 86.4021 86.3037 85.7685 86.3037 85.7452C86.3037 85.711 85.9364 85.6012 85.9102 85.6276C85.9062 85.6316 85.7989 86.2587 85.6716 87.021C85.5444 87.7834 85.4352 88.4123 85.4291 88.4186C85.423 88.4249 85.2665 88.2642 85.0815 88.0615L84.7449 87.6929L84.7123 87.357C84.6944 87.1722 84.6592 86.7734 84.6341 86.4707C84.6089 86.168 84.5788 85.8423 84.567 85.747C84.5472 85.5859 84.5525 85.5738 84.6423 85.5738C84.8446 85.5738 84.8724 85.6379 84.9739 86.3396C85.0267 86.7047 85.0803 87.0139 85.093 87.0266C85.1058 87.0393 85.1289 86.9791 85.1443 86.8927C85.1598 86.8063 85.2335 86.4605 85.3082 86.1243C85.3828 85.788 85.4309 85.502 85.4151 85.4887C85.3994 85.4753 85.1755 85.4246 84.9176 85.3757C84.3483 85.268 83.9213 85.2641 83.5926 85.3634L83.348 85.4374L83.3613 85.8597C83.3782 86.3984 83.5149 86.8682 83.7026 87.033C83.8577 87.1691 84.143 87.5231 84.143 87.5794C84.143 87.6022 84.1201 87.6117 84.092 87.6005C84.064 87.5892 83.9402 87.5412 83.8169 87.4939L83.5926 87.4077L83.9052 87.7077C84.0772 87.8727 84.3065 88.0489 84.4148 88.0992C84.8286 88.2914 84.9785 88.5054 85.078 89.0464C85.1638 89.5128 85.244 89.764 85.3599 89.9285C85.5863 90.2499 85.6235 90.3834 85.6432 90.945C85.6536 91.2437 85.646 91.4847 85.6262 91.4842C85.6064 91.4837 85.5381 91.3198 85.4743 91.1201C85.3501 90.731 85.1477 90.3552 84.9179 90.0867C84.8396 89.9951 84.5444 89.769 84.2618 89.5841C83.9793 89.3992 83.6902 89.1819 83.6194 89.1012C83.456 88.9151 83.3003 88.6089 83.2306 88.3364C83.1598 88.0601 83.0408 87.9697 82.7166 87.9463L82.4715 87.9285V87.755C82.4715 87.6504 82.4472 87.5612 82.4103 87.5306C82.3309 87.4647 82.3288 87.0875 82.4069 86.9006C82.4387 86.8246 82.5094 86.7331 82.5641 86.6973L82.6635 86.6321L82.5451 86.1131C82.2533 84.8345 81.2078 80.1831 80.9575 79.0508C80.8659 78.636 80.7503 78.0724 80.7006 77.7984L80.6103 77.3003L80.7448 77.1054C80.8887 76.8967 81.0065 76.5155 80.9996 76.2802C80.9961 76.1551 80.9842 76.1739 80.911 76.4212C80.8294 76.6969 80.8105 76.7221 80.3572 77.1602C79.9706 77.5338 79.851 77.6254 79.6789 77.6797C79.564 77.7159 79.3175 77.8572 79.1311 77.9938C78.9447 78.1303 78.6707 78.3075 78.5221 78.3876C78.3735 78.4677 78.1835 78.5763 78.0999 78.6289C78.0163 78.6816 77.9373 78.7247 77.9245 78.7247C77.9116 78.7247 77.7263 78.8256 77.5128 78.9489C77.2991 79.0722 77.1181 79.1731 77.1105 79.1731C77.1028 79.1731 76.9377 79.2648 76.7435 79.377C76.5494 79.4891 76.3846 79.5808 76.3772 79.5808C76.3545 79.5808 75.0868 80.3174 74.8209 80.4851C74.2974 80.8152 73.8162 81.439 73.3213 82.4287C73.1716 82.7282 73.0429 82.9667 73.0354 82.9587C73.0278 82.9507 73.0558 82.7699 73.0976 82.5569C73.4617 80.7009 73.5283 80.2753 73.4409 80.3626C73.4295 80.374 73.3487 80.7486 73.2614 81.1949C73.1741 81.6413 73.0607 82.2175 73.0093 82.4754C72.958 82.7332 72.914 83.091 72.9116 83.2703C72.9091 83.4497 72.8576 83.969 72.7971 84.4243C72.7366 84.8795 72.6875 85.2831 72.688 85.3212C72.6885 85.3592 72.7489 85.2802 72.8222 85.1457C72.8955 85.0112 73.1639 84.5158 73.4187 84.0449C73.9069 83.1426 74.2146 82.6149 74.6103 82.0008C74.9833 81.4219 75.8366 80.7111 76.7989 80.1774C76.9863 80.0735 77.1461 79.9885 77.154 79.9885C77.1804 79.9885 78.0834 79.4765 78.4966 79.2273C79.6612 78.5249 80.0988 78.2546 80.2177 78.1643L80.3489 78.0647L80.4387 78.2496C80.5134 78.4033 80.5197 78.4452 80.4758 78.4981C80.4468 78.533 80.3775 78.5616 80.3218 78.5616C80.2661 78.5616 79.7868 78.802 79.2566 79.0959C78.7265 79.3897 78.1735 79.6956 78.0277 79.7756C77.882 79.8556 77.7077 79.9514 77.6404 79.9884C77.5732 80.0255 77.2175 80.219 76.85 80.4186C76.131 80.809 76.2014 80.7489 75.4202 81.6396C74.9405 82.1866 74.6791 82.6306 73.7779 84.4291C73.2901 85.4027 72.8909 86.2156 72.8909 86.2355C72.8909 86.2554 72.9067 86.2619 72.9259 86.25C72.9452 86.2381 73.1562 86.2252 73.3948 86.2214L73.8286 86.2144L73.9077 85.945C73.9513 85.7969 74.1272 85.1987 74.2985 84.6157C74.47 84.0327 74.6394 83.5232 74.6751 83.4834C74.7108 83.4436 74.8147 83.1394 74.906 82.8073L75.072 82.2036L75.3567 81.8888C75.5132 81.7156 75.6472 81.5917 75.6545 81.6134C75.6617 81.6351 75.5637 82.026 75.4368 82.482C75.2957 82.9885 75.2008 83.4142 75.1928 83.5761C75.1835 83.7638 75.0742 84.1921 74.8181 85.0438L74.4566 86.2464L74.7477 86.2872C74.9406 86.3142 75.0891 86.3624 75.1877 86.4299C75.3341 86.5302 75.3365 86.5363 75.3367 86.807C75.3371 87.1243 75.2764 87.173 75.235 86.8885C75.1939 86.6069 75.0695 86.52 74.684 86.5037L74.3846 86.4911L74.2674 86.8931C74.203 87.1142 74.1586 87.3035 74.1688 87.3137C74.179 87.3239 74.5759 87.3569 75.0506 87.3869C75.5254 87.417 75.9178 87.4479 75.9226 87.4556C75.9273 87.4632 75.981 87.5439 76.0418 87.6348C76.137 87.777 76.1519 87.8394 76.1486 88.0832L76.1448 88.3664L76.0683 88.1208C76.0191 87.9628 75.9437 87.8285 75.8568 87.7443L75.7217 87.6134L75.1727 87.591C74.8707 87.5788 74.5479 87.5608 74.4555 87.5511L74.2874 87.5336L74.258 88.1029L74.2287 88.6722L73.8554 88.6772L73.4821 88.6822L73.9101 88.7558C74.2749 88.8186 74.4571 88.825 75.1416 88.7995C75.8111 88.7745 75.9578 88.758 76.0214 88.7005C76.1233 88.6082 76.1524 88.6134 76.1524 88.7239C76.1524 88.9048 75.9744 89.094 75.7088 89.1952C75.4899 89.2787 75.3599 89.2935 74.634 89.3175L73.8082 89.3448L73.7267 89.4987C73.6225 89.6954 73.6525 89.7162 74.0901 89.7511C74.792 89.807 75.3712 89.8979 75.6638 89.998C75.8316 90.0554 76.1483 90.1374 76.3675 90.1802C76.5986 90.2254 76.8161 90.2937 76.8853 90.343C77.0904 90.4891 77.2834 90.7485 77.335 90.9474C77.3832 91.1333 77.3965 91.9505 77.355 92.1708C77.341 92.2453 77.3627 92.2217 77.4231 92.0967C77.497 91.9441 77.5124 91.8378 77.515 91.4648C77.5179 91.0546 77.5086 90.9969 77.406 90.7879C77.3251 90.6232 77.2247 90.5051 77.0463 90.365C76.8227 90.1893 76.7572 90.1617 76.3636 90.0771C76.1241 90.0256 75.7906 89.9372 75.6224 89.8806C75.4394 89.819 75.0875 89.7513 74.7459 89.7121C74.432 89.676 74.1482 89.6372 74.1151 89.6259C73.911 89.5562 74.3195 89.5295 75.5976 89.5289C77.1635 89.5282 77.0275 89.5116 77.987 89.8212C78.3802 89.948 78.8289 90.1614 78.9966 90.3011C79.0958 90.3839 79.2484 90.6858 79.2499 90.8023C79.2505 90.8518 79.2166 90.8754 79.1387 90.8792C79.0286 90.8847 79.0284 90.8851 79.1285 90.9035C79.1846 90.9138 79.2512 90.9393 79.2765 90.9601C79.3316 91.0053 79.4335 91.6199 79.4003 91.7065C79.383 91.7514 79.2946 91.7702 79.0591 91.779L78.7412 91.7909L79.047 91.8318L79.3527 91.8727L79.3413 92.0968C79.3036 92.8405 79.0931 93.0029 77.9666 93.1577C77.203 93.2626 76.999 93.2629 76.1116 93.1608C74.9975 93.0326 73.9017 92.9118 73.2784 92.8483C72.3093 92.7497 72.0756 92.5588 72.0756 91.8661V91.5259H71.3621H70.6487V91.9336V92.3413L70.2104 92.3461C69.753 92.3511 69.7936 92.3703 70.4143 92.4423L70.6487 92.4695V92.6847C70.6487 93.0924 70.4924 93.3664 70.1467 93.5646L69.9352 93.6859L68.9568 93.6822C68.4186 93.6802 67.9325 93.6653 67.8764 93.6491C67.7767 93.6204 67.778 93.6179 67.9376 93.5349C68.0273 93.4882 68.1451 93.4024 68.1995 93.3441C68.2841 93.2535 68.334 93.2378 68.546 93.2352C68.6823 93.2335 68.8763 93.219 68.9772 93.2029C69.1428 93.1765 69.1236 93.1711 68.7791 93.1472C68.5692 93.1326 68.3896 93.1127 68.3799 93.103C68.3702 93.0933 68.3812 92.9684 68.4044 92.8254C68.4276 92.6825 68.4467 92.3418 68.4469 92.0685L68.4472 91.5714L68.6204 91.5576C68.7891 91.5443 68.7905 91.543 68.6714 91.5111C68.6041 91.4931 68.5262 91.4713 68.4981 91.4627C68.4674 91.4532 68.4472 91.3755 68.4472 91.2672C68.4472 91.0197 68.3528 90.8162 68.1439 90.6132C67.891 90.3674 67.2502 89.9446 67.0832 89.9132C67.0052 89.8986 66.7711 89.9041 66.563 89.9255C66.3548 89.9468 66.1754 89.9564 66.1642 89.9467C66.1529 89.9369 66.1855 89.8951 66.2366 89.8537C66.3801 89.7373 66.7017 89.7115 67.958 89.7153C69.0618 89.7187 69.1311 89.7234 69.3441 89.8099C69.7872 89.9898 70.0371 90.1108 70.0371 90.1454C70.0371 90.1647 69.9225 90.1826 69.7823 90.1851L69.5275 90.1895L69.8945 90.2427C70.0963 90.272 70.2676 90.2898 70.2751 90.2822C70.2827 90.2747 70.2474 90.2123 70.1966 90.1437C70.0745 89.9784 69.8388 89.826 69.6507 89.7908C69.5319 89.7685 69.4871 89.7345 69.4452 89.6351L69.3917 89.5079L67.7576 89.5231C66.8588 89.5314 66.1234 89.5296 66.1234 89.5192C66.1234 89.5087 66.419 89.4292 66.7802 89.3425C67.1415 89.2558 67.4189 89.1787 67.3967 89.1713C67.3744 89.1639 66.974 89.2229 66.5067 89.3023C66.0395 89.3818 65.597 89.4468 65.5234 89.4468C65.2937 89.4468 65.1171 89.186 65.3182 89.1436C65.3687 89.133 65.7769 89.0384 66.2253 88.9334C66.6738 88.8285 67.1599 88.7172 67.3057 88.6862C67.4514 88.6552 67.589 88.621 67.6114 88.6101C67.6591 88.587 67.1743 88.6272 67.0101 88.66C66.9007 88.6818 66.898 88.6777 66.898 88.4938C66.898 88.3901 66.8903 88.3052 66.881 88.3052C66.8716 88.3052 66.6561 88.3803 66.402 88.4721C65.8281 88.6793 65.5865 88.7543 65.5553 88.7349C65.542 88.7268 65.5378 88.6352 65.5461 88.5315L65.5611 88.343L65.8248 88.2234C66.0306 88.1301 66.1261 88.1086 66.2589 88.1256C66.371 88.14 66.5057 88.1208 66.6534 88.0696L66.8776 87.9918L66.8888 87.3488C66.8994 86.7474 66.8954 86.7074 66.8277 86.7324C66.2095 86.9605 65.6435 87.2051 65.5459 87.2863C65.4307 87.3821 65.4182 87.4216 65.346 87.9155C65.3037 88.2053 65.2609 88.462 65.251 88.486C65.241 88.5099 65.2317 88.2359 65.2303 87.8772C65.2285 87.428 65.2437 87.1932 65.2792 87.1231C65.316 87.0502 65.4487 86.9701 65.7474 86.8405C66.0989 86.6879 66.1642 86.6452 66.1642 86.5678C66.1642 86.3897 66.2394 86.2844 66.5609 86.0134L66.8856 85.7395L66.9082 84.9284C66.9398 83.7944 66.9317 83.8079 67.8662 83.3243L68.2026 83.1502V82.9401C68.2026 82.689 68.2589 82.6282 68.4749 82.646C68.6238 82.6582 68.6312 82.6658 68.6436 82.8171C68.6507 82.9041 68.637 82.9949 68.613 83.0189C68.5891 83.0428 68.5695 83.0742 68.5695 83.0886C68.5695 83.103 68.941 83.127 69.395 83.142C69.8491 83.1569 70.3353 83.1807 70.4754 83.1948L70.7302 83.2205V83.0568C70.7302 82.851 70.7986 82.7931 71.0228 82.8092L71.199 82.8219L71.2116 83.0187C71.2185 83.127 71.2048 83.2388 71.1812 83.2673C71.1497 83.3052 71.161 83.3398 71.2233 83.3962C71.2702 83.4386 71.3257 83.5054 71.3467 83.5446C71.3853 83.6167 71.4868 85.3976 71.5327 86.807C71.5464 87.2274 71.5713 87.5714 71.588 87.5714C71.649 87.5714 71.6767 86.143 71.6328 85.2634C71.6083 84.7726 71.5771 84.0867 71.5634 83.7392L71.5385 83.1073L71.7695 82.455C73.0014 78.9764 72.9607 79.0726 73.368 78.6777C73.7976 78.261 73.9572 78.1833 75.2409 77.7657C76.3666 77.3996 76.5144 77.3395 77.7478 76.7461C78.4686 76.3992 79.0719 76.1155 79.0884 76.1155C79.1049 76.1155 79.2486 75.9986 79.4079 75.8558C79.7379 75.5599 79.8353 75.5297 80.3248 75.5711C80.6812 75.6012 80.6326 75.6716 80.7378 74.974C80.7733 74.7385 80.8218 74.4175 80.8455 74.2605C80.8693 74.1036 80.9055 73.8871 80.9259 73.7795C81.0085 73.3447 81.0009 73.3428 80.6026 73.6961C80.4044 73.872 80.0757 74.1627 79.8722 74.3421C79.5729 74.6059 79.4928 74.701 79.4532 74.8397C79.4078 74.9986 79.3101 75.087 78.1236 76.0424L76.843 77.0735L75.6211 77.4817C74.9492 77.7062 74.3994 77.8801 74.3994 77.8682C74.3994 77.8563 74.569 77.6794 74.7765 77.475C75.1051 77.1513 75.1764 77.1001 75.3311 77.0772C75.4713 77.0564 75.5657 76.9999 75.7796 76.809C75.9286 76.6759 76.6526 76.0527 77.3885 75.424C78.6195 74.3723 78.7385 74.2809 78.8779 74.2809C79.0035 74.2809 79.0821 74.2374 79.3387 74.0261C79.5088 73.886 79.9797 73.5007 80.3851 73.17L81.1223 72.5687L81.1344 72.3154L81.1465 72.0622L81.4931 71.8268C82.0061 71.4782 82.2301 71.4162 82.6205 71.5145ZM83.0237 74.2658C82.9948 74.4946 82.9402 74.8266 82.8733 75.1795C82.8434 75.3369 82.8363 75.6054 82.8536 75.9235C82.8866 76.5313 82.95 77.8196 82.9995 78.8877C83.0197 79.325 83.0561 79.9946 83.0802 80.3758C83.1044 80.757 83.1621 81.8667 83.2086 82.8419C83.255 83.8171 83.2975 84.6195 83.3031 84.6251C83.3086 84.6307 83.4128 84.6076 83.5345 84.5738C83.6562 84.5401 83.9355 84.5009 84.1552 84.4867C84.482 84.4656 84.5506 84.4501 84.5319 84.4015C84.5194 84.3687 84.4634 83.8623 84.4076 83.2762C84.3518 82.69 84.2962 82.1462 84.284 82.0677C84.2719 81.9892 84.2438 81.7232 84.2217 81.4765C84.1439 80.6097 84.1049 80.2075 84.0435 79.642C83.9708 78.9712 83.9707 78.9693 84.0114 78.9693C84.0406 78.9693 84.0805 79.1208 84.1886 79.642C84.2119 79.7541 84.2571 79.9284 84.2891 80.0293C84.3211 80.1302 84.3472 80.2467 84.347 80.2884C84.3469 80.33 84.3927 80.4001 84.4488 80.4442C84.5281 80.5066 84.5508 80.5622 84.5515 80.6947C84.552 80.7884 84.5693 80.9843 84.5901 81.13C84.6109 81.2757 84.6383 81.5669 84.6511 81.7771C84.6639 81.9872 84.6831 82.1733 84.6938 82.1907C84.7045 82.2081 84.7318 82.4581 84.7543 82.7463C84.9007 84.6189 84.8713 84.473 85.1024 84.473C85.2005 84.473 85.329 84.451 85.388 84.4241C85.4771 84.3835 85.4924 84.354 85.4778 84.2508C85.4571 84.1041 85.1834 82.7443 85.1186 82.4664C85.0939 82.3606 85.0673 82.2321 85.0594 82.181C85.0515 82.1299 84.9735 81.7413 84.8862 81.3175C84.7245 80.5327 84.725 80.534 84.4623 80.2481C84.4184 80.2003 84.3554 80.0352 84.3224 79.8812C84.2894 79.7272 84.2426 79.5095 84.2186 79.3973C84.1945 79.2852 84.1605 79.1201 84.143 79.0304C84.1254 78.9407 84.0521 78.5922 83.9801 78.2558C83.9081 77.9195 83.831 77.5526 83.809 77.4405C83.7199 76.9873 83.6991 76.8874 83.5755 76.3193C83.4018 75.521 83.3649 75.3484 83.3274 75.1574C83.2145 74.5835 83.1095 74.1332 83.0814 74.1027C83.0635 74.0832 83.0374 74.1566 83.0237 74.2658ZM54.1383 76.0238C54.2836 76.1975 54.565 76.5415 54.7638 76.7882C55.3092 77.4648 55.233 77.42 55.8418 77.4205L56.3594 77.4209L56.8211 77.9097L57.2827 78.3985H57.6424H58.002L58.5566 78.8959C58.8616 79.1694 59.1112 79.4079 59.1112 79.4258C59.1112 79.4438 57.2978 79.4585 55.0815 79.4585H51.0517L50.6845 78.6963L50.3173 77.934L50.4738 77.5494C50.5598 77.3379 50.6511 77.1397 50.6766 77.109C50.7109 77.0676 50.8507 77.0526 51.2173 77.051L51.7118 77.0488L52.1486 76.3783L52.5855 75.7078H53.2299H53.8743L54.1383 76.0238ZM72.9043 79.9323C72.8253 80.0529 72.8178 80.2877 72.8902 80.375C72.9416 80.4369 72.9216 80.5575 72.6294 81.9454C72.4115 82.9801 72.3911 83.0592 72.3138 83.1684C72.2377 83.2759 72.1544 83.7022 72.1625 83.943C72.1671 84.0796 72.1688 84.0778 72.2015 83.9023C72.2203 83.8014 72.2485 83.6271 72.2641 83.515C72.2798 83.4028 72.3338 83.2469 72.3843 83.1684C72.4347 83.0899 72.4883 82.9432 72.5034 82.8423C72.5185 82.7414 72.5464 82.5946 72.5653 82.5161C72.5843 82.4377 72.6217 82.2634 72.6484 82.1288C72.675 81.9943 72.7207 81.7833 72.7499 81.66C72.779 81.5367 72.8242 81.3257 72.8502 81.1912C72.8762 81.0566 72.9236 80.8327 72.9554 80.6935C73.0285 80.3739 73.028 80.3146 72.9521 80.3146C72.911 80.3146 72.8909 80.2736 72.8909 80.1896C72.8909 79.9803 72.9548 79.907 73.137 79.907C73.2259 79.907 73.2986 79.8886 73.2986 79.8662C73.2986 79.8438 73.2256 79.8254 73.1365 79.8254C73.0065 79.8254 72.9604 79.8466 72.9043 79.9323ZM60.5287 79.9247C60.5517 79.9477 61.3165 81.7927 61.5148 82.3034C61.623 82.5822 61.6786 82.778 61.6559 82.8006C61.6188 82.8375 59.2533 83.4337 55.6867 84.3051C54.6665 84.5544 53.2355 84.904 52.5067 85.0821C51.1428 85.4153 50.3506 85.6063 49.4287 85.8242C49.1372 85.893 48.754 85.9841 48.5771 86.0266C48.1959 86.1181 48.2618 86.1698 47.8951 85.4922C47.3197 84.4289 45.1899 81.0173 44.9467 80.7693C44.8416 80.6621 44.7099 80.6534 40.8266 80.4952C39.8849 80.4568 39.073 80.4101 39.0226 80.3914C38.9431 80.362 38.9309 80.3282 38.9309 80.139C38.9309 80.0188 38.9385 79.9129 38.9479 79.9036C38.9685 79.8829 60.508 79.9041 60.5287 79.9247ZM45.4029 82.9584L46.1469 84.0927L46.1467 84.395C46.1466 84.5612 46.1344 84.8784 46.1198 85.0999L46.0931 85.5025L45.8448 85.4668C45.7083 85.4471 45.3121 85.4316 44.9646 85.4322C44.2774 85.4334 43.9842 85.4885 43.3375 85.7379C42.0985 86.2157 41.0711 87.4196 40.7385 88.7833L40.6264 89.2429H39.7786H38.9309V86.6134V83.9838H40.3739H41.8169L42.1921 83.0971C42.3985 82.6094 42.6045 82.1232 42.6499 82.0167L42.7324 81.8231L43.6956 81.8236L44.6588 81.8241L45.4029 82.9584ZM42.9803 82.3011C42.9446 82.3858 42.8194 82.7049 42.702 83.0103L42.4886 83.5656L42.7338 83.5912C43.0505 83.6244 45.0397 83.617 45.1532 83.5822C45.2339 83.5575 45.2118 83.509 44.8255 82.8627L44.4111 82.1696L43.7281 82.1584L43.0451 82.1472L42.9803 82.3011ZM68.7772 83.5617C68.6826 83.628 68.6817 83.6352 68.7066 84.163C68.7205 84.4568 68.7496 84.8899 68.7712 85.1253C68.7929 85.3607 68.8113 85.8148 68.8123 86.1343C68.8133 86.4539 68.8187 86.7162 68.8243 86.7174C68.8624 86.7251 69.8339 86.8024 70.3225 86.8366C70.6477 86.8594 70.9825 86.8889 71.0666 86.9021L71.2194 86.9263L71.2197 86.6883C71.2202 86.1822 71.1356 84.5581 71.0915 84.2284C71.0149 83.6554 70.9477 83.6041 70.1869 83.5391C69.4018 83.472 68.8936 83.4801 68.7772 83.5617ZM67.8295 83.792C67.1969 84.1331 67.2622 83.9074 67.2746 85.7084L67.2853 87.2564L67.7541 87.5397C68.5663 88.0305 68.6468 88.0603 69.2895 88.1077C69.5982 88.1305 70.1293 88.143 70.4697 88.1355C71.2601 88.118 71.2602 88.118 71.2602 87.6114V87.2564L70.7404 87.2079C69.8165 87.1216 69.37 87.0849 69.0995 87.0733L68.8345 87.0618L68.8061 87.4041C68.7905 87.5923 68.7628 87.7614 68.7445 87.7797C68.7262 87.798 68.6339 87.7738 68.5395 87.7258L68.3679 87.6386L68.3566 87.1239L68.3453 86.6092L67.9987 86.6631C67.8081 86.6928 67.5834 86.7282 67.4993 86.7419L67.3464 86.7668V86.6167C67.3464 86.4389 67.3894 86.4159 68.0044 86.2657L68.3973 86.1697L68.3775 85.2296C68.3538 84.1078 68.319 83.6073 68.2637 83.5914C68.2413 83.585 68.0459 83.6753 67.8295 83.792ZM58.0105 85.1098V85.7418L57.7149 85.7087C57.5524 85.6906 57.0616 85.6774 56.6244 85.6794C55.8834 85.6829 55.8047 85.6906 55.4665 85.7931C54.4954 86.0875 53.6796 86.6671 53.2158 87.392C53.1384 87.5131 53.0572 87.6122 53.0355 87.6122C53.0131 87.6122 52.996 87.4622 52.996 87.2656V86.9191H52.1015C51.5746 86.9191 51.197 86.9031 51.1828 86.88C51.1438 86.8169 51.2744 86.0939 51.3312 86.0588C51.39 86.0225 53.5827 85.4798 55.4421 85.0412C56.126 84.88 56.9699 84.6797 57.3174 84.5963C57.665 84.5128 57.9631 84.4519 57.9799 84.4612C57.9967 84.4703 58.0105 84.7622 58.0105 85.1098ZM57.0787 86.4719C57.937 86.5573 58.645 86.8996 59.2377 87.5158C60.4592 88.7858 60.5685 90.7209 59.4982 92.1276C59.0844 92.6713 58.3537 93.1684 57.6843 93.3617C57.2545 93.4858 56.4313 93.5172 55.984 93.4266C54.9225 93.2115 54.0184 92.4904 53.5242 91.4648C53.2803 90.9587 53.1997 90.5814 53.2001 89.9479C53.2007 88.9422 53.4997 88.233 54.2456 87.4681C54.3994 87.3104 54.6134 87.1207 54.7212 87.0465C55.1282 86.7665 55.7937 86.5174 56.2574 86.4715C56.4256 86.4549 56.5842 86.4387 56.6098 86.4356C56.6355 86.4325 56.8465 86.4488 57.0787 86.4719ZM45.9522 86.5284C46.6021 86.6527 47.1007 86.9329 47.6601 87.488C48.4257 88.248 48.7622 89.1107 48.7023 90.1602C48.5957 92.0293 47.0672 93.4828 45.2084 93.4828C44.4639 93.4828 43.8391 93.3007 43.2297 92.906C42.5344 92.4557 41.9503 91.643 41.7642 90.8668C41.6748 90.494 41.6428 89.7701 41.6997 89.4069C41.9182 88.0132 43.0855 86.7803 44.4377 86.515C44.7307 86.4575 45.6229 86.4654 45.9522 86.5284ZM66.7757 87.0142C66.7757 87.0881 66.7425 87.1195 66.6263 87.1551C66.5441 87.1804 66.4615 87.1915 66.4428 87.18C66.3675 87.1334 66.4163 87.0342 66.5413 86.9799C66.7283 86.8986 66.7757 86.9055 66.7757 87.0142ZM52.238 87.5292C52.299 87.5524 52.3542 87.6151 52.3727 87.6821C52.3898 87.7446 52.4037 88.3001 52.4035 88.9168C52.403 90.1284 52.3924 90.1947 52.1896 90.2514C52.1286 90.2685 51.533 90.2821 50.8659 90.2815C49.6631 90.2805 49.6525 90.2797 49.5614 90.1887C49.4713 90.0987 49.4693 90.0755 49.4574 89.0074C49.4439 87.7978 49.4631 87.6181 49.6139 87.5418C49.7374 87.4793 52.0772 87.4681 52.238 87.5292ZM81.7592 88.0349C81.8531 88.1329 82.035 88.4129 82.1634 88.6572C82.2918 88.9015 82.4641 89.1967 82.5463 89.3131C83.0502 90.027 83.2142 90.2818 83.3805 90.6092C83.6144 91.0696 83.7637 91.5129 83.8191 91.9107C83.8949 92.4562 83.7607 93.4023 83.5491 93.8138C83.5189 93.8724 83.428 94.0072 83.347 94.1133C83.266 94.2194 83.2101 94.3166 83.2227 94.3291C83.2353 94.3418 83.4246 94.3497 83.6433 94.3466C83.8621 94.3436 84.227 94.3594 84.4543 94.3817C84.6815 94.4041 85.365 94.4486 85.9731 94.4807C86.5813 94.5128 87.1089 94.5559 87.1456 94.5764C87.2215 94.6189 86.8665 94.6634 85.6311 94.7666C85.205 94.8022 84.6455 94.8491 84.3876 94.8708C82.3854 95.0395 82.3947 95.0392 81.7126 94.971C80.9939 94.8992 80.9383 94.8889 80.6802 94.7792L80.4992 94.7022L80.8335 94.3945C81.2281 94.0314 81.473 93.724 81.6552 93.3625C81.8013 93.073 82.0764 92.3403 82.0492 92.3131C82.0398 92.3037 81.9466 92.4568 81.842 92.6533C81.4475 93.3951 80.9242 93.9923 80.3128 94.3988C80.077 94.5555 80.0043 94.5836 79.8335 94.5836C79.3514 94.5836 78.1972 94.3535 78.061 94.2302C77.8806 94.067 78.0207 93.9365 78.7616 93.5778C79.3321 93.3015 79.4574 93.2519 79.7232 93.1967C80.2559 93.0861 80.791 92.5247 81.0224 91.8338C81.2355 91.1972 81.2705 90.3589 81.1279 89.3041C80.9945 88.3175 81.0272 88.0582 81.3023 87.9226C81.5016 87.8243 81.5746 87.8422 81.7592 88.0349ZM44.7811 88.0266C44.3183 88.1136 43.8161 88.451 43.5296 88.8674C43.3012 89.1994 43.2349 89.4526 43.2333 89.9993C43.2319 90.4885 43.2326 90.4919 43.3892 90.8088C43.8901 91.8222 45.0551 92.2361 46.045 91.7523C46.4068 91.5754 46.6274 91.386 46.8366 91.0727C47.3721 90.2708 47.2466 89.1767 46.5445 88.5267C46.0387 88.0584 45.4697 87.897 44.7811 88.0266ZM56.2722 88.0214C56.0538 88.0647 55.6307 88.2774 55.4152 88.4524C54.7561 88.9873 54.5333 90.0468 54.9156 90.8272C55.0877 91.1782 55.4977 91.5931 55.8245 91.7468C56.2075 91.9269 56.6226 91.9954 56.9907 91.9394C58.1322 91.7657 58.8922 90.6817 58.6585 89.5609C58.435 88.4892 57.3723 87.8036 56.2722 88.0214ZM45.6565 88.9904C46.3464 89.3346 46.4698 90.2357 45.8946 90.7281C45.2419 91.2867 44.2384 90.9131 44.1265 90.0698C44.0657 89.6109 44.3833 89.0732 44.7925 88.9427C45.1935 88.8147 45.3184 88.8216 45.6565 88.9904ZM57.1136 88.943C57.3051 89.0224 57.5948 89.3073 57.6882 89.5079C57.7364 89.6114 57.7644 89.7646 57.765 89.9271C57.7665 90.3754 57.5769 90.6787 57.1695 90.8792C56.9287 90.9978 56.8865 91.0058 56.6208 90.9836C55.8281 90.9171 55.4135 90.1695 55.7717 89.4527C56.0307 88.9343 56.5851 88.7237 57.1136 88.943ZM44.9362 89.565C44.53 89.8198 44.7952 90.4559 45.2704 90.3667C45.5029 90.3231 45.6169 90.1845 45.6169 89.9455C45.6169 89.7803 45.5973 89.7286 45.4992 89.6346C45.3414 89.4835 45.1114 89.455 44.9362 89.565ZM56.5179 89.5275C56.4705 89.5466 56.3925 89.6122 56.3446 89.6731C56.13 89.9459 56.3568 90.3844 56.7126 90.3844C56.8608 90.3844 57.0639 90.2597 57.1145 90.1377C57.2287 89.8618 57.0106 89.485 56.7396 89.4901C56.665 89.4915 56.5652 89.5084 56.5179 89.5275ZM67.1952 90.064C67.6627 90.3018 68.1787 90.731 68.2891 90.974C68.3502 91.1085 68.3639 91.2431 68.3641 91.7094C68.3643 92.3701 68.3066 92.9975 68.2332 93.1337C68.1647 93.2609 67.9698 93.419 67.788 93.4949L67.6392 93.5571L66.9119 93.1465C65.585 92.3976 65.5419 92.37 65.4135 92.1873C65.2986 92.0238 65.2911 91.9883 65.2748 91.5303C65.2516 90.8793 65.3107 90.6966 65.6489 90.3736C65.9166 90.1181 66.0349 90.0693 66.5107 90.0184C66.9695 89.9692 67.0147 89.9723 67.1952 90.064ZM66.6566 90.3137C66.4653 90.4113 66.5175 90.4529 66.8661 90.4805C67.0518 90.4952 67.2496 90.5177 67.3057 90.5305C67.3722 90.5457 67.3302 90.503 67.1852 90.408C66.9509 90.2543 66.8191 90.2308 66.6566 90.3137ZM68.0022 91.261C68.0065 91.3382 68.0744 91.4682 68.0768 91.4036C68.078 91.37 68.0612 91.315 68.0395 91.2813C68.0178 91.2477 68.001 91.2385 68.0022 91.261ZM68.0704 91.9234C68.0465 92.4373 68.0281 92.4942 67.8601 92.5721L67.7337 92.6307L67.856 92.6057C68.0655 92.5627 68.0857 92.513 68.1103 91.9795C68.1228 91.7077 68.1235 91.4852 68.1119 91.4852C68.1002 91.4852 68.0816 91.6824 68.0704 91.9234ZM74.644 91.6878C74.7673 91.7068 75.1709 91.7356 75.5409 91.7517C76.0625 91.7744 76.2033 91.77 76.1679 91.7322C76.1363 91.6983 75.862 91.6787 75.271 91.6683C74.7095 91.6583 74.4961 91.6649 74.644 91.6878ZM75.2963 92.6239C75.4196 92.6428 75.7022 92.6699 75.9243 92.6841C76.1464 92.6982 76.3711 92.7206 76.4236 92.7338C76.4762 92.747 76.5513 92.7454 76.5906 92.7303C76.7515 92.6683 76.5165 92.6327 75.8053 92.6115C75.3402 92.5976 75.1541 92.6021 75.2963 92.6239ZM66.9999 92.7308C67.6738 93.0512 67.9039 93.1319 67.9242 93.0548C67.9301 93.0323 67.7062 92.9367 67.4267 92.8423C66.8838 92.659 66.806 92.6386 66.9999 92.7308ZM57.3048 120.498C57.2893 120.513 57.2766 121.899 57.2766 123.577V126.628H57.9289H58.5812V125.233C58.5812 124.419 58.5963 123.855 58.6174 123.878C58.6374 123.899 58.8343 124.526 59.0552 125.272L59.4567 126.628H60.1401H60.8235V123.55V120.472H60.1717H59.52L59.5092 121.847L59.4985 123.223L59.0483 121.858L58.5981 120.492L57.9655 120.481C57.6176 120.475 57.3203 120.482 57.3048 120.498ZM61.2719 121.083V121.695H61.7408H62.2096V124.161V126.628H62.9842H63.7588V124.161V121.695H64.248H64.7373V121.083V120.472H63.0046H61.2719V121.083ZM65.1042 123.55V126.628H65.7972H66.4903L66.4931 124.62C66.4947 123.4 66.5102 122.644 66.5324 122.693C66.5525 122.738 66.6802 123.582 66.8162 124.569C66.9522 125.555 67.0741 126.422 67.0871 126.495L67.1109 126.628H67.5893H68.0678L68.1315 126.149C68.1665 125.885 68.2825 124.982 68.3893 124.141C68.4961 123.3 68.5987 122.594 68.6173 122.573C68.6358 122.552 68.651 123.455 68.651 124.581V126.628H69.3441H70.0371V123.549V120.47L69.0077 120.481L67.9783 120.492L67.7934 121.886C67.6917 122.653 67.5954 123.294 67.5793 123.31C67.5634 123.326 67.5503 123.311 67.5503 123.276C67.5503 123.201 67.1941 120.744 67.16 120.584L67.1361 120.472H66.1202H65.1042V123.55Z" fill="currentColor" fill-opacity="0.3"/>
        </g>
    </symbol>
</svg>
