<svg width="328" height="96" viewBox="0 0 328 96" fill="none" xmlns="http://www.w3.org/2000/svg">
<path fill-rule="evenodd" clip-rule="evenodd" d="M46.9673 0.0297506C46.44 0.0416448 45.9966 0.0633229 45.982 0.0779078C45.9265 0.133373 44.9261 2.59865 44.5146 3.69392C44.3514 4.12841 44.3483 4.13367 44.3269 4.01498C44.3149 3.94863 44.2552 3.055 44.1943 2.02917C44.1334 1.00333 44.08 0.160403 44.0756 0.155969C44.0556 0.135789 41.0592 0.379055 41.0457 0.401956C41.0383 0.414431 42.0776 10.5905 42.0874 10.6011C42.0927 10.607 42.3423 10.5887 42.6419 10.5605C42.9416 10.5323 43.5207 10.4848 43.9288 10.455C44.3369 10.4252 44.6795 10.3923 44.69 10.3818C44.7005 10.3712 44.6518 9.42322 44.5817 8.27508C44.5116 7.12694 44.4552 6.15315 44.4562 6.1111L44.4582 6.03466L44.4996 6.1111C44.5578 6.21834 45.5311 8.82852 45.8209 9.65429L46.061 10.3386L46.3973 10.3198C46.5823 10.3095 47.2393 10.2918 47.8573 10.2805C48.4754 10.2692 48.981 10.256 48.981 10.2511C48.981 10.2463 48.8771 9.90098 48.7501 9.48383C48.3767 8.25698 47.9007 6.78871 47.4761 5.55358L47.0794 4.39981L47.2543 3.9789C47.5822 3.18987 48.1312 1.93906 48.5597 1.00486C48.7949 0.491942 48.9945 0.054609 49.0032 0.0330221C49.0205 -0.0102433 48.7599 -0.0106407 46.9673 0.0297506ZM52.3321 0.184498C52.3058 0.351933 52.2415 2.13521 52.2611 2.15474C52.271 2.16468 52.6068 2.1914 53.0074 2.21415C53.4079 2.2369 53.8423 2.26448 53.9726 2.27546L54.2096 2.29543L54.209 2.42219C54.2086 2.49191 54.079 4.32386 53.9209 6.49319C53.7628 8.66255 53.6358 10.4396 53.6387 10.4423C53.6415 10.445 53.9879 10.4765 54.4083 10.5124C54.8287 10.5482 55.4135 10.603 55.7078 10.6342C56.0021 10.6654 56.2478 10.6863 56.2538 10.6807C56.2598 10.6752 56.4702 8.85071 56.7214 6.62635C56.9725 4.40201 57.1823 2.57777 57.1876 2.57248C57.1973 2.56275 58.9918 2.78572 59.3108 2.83629C59.406 2.85139 59.4857 2.86173 59.4878 2.85925C59.5017 2.84317 59.7789 0.815715 59.7687 0.805472C59.7365 0.773244 58.1355 0.565539 56.9614 0.441246C55.6166 0.298913 54.3542 0.198776 52.6902 0.102461L52.3481 0.0826471L52.3321 0.184498ZM38.7838 0.656687C38.1734 0.741934 36.6082 0.97465 36.422 1.00786C36.2502 1.03849 36.2326 1.04846 36.2453 1.10747C36.2531 1.14352 36.4938 2.59024 36.7803 4.32239C37.7842 10.3927 37.9079 11.1313 37.9236 11.1471C37.9324 11.1558 38.2602 11.1136 38.6521 11.0534C39.2102 10.9676 40.4725 10.7893 40.5215 10.7893C40.5265 10.7893 40.2448 8.50869 39.8955 5.72126C39.5463 2.93383 39.2599 0.642928 39.2592 0.6303C39.2573 0.599662 39.1493 0.605656 38.7838 0.656687ZM60.6767 1.34915C59.9706 3.32689 59.2123 5.55498 58.6259 7.37406C58.0794 9.06979 57.5348 10.8225 57.5498 10.8375C57.556 10.8437 57.942 10.9046 58.4076 10.9729C58.8732 11.0412 59.5325 11.1442 59.8727 11.2017C60.2212 11.2606 60.4986 11.2942 60.5082 11.2786C60.5176 11.2634 60.5987 10.8685 60.6885 10.401C60.7783 9.93345 60.8621 9.53969 60.8747 9.52593C60.8985 9.50006 62.4011 9.77134 62.4427 9.80898C62.461 9.82552 62.2202 11.2265 62.1444 11.5448C62.1254 11.6245 62.0423 11.6 63.1531 11.8425C63.5904 11.9381 64.2014 12.0773 64.511 12.1521C64.8205 12.2269 65.0764 12.2845 65.0795 12.2801C65.0887 12.2674 65.2738 9.75452 65.3391 8.75596C65.4485 7.08545 65.5478 5.19871 65.6136 3.54269C65.6306 3.11386 65.653 2.56327 65.6632 2.31912L65.6819 1.87528L65.4265 1.82021C64.0801 1.52992 62.6105 1.24653 61.5173 1.06644C61.2062 1.01519 60.9223 0.966731 60.8864 0.958782C60.8274 0.945726 60.8073 0.983181 60.6767 1.34915ZM33.8858 1.46552C32.9053 1.65886 31.6962 1.92346 31.6659 1.95135C31.6526 1.96364 31.8698 2.96838 32.1486 4.18415C32.4274 5.39993 32.6515 6.40696 32.6465 6.42201C32.6414 6.43705 32.5422 6.31477 32.4259 6.1503C31.8477 5.33272 29.7025 2.50438 29.6234 2.45552C29.5673 2.42082 27.333 3.0462 27.333 3.09662C27.333 3.11637 27.435 3.4828 27.5597 3.91093C27.6844 4.33903 28.3255 6.53994 28.9843 8.80182C29.6432 11.0637 30.1844 12.9166 30.1871 12.9194C30.1897 12.9222 30.474 12.845 30.8187 12.7479C31.1635 12.6507 31.7276 12.4987 32.0723 12.4101C32.4171 12.3215 32.7096 12.2396 32.7224 12.2281C32.7353 12.2166 32.4971 11.2057 32.1932 9.98152C31.8892 8.75733 31.6466 7.74975 31.6539 7.74244C31.6803 7.716 32.645 9.25472 33.5929 10.8351C34.1325 11.7349 34.2253 11.8736 34.2833 11.8661C34.3201 11.8614 34.6392 11.7969 34.9924 11.7229C35.3455 11.6488 35.8305 11.55 36.0702 11.5033C36.4122 11.4366 36.5059 11.4079 36.5059 11.3697C36.5059 11.3251 34.6487 1.3797 34.6326 1.33808C34.6287 1.32796 34.2926 1.38529 33.8858 1.46552ZM68.094 2.58691C67.7714 3.81204 67.6079 4.47772 67.6257 4.49362C67.6379 4.50444 67.751 4.53771 67.8772 4.56755C68.0033 4.59736 68.1397 4.63402 68.1802 4.64901L68.2539 4.67625L68.1519 4.78146C68.0452 4.89157 67.8539 4.97067 67.6101 5.00556L67.4661 5.02617L67.3862 5.31637C67.3423 5.476 67.2969 5.64442 67.2854 5.69068L67.2645 5.77477H67.6585C68.8513 5.77477 69.5515 5.39782 69.9587 4.53642C70.0511 4.34092 70.415 3.20657 70.415 3.11395C70.415 3.10142 70.384 3.0846 70.3462 3.07653C70.3083 3.06849 69.8302 2.93811 69.2837 2.78682C68.7371 2.63556 68.2527 2.50282 68.2071 2.49188C68.1314 2.47369 68.1217 2.48185 68.094 2.58691ZM71.1719 3.41275C71.1638 3.44216 70.4938 5.64485 69.6829 8.30756C68.872 10.9703 68.2131 13.153 68.2187 13.1581C68.2242 13.1631 68.5659 13.2735 68.9779 13.4035C69.8843 13.6894 71.0466 14.0903 71.9903 14.4424C72.3749 14.5859 72.6995 14.693 72.7115 14.6803C72.7377 14.6527 73.442 12.8216 73.442 12.7811C73.442 12.7559 72.7047 12.4715 71.7756 12.1382C71.5518 12.0579 71.4425 12.0039 71.4489 11.9767C71.4542 11.9543 72.0579 10.2188 72.7903 8.12006C73.5228 6.02136 74.117 4.29934 74.1107 4.29334C74.0681 4.25222 71.313 3.35924 71.2288 3.35924C71.2055 3.35924 71.1799 3.38333 71.1719 3.41275ZM25.9724 3.46824C25.8546 3.50585 25.2664 3.6979 24.6652 3.89506L23.5721 4.25347L23.5728 4.67013C23.5731 4.8993 23.5863 5.40326 23.602 5.79005C23.6725 7.52291 23.6723 7.48028 23.6114 7.39678C23.302 6.97198 23.0766 6.68729 22.8472 6.43127C22.6718 6.23552 22.4446 5.92389 22.2126 5.56073C22.0138 5.24962 21.8335 4.9759 21.8118 4.95245C21.7785 4.91634 21.6654 4.95107 21.0747 5.17871C20.3809 5.44607 19.1353 5.95131 19.1117 5.97492C19.1049 5.98171 19.1981 6.10799 19.3189 6.25558C20.3526 7.51899 21.7183 9.22815 21.9771 9.58234C22.0371 9.66444 22.0585 9.79931 22.1668 10.7748C22.3533 12.4558 22.7502 15.5118 22.7868 15.5484C22.7929 15.5545 22.948 15.4964 23.1315 15.4192C23.5045 15.2622 24.6523 14.8034 25.107 14.6295C25.2878 14.5603 25.3986 14.5019 25.391 14.4796C25.3324 14.3081 24.9337 12.2384 24.873 11.79C24.7854 11.1442 24.74 10.4815 24.7865 10.5294C24.9068 10.6532 26.2195 12.8499 26.7165 13.7592L26.8441 13.9925L27.6466 13.7238C28.0879 13.576 28.6829 13.3832 28.9688 13.2954C29.2547 13.2076 29.4928 13.1322 29.4978 13.1279C29.5275 13.1028 27.8145 10.3993 26.7727 8.82714L26.3001 8.11385L26.2635 6.61561C26.2434 5.79158 26.2178 4.73095 26.2067 4.25864L26.1864 3.39987L25.9724 3.46824ZM62.7579 5.30083C62.5719 8.05509 62.5812 7.94568 62.5331 7.94568C62.4891 7.94568 61.4782 7.75798 61.4634 7.74709C61.4524 7.73893 62.0223 5.93648 62.4737 4.55199C62.816 3.50172 62.8481 3.41843 62.8563 3.55826C62.8612 3.64219 62.8169 4.42635 62.7579 5.30083ZM75.3995 10.2578C74.355 12.8749 73.5044 15.0189 73.5094 15.0224C73.5144 15.0258 73.8143 15.1503 74.1759 15.2991C74.5374 15.4479 75.0899 15.6819 75.4036 15.8192L75.974 16.0689L76.8153 14.1859C77.278 13.1502 78.2152 11.0534 78.898 9.5263C79.5807 7.99919 80.1426 6.73602 80.1465 6.71924C80.1563 6.67686 77.4324 5.49958 77.3245 5.49958C77.3103 5.49958 76.4441 7.64081 75.3995 10.2578ZM17.3499 6.73391C16.1891 7.25555 15.8194 7.43148 14.4375 8.1196C13.7101 8.48178 13.115 8.79192 13.115 8.80879C13.115 8.83931 17.8136 17.8162 17.8526 17.8603C17.8639 17.873 18.3195 17.6589 18.8651 17.3845C19.9456 16.841 20.7799 16.4457 21.7987 15.9946C22.1603 15.8345 22.462 15.6983 22.4692 15.6921C22.4879 15.6759 21.6696 13.7858 21.6439 13.7858C21.614 13.7858 20.5681 14.2509 19.9641 14.5329C19.6866 14.6624 19.4446 14.775 19.4263 14.783C19.3983 14.7952 18.4965 12.9558 18.4965 12.8865C18.4965 12.8623 18.9745 12.6326 19.7377 12.29L20.2299 12.0691L19.8627 11.2344L19.4955 10.3996L19.2177 10.5223C19.0648 10.5897 18.6646 10.7724 18.3283 10.9281C17.992 11.0838 17.7072 11.2023 17.6955 11.1914C17.676 11.1733 17.137 10.0504 16.8899 9.51327L16.7882 9.29211L17.0537 9.16654C17.1998 9.09746 17.6701 8.88294 18.099 8.68979C18.5278 8.49667 18.8909 8.32673 18.9059 8.31217C18.9396 8.2794 18.1344 6.41665 18.0869 6.41736C18.0683 6.41763 17.7366 6.56009 17.3499 6.73391ZM81.4054 8.35427C81.1725 8.84426 80.1797 10.9307 79.1992 12.9907C78.0342 15.4386 77.4298 16.7407 77.4546 16.7489C77.4755 16.7559 78.0218 17.0273 78.6685 17.352C79.3153 17.6767 79.8462 17.9393 79.8484 17.9356C79.8505 17.9319 80.1042 17.4748 80.4121 16.9198C81.7367 14.532 83.2045 11.919 83.215 11.9296C83.2406 11.9551 82.1126 15.2406 81.3758 17.2868C81.1457 17.9258 80.9514 18.4693 80.9441 18.4945C80.9347 18.5272 81.0732 18.6197 81.4247 18.8156C81.6962 18.9669 81.9348 19.0947 81.9548 19.0995C81.9749 19.1043 82.1144 18.9531 82.2649 18.7636C83.3096 17.4475 86.2485 13.9036 86.3964 13.7816C86.4426 13.7435 86.4435 13.7465 86.4066 13.8163C86.3521 13.9197 84.726 16.795 83.8094 18.4088C83.4016 19.1269 83.067 19.7254 83.0659 19.7389C83.0648 19.7524 83.3653 19.9494 83.7337 20.1766C84.1022 20.4039 84.6208 20.7301 84.8862 20.9016L85.3688 21.2133L85.592 20.8706C85.7148 20.6821 86.9802 18.7555 88.4041 16.5894C89.8279 14.4233 90.9928 12.6446 90.9928 12.6366C90.9928 12.5917 88.0161 10.7355 87.5483 10.4887C87.4872 10.4564 87.4171 10.5287 86.5523 11.516C86.0407 12.1001 85.3289 12.922 84.9706 13.3424C84.6124 13.7628 84.3079 14.1112 84.2941 14.1165C84.2803 14.1218 84.3377 13.9223 84.4216 13.6731C84.5054 13.424 84.8218 12.4565 85.1246 11.5231C85.4274 10.5898 85.7003 9.74972 85.731 9.65634L85.7868 9.48655L85.0646 9.10021C84.1728 8.62304 82.9398 7.99317 82.306 7.69092L81.8288 7.4634L81.4054 8.35427ZM11.8003 9.49441C9.62806 10.7092 8.26383 11.5357 6.3179 12.8161C5.8388 13.1313 5.62584 13.2882 5.63712 13.3175C5.64996 13.351 6.73227 14.9589 6.77293 15.0049C6.77844 15.0111 7.06219 14.8308 7.40351 14.6042C8.12499 14.1251 8.45781 13.9106 8.49585 13.9002C8.51074 13.8961 9.50915 15.4338 10.7146 17.3173C11.92 19.2008 12.9107 20.7464 12.9162 20.7519C12.9216 20.7574 13.2335 20.5703 13.6092 20.3362C13.9848 20.1021 14.5083 19.7824 14.7723 19.6258C15.1668 19.3918 15.2477 19.3322 15.2258 19.2914C15.2112 19.2641 14.2897 17.6813 13.1781 15.774C12.0665 13.8668 11.1614 12.2932 11.1667 12.2772C11.1763 12.2483 12.012 11.7651 12.7938 11.3363C13.0204 11.212 13.2061 11.0991 13.2063 11.0854C13.2069 11.0562 12.3067 9.3865 12.251 9.31336C12.217 9.26884 12.1693 9.28802 11.8003 9.49441ZM45.6482 14.6626C44.5501 14.6892 42.9286 14.7838 41.7803 14.8883C32.6816 15.7165 23.9809 18.5792 15.5994 23.5023L14.7356 24.0097L14.7359 24.2715C14.7371 25.4049 14.8403 28.2261 14.9355 29.7313C15.5974 40.1937 17.615 49.931 20.723 57.6628C22.6711 62.509 25.0953 66.6577 27.8727 69.8987C28.6564 70.8132 30.8763 73.1937 32.6575 75.0296C38.1195 80.6595 42.7949 84.6963 45.9596 86.5148C46.3333 86.7295 46.8204 86.9855 46.8553 86.9855C46.8641 86.9855 46.8713 78.152 46.8713 67.3555V47.7255H33.6317H20.3922V47.0375V46.3495H47.6051H74.818V47.0375V47.7255H61.5775C51.0132 47.7255 48.334 47.7332 48.3225 47.7637C48.3145 47.7847 48.3115 56.5906 48.3158 67.3322L48.3236 86.8625L48.9657 86.4593C49.8302 85.9164 51.558 84.758 52.4208 84.1428C57.093 80.8115 61.2925 77.1256 64.7945 73.2825C70.8159 66.6744 74.6354 59.8131 76.1517 52.8802C76.3007 52.1993 76.88 49.3603 77.1225 48.123C79.1276 37.8921 80.2789 29.8547 80.4907 24.608L80.5099 24.1323L80.1419 23.8973C77.7886 22.3946 74.3447 20.6688 71.1182 19.3753C62.8518 16.0613 54.1762 14.4561 45.6482 14.6626ZM52.8322 23.526C55.4969 26.9137 57.6835 29.6854 57.6914 29.6854C57.6992 29.6854 58.1026 29.54 58.5877 29.3623C59.073 29.1845 59.488 29.0435 59.5101 29.0489C59.5323 29.0542 61.179 30.9024 63.1694 33.1559C65.1599 35.4093 67.3538 37.8929 68.0447 38.6749C74.233 45.679 74.7827 46.3032 74.772 46.314C74.7625 46.3234 74.0588 45.8204 69.0696 42.2376C68.1531 41.5794 65.7659 39.8668 63.7646 38.4318C61.7634 36.9967 60.1095 35.8074 60.0892 35.7887C60.0606 35.7625 60.0996 35.4525 60.2625 34.4095C60.378 33.6696 60.4703 33.0621 60.4675 33.0596C60.4647 33.0571 59.7951 33.7922 58.9795 34.6931C58.1638 35.5941 56.9749 36.9072 56.3374 37.6113C55.6998 38.3153 55.1684 38.8805 55.1564 38.8672C55.1445 38.8539 53.9874 37.0822 52.5853 34.9301C47.5702 27.2326 47.0641 26.4596 47.0388 26.4596C47.0157 26.4596 46.2978 27.3185 43.7464 30.3984L42.8899 31.4323L41.2541 34.2204C40.3544 35.7538 39.6092 37.0183 39.5981 37.0303C39.587 37.0424 38.3034 35.8315 36.7457 34.3396C33.7916 31.5103 33.7335 31.4551 33.7613 31.5047C33.776 31.5311 34.4072 32.9427 34.4465 33.0372C34.4543 33.056 34.1538 33.2979 33.7787 33.5747C33.146 34.0416 31.3969 35.3294 26.7062 38.7819C25.6804 39.537 24.0323 40.7505 23.0437 41.4787L21.2464 42.8027H21.092C21.007 42.8027 20.942 42.7907 20.9477 42.776C20.9565 42.7529 22.6089 40.9192 26.4769 36.6404C27.0402 36.0172 28.5744 34.3185 29.8861 32.8654C34.5874 27.6577 35.1483 27.0406 35.1811 27.0406C35.2111 27.0406 35.6128 27.5384 37.9994 30.5339C38.3913 31.0259 38.7165 31.4283 38.7221 31.4283C38.7277 31.4283 38.4994 30.847 38.2146 30.1364C37.9299 29.4259 37.7007 28.8219 37.7053 28.7942C37.7135 28.7444 38.8887 27.4313 46.5878 18.8691C47.3326 18.0408 47.9521 17.364 47.9646 17.3649C47.9771 17.3658 50.1675 20.1383 52.8322 23.526ZM6.76364 44.3239C6.24944 45.4465 6.01284 46.5594 6.01116 47.8631C6.00889 49.6197 6.44901 51.2996 7.38321 53.0998L7.64133 53.5972L7.70496 54.0171C7.78131 54.5211 7.9478 55.4347 8.07325 56.0379C8.12346 56.2794 8.15975 56.4913 8.15391 56.5089C8.14177 56.5453 7.53019 55.783 6.96988 55.0332C6.20917 54.0153 5.51493 53.4661 4.09503 52.7591C3.56927 52.4973 2.7132 52.1294 2.45156 52.0528C2.35995 52.0259 2.36105 52.0846 2.46107 52.5637C2.79713 54.1735 3.67122 55.6497 4.92998 56.7334C5.87858 57.55 6.93156 58.1464 8.19226 58.5811L8.69676 58.7551L8.74853 58.9198C8.777 59.0104 8.89857 59.4342 9.0187 59.8615C9.27166 60.7613 9.5496 61.6471 9.91428 62.7155C10.0563 63.1318 10.1632 63.4723 10.1518 63.4723C10.134 63.4723 9.29337 62.7441 8.82231 62.3206C8.13294 61.7009 6.83418 61.1555 5.15869 60.7821C4.81572 60.7057 4.21272 60.5991 4.11907 60.5983C4.10705 60.5982 4.12423 60.6612 4.15729 60.7382C4.19031 60.8153 4.21734 60.8915 4.21734 60.9075C4.21734 60.9645 4.61171 61.7617 4.77083 62.0263C5.55915 63.3375 6.64146 64.305 8.11581 65.0164C8.83518 65.3635 9.75158 65.6565 10.6078 65.8131C10.8516 65.8577 11.0659 65.8983 11.0839 65.9032C11.1019 65.9082 11.21 66.1303 11.324 66.3969C11.7541 67.4016 12.1958 68.3521 12.7069 69.3722C12.9973 69.9517 13.229 70.4317 13.2218 70.4388C13.2062 70.4545 12.6903 70.0844 11.7905 69.4119C11.2302 68.9931 11.0539 68.8793 10.6897 68.7014C9.87869 68.305 8.97067 68.0522 7.73361 67.8783C7.21568 67.8055 6.56982 67.7447 6.54792 67.7666C6.49438 67.8201 7.06549 68.8161 7.42479 69.2958C7.70132 69.6651 8.44916 70.4232 8.78984 70.6797C9.99922 71.5903 11.3883 72.1483 13.0301 72.383C13.3492 72.4286 13.5743 72.4488 14.0903 72.478C14.2483 72.4869 14.3874 72.5003 14.3994 72.5077C14.4113 72.5151 14.5152 72.6763 14.6301 72.866C15.3973 74.1323 16.3604 75.5482 17.2642 76.7384C17.4222 76.9465 17.5458 77.1223 17.5389 77.1292C17.5235 77.1446 16.3453 76.5597 15.7561 76.2442C14.8295 75.7481 14.5345 75.6273 13.91 75.4884C13.238 75.339 12.8391 75.3001 11.8155 75.2841C10.9482 75.2706 10.2067 75.2987 10.1584 75.347C10.1368 75.3686 10.4149 75.7658 10.6555 76.057C11.9802 77.66 13.7478 78.5792 16.0045 78.8384C16.7688 78.9262 18.1908 78.8875 18.7406 78.764L18.8654 78.7359L19.251 79.1686C20.2455 80.2845 21.1296 81.1817 22.3284 82.2918C22.5959 82.5395 22.7093 82.6673 22.7641 82.7833C22.8049 82.8695 22.8383 82.9546 22.8383 82.9724C22.8383 83.0255 21.8927 82.7298 20.4686 82.2314C19.819 82.004 19.6287 81.9578 19.0777 81.8933C18.1022 81.7792 16.6915 81.9031 15.3368 82.2219L15.0666 82.2855L15.3521 82.5742C17.0338 84.2748 19.2046 85.0408 21.7817 84.8427C22.6685 84.7745 24.1224 84.459 24.2199 84.3136C24.2313 84.2964 24.2498 84.2164 24.2609 84.1357C24.272 84.055 24.2932 83.989 24.3079 83.989C24.3226 83.989 24.4627 84.0891 24.6192 84.2114C25.4915 84.8933 26.9918 85.9282 28 86.5435C28.3709 86.7698 28.5154 86.8753 28.5635 86.9549C28.5991 87.0138 28.6687 87.1141 28.7181 87.178C28.7676 87.2418 28.7996 87.3025 28.7893 87.3128C28.7593 87.3428 27.9535 87.2411 26.7673 87.0575C25.6685 86.8874 25.6657 86.8872 25.1315 86.9033C24.5385 86.9212 24.1141 86.9842 23.4363 87.1553C22.7379 87.3316 21.7976 87.6556 21.1745 87.9346L21.0241 88.0019L21.098 88.0597C21.2778 88.2003 21.8068 88.5477 22.0586 88.6904C23.35 89.4226 24.8826 89.7462 26.431 89.6135C27.6524 89.5089 28.8814 89.1604 30.0161 88.5969L30.3906 88.4109V88.1568C30.3906 88.0171 30.3976 87.9028 30.4062 87.9028C30.4148 87.9028 30.6798 88.0319 30.9952 88.1898C31.9289 88.6571 32.9761 89.1178 34.0598 89.538C34.6373 89.762 34.6257 89.7539 34.9229 90.1379C35.0192 90.2623 35.1527 90.4192 35.2195 90.4865C35.2863 90.5537 35.3417 90.625 35.3425 90.6449C35.3447 90.6982 34.937 90.7044 33.4483 90.6738C31.9633 90.6433 31.792 90.6552 31.0786 90.838C30.26 91.0477 29.1768 91.5005 28.2809 92.0074C27.7072 92.332 27.7294 92.3118 27.8597 92.3923C28.0548 92.5129 28.6282 92.7886 28.9383 92.911C29.8097 93.2551 30.6523 93.4109 31.6443 93.4115C32.9575 93.4124 34.2354 93.1031 35.558 92.4641C35.9866 92.2571 36.6097 91.8933 36.8907 91.6861L37.0767 91.5489L37.0501 91.3235C37.0354 91.1994 37.006 90.9776 36.9848 90.8304C36.9583 90.6475 36.9563 90.563 36.9783 90.5632C36.9959 90.5633 37.2993 90.6465 37.6525 90.748C38.6423 91.0324 39.9455 91.3465 41.0739 91.5726C41.2307 91.604 41.2807 91.6333 41.4561 91.7968C41.7073 92.0309 41.9591 92.2396 42.1088 92.3377C42.2365 92.4215 42.2485 92.4473 42.1701 92.47C41.9413 92.5361 40.6353 92.7767 39.8234 92.9022C39.5375 92.9464 39.2004 93.0102 39.0743 93.0439C38.0478 93.3181 36.8247 94.0336 35.5427 95.1097C34.9958 95.5687 35.0118 95.5191 35.3735 95.6352C37.6298 96.36 39.9824 95.9947 42.1694 94.5801L42.4667 94.3878L42.4751 92.1268L42.4836 89.8659L42.585 89.7397L42.6865 89.6134L42.5464 89.4171C41.9924 88.6407 40.8254 87.5098 39.6427 86.6033C39.5111 86.5024 39.3328 86.3643 39.2465 86.2964C38.9894 86.0943 38.5554 85.793 38.5213 85.793C38.4206 85.793 38.7147 86.8661 39.1873 88.2234C39.5702 89.323 40.0087 90.1356 40.6417 90.918C40.7579 91.0617 40.8465 91.1858 40.8386 91.1938C40.8228 91.2095 39.6503 90.9523 39.059 90.8035C38.3455 90.6239 36.9113 90.2185 36.89 90.1905C36.886 90.1851 36.8246 89.8849 36.7537 89.5233C36.5181 88.3223 36.4302 88.0525 36.0373 87.3228C35.4928 86.3117 34.3441 84.8015 33.2495 83.6577L33.0049 83.402L32.9829 83.5197C32.9308 83.7979 33.0738 85.237 33.2664 86.3739C33.4259 87.3151 33.793 88.3573 34.2244 89.0933C34.2866 89.1995 34.3323 89.2916 34.3259 89.298C34.3073 89.3166 33.0097 88.783 32.3368 88.48C31.7246 88.2045 30.4587 87.5855 30.4122 87.539C30.3988 87.5257 30.3747 87.2615 30.3586 86.952C30.2978 85.7842 30.2419 85.2612 30.132 84.834C29.8799 83.8541 29.2426 82.5788 28.258 81.0842C27.8139 80.4101 27.4 79.8306 27.3627 79.8306C27.3499 79.8306 27.3225 79.9166 27.3015 80.0217C27.2473 80.2945 27.2242 82.594 27.2704 83.1157C27.3572 84.0964 27.5878 84.9924 27.9807 85.8763C28.0657 86.0675 28.1293 86.23 28.1219 86.2373C28.105 86.2543 26.9302 85.4993 26.3851 85.1212C25.9661 84.8304 24.6531 83.8545 24.4605 83.6906L24.3551 83.6009L24.3918 83.3592C24.4896 82.7155 24.6117 81.4672 24.6112 81.1161C24.6101 80.3655 24.4534 79.5873 24.0784 78.47C23.9071 77.9595 23.6547 77.2736 23.5722 77.094C23.5567 77.0604 23.4701 76.8609 23.3796 76.6507C23.0941 75.9867 22.7936 75.3672 22.7619 75.3771C22.6165 75.4225 22.1413 77.829 22.0694 78.8838C22.0112 79.7369 22.1004 80.6675 22.3219 81.5201C22.3732 81.7178 22.4102 81.8946 22.404 81.9132C22.3889 81.9585 20.7569 80.3521 20.1532 79.6975C19.2968 78.7689 18.979 78.394 19.0005 78.3378C19.0447 78.2227 19.3247 77.2815 19.4252 76.9106C19.6224 76.1825 19.7155 75.7819 19.7522 75.5041C19.7944 75.1848 19.7739 74.0069 19.7202 73.6695C19.7015 73.5518 19.659 73.2808 19.6258 73.0674C19.5288 72.4449 19.3514 71.6365 19.1439 70.8717C18.9376 70.1114 18.79 69.6477 18.7572 69.6578C18.6035 69.7051 17.7548 72.0605 17.5541 72.9968C17.3972 73.7286 17.3803 73.9096 17.3822 74.8314C17.3838 75.5763 17.3931 75.7405 17.4535 76.0953C17.4918 76.3195 17.5166 76.5094 17.5088 76.5172C17.4908 76.5352 16.913 75.7563 16.4321 75.0658C16.0012 74.447 15.3326 73.4205 14.9595 72.8049L14.6949 72.3684L15.0038 71.7347C15.5472 70.62 15.9221 69.7406 16.03 69.3277C16.3241 68.2018 16.3405 66.5334 16.0786 64.3743C16.046 64.1052 16.0057 63.8025 15.9891 63.7016C15.9726 63.6007 15.9589 63.5078 15.9588 63.4952C15.958 63.3932 15.7221 63.6965 15.4771 64.1144C15.0811 64.7899 14.4555 66.0087 14.2686 66.4688C13.9588 67.2316 13.7401 68.1445 13.6679 68.976C13.6385 69.3158 13.6472 70.1715 13.6827 70.4284C13.6978 70.5369 13.6944 70.5724 13.671 70.5507C13.6172 70.5007 12.6538 68.585 12.3256 67.8753C11.9687 67.1036 11.4945 66.0229 11.4945 65.9813C11.4945 65.9653 11.5667 65.948 11.655 65.9429L11.8155 65.9337L12.0738 65.5209C12.7279 64.4755 13.4018 63.1692 13.5406 62.6773C13.6997 62.1138 13.8175 61.3873 13.8788 60.5921C13.9458 59.7219 13.9373 57.9908 13.8624 57.2653L13.8419 57.0665L13.659 57.265C13.3379 57.6134 12.3662 59.1097 11.981 59.849C11.3457 61.0681 11.0343 62.3203 11.0322 63.6634C11.0317 63.9451 11.0249 64.1755 11.017 64.1755C11.0091 64.1755 10.9289 64.1198 10.8387 64.0517L10.6747 63.928L10.4854 63.402C10.1842 62.5657 9.91985 61.7741 9.66123 60.9344C9.41754 60.1431 9.01781 58.7367 9.01781 58.6705C9.01781 58.6505 9.12923 58.5165 9.26539 58.3726C9.87597 57.7276 10.869 56.5158 11.0861 56.1509C11.591 55.3021 12.0455 53.8727 12.3666 52.1241C12.4891 51.4566 12.6309 50.5028 12.6106 50.4825C12.5299 50.4018 11.1229 51.775 10.352 52.6869C9.48814 53.7087 8.8417 55.0245 8.57061 56.3128C8.53474 56.4832 8.50994 56.5493 8.496 56.5116C8.43051 56.3342 8.02179 54.1184 7.96388 53.6267C7.94768 53.4891 7.98914 53.2191 8.19155 52.1438C8.35651 51.2673 8.45014 50.6865 8.47239 50.4016C8.58901 48.909 8.04668 46.5649 7.08393 44.4003C6.99978 44.2111 6.92086 44.0563 6.90857 44.0563C6.89625 44.0563 6.83103 44.1767 6.76364 44.3239ZM88.8736 44.4462C87.9054 46.6625 87.3985 48.8652 87.507 50.3839C87.5338 50.7584 87.6268 51.3056 88.0012 53.2904C88.0391 53.4911 88.0253 53.6314 87.887 54.4523C87.788 55.0391 87.5276 56.38 87.4861 56.5162C87.4743 56.5551 87.4363 56.4409 87.3816 56.2022C87.0951 54.9501 86.4951 53.7397 85.659 52.7272C85.3293 52.328 84.2932 51.2357 83.9427 50.9179C83.6774 50.6773 83.422 50.4773 83.38 50.4773C83.3555 50.4773 83.3598 50.5169 83.4602 51.2112C83.7761 53.3975 84.3501 55.3202 84.9708 56.2716C85.2081 56.6352 86.014 57.6107 86.6427 58.2951C86.8155 58.4831 86.9568 58.6566 86.9568 58.6806C86.9568 58.735 86.6351 59.893 86.4326 60.5675C86.1732 61.4317 85.6431 63.0173 85.3651 63.7601C85.3168 63.8894 85.2682 63.9524 85.1412 64.0504C85.0519 64.1192 84.9705 64.1755 84.9601 64.1755C84.9497 64.1755 84.9461 64.0139 84.952 63.8163C84.9891 62.5723 84.6706 61.1937 84.0658 59.9797C83.6193 59.0836 82.45 57.3055 82.1852 57.12C82.1525 57.0971 82.1256 57.0895 82.1254 57.103C82.1253 57.1166 82.111 57.3203 82.0937 57.5558C82.0583 58.0378 82.0478 59.8565 82.0781 60.2771C82.1681 61.5265 82.3112 62.354 82.551 63.0109C82.6909 63.3942 83.5155 64.9116 83.9851 65.6497L84.1658 65.9337L84.323 65.9429C84.4094 65.948 84.4801 65.9653 84.4801 65.9813C84.4801 66.0248 84.0668 66.9808 83.7472 67.6765C83.3092 68.6301 82.3214 70.5893 82.2934 70.56C82.2885 70.5549 82.2958 70.4544 82.3097 70.3367C82.3476 70.0137 82.3215 68.9779 82.2649 68.5645C82.1697 67.8684 82.0054 67.2329 81.7507 66.5758C81.4151 65.7097 80.2248 63.5329 80.0583 63.4806C80.0175 63.4678 80.0127 63.4961 79.8952 64.4364C79.7721 65.4223 79.7377 65.9119 79.7266 66.8357C79.7131 67.9566 79.7855 68.7474 79.9588 69.3735C80.0678 69.767 80.7523 71.3345 81.1034 71.9944C81.1948 72.1661 81.2696 72.3278 81.2696 72.3536C81.2696 72.4609 80.0114 74.4167 79.2822 75.4429C78.8204 76.0928 78.4847 76.5361 78.4675 76.5189C78.4597 76.5112 78.4743 76.3829 78.4998 76.2338C78.5897 75.7074 78.614 75.406 78.6142 74.8161C78.6146 73.7226 78.4924 73.032 78.0758 71.7738C77.6663 70.5371 77.3156 69.6746 77.2188 69.6665C77.1272 69.6588 76.5433 71.9136 76.3722 72.9357C76.2104 73.9016 76.1503 74.9537 76.2254 75.5041C76.2864 75.9509 76.6774 77.423 76.9777 78.3365C76.9947 78.3882 76.7326 78.7073 76.103 79.4012C75.3376 80.245 73.5643 82.0027 73.5643 81.9177C73.5643 81.9003 73.612 81.7003 73.6702 81.4731C73.8585 80.7385 73.9118 80.2869 73.9129 79.4178C73.914 78.5891 73.8981 78.4324 73.6991 77.3234C73.5093 76.2652 73.3067 75.4304 73.228 75.3818C73.1933 75.3603 73.0093 75.722 72.6991 76.4214C71.8287 78.3835 71.3627 80.0162 71.3629 81.1034C71.363 81.4718 71.4104 81.9752 71.5344 82.9227C71.5798 83.2695 71.6094 83.5729 71.6003 83.5968C71.5816 83.6453 70.8825 84.194 70.2774 84.6349C69.504 85.1984 67.8866 86.2713 67.8563 86.241C67.8502 86.2348 67.8882 86.135 67.9407 86.0191C68.223 85.3961 68.4531 84.691 68.5782 84.0654C68.7084 83.4145 68.7374 82.9954 68.7375 81.7569C68.7377 80.4742 68.6928 79.8077 68.6083 79.8369C68.5723 79.8494 68.0491 80.584 67.709 81.0995C66.7023 82.6257 66.0093 84.0438 65.8023 85.0008C65.7396 85.2911 65.6668 86.0899 65.6189 87.0131C65.5962 87.4516 65.5856 87.5203 65.535 87.5591C65.4561 87.6192 64.2133 88.2259 63.6782 88.4654C62.9251 88.8025 61.708 89.3093 61.6515 89.3093C61.6417 89.3093 61.672 89.2441 61.7187 89.1644C62.1777 88.3812 62.548 87.3452 62.7216 86.3587C62.8757 85.483 63.0468 83.749 63.0023 83.5151L62.979 83.3928L62.7347 83.6527C61.1197 85.3706 59.8997 87.1222 59.5175 88.2717C59.4592 88.4472 59.3403 88.9485 59.2532 89.3857C59.1662 89.823 59.091 90.1851 59.0861 90.1905C59.0571 90.2221 57.655 90.6178 56.8925 90.8095C56.2703 90.9659 55.1539 91.2117 55.1379 91.1957C55.1312 91.189 55.2247 91.0611 55.3456 90.9114C55.7778 90.3766 56.1816 89.7048 56.4966 88.9963C56.7511 88.4239 57.3177 86.6953 57.4346 86.135C57.4894 85.8722 57.4928 85.793 57.4496 85.793C57.3961 85.793 56.175 86.7094 55.7537 87.0657C55.2261 87.5118 55.0271 87.6928 54.5658 88.1459C53.8943 88.8055 53.4261 89.3697 53.1538 89.8475L53.0171 90.0875V92.0316C53.0171 93.5415 53.0256 93.9863 53.0553 94.0227C53.1571 94.1479 53.8004 94.5869 54.3006 94.8726C55.4002 95.5008 56.586 95.8817 57.7411 95.9779C58.6465 96.0533 59.6421 95.935 60.595 95.6387L60.9111 95.5405L60.8243 95.4497C60.675 95.2936 59.9692 94.7181 59.5746 94.4308C59.0836 94.0733 58.5357 93.7339 58.0775 93.5034C57.3411 93.1331 57.0167 93.0372 55.8913 92.8575C55.0746 92.7271 53.8554 92.4971 53.788 92.4609C53.7619 92.4468 53.8288 92.3773 53.9868 92.2544C54.1177 92.1525 54.3417 91.9644 54.4846 91.8364C54.7101 91.6344 54.7665 91.5993 54.9126 91.5701C56.049 91.3431 57.3123 91.0378 58.391 90.7298C58.7315 90.6325 59.015 90.5586 59.0209 90.5655C59.0268 90.5725 59.0071 90.7433 58.9771 90.9451C58.8955 91.4932 58.8985 91.5458 59.017 91.6334C59.343 91.8744 59.8154 92.1569 60.2942 92.3971C62.9101 93.7092 65.549 93.7603 67.8395 92.5432C68.1943 92.3547 68.2384 92.3229 68.1911 92.2902C68.1614 92.2696 67.9788 92.1632 67.7854 92.0537C66.5593 91.3599 65.355 90.8908 64.3456 90.7138C64.0034 90.6537 63.9097 90.6507 62.9544 90.6689C61.6985 90.6927 60.6601 90.6943 60.6382 90.6724C60.6292 90.6634 60.7105 90.556 60.8189 90.4337C60.9273 90.3113 61.0887 90.1125 61.1775 89.9917L61.3391 89.7721L61.8639 89.5667C62.9533 89.1403 63.938 88.7071 64.9318 88.2171C65.2653 88.0527 65.5478 87.9138 65.5597 87.9084C65.5716 87.9029 65.5854 88.0129 65.5903 88.1526L65.5992 88.4067L65.9356 88.5815C66.5195 88.8849 67.3666 89.197 68.0705 89.368C70.083 89.8568 71.91 89.691 73.5796 88.8678C74.1519 88.5857 74.9745 88.0464 74.9177 87.9907C74.9049 87.9781 74.7041 87.8904 74.4715 87.7959C73.0093 87.2018 71.7118 86.8937 70.6716 86.8937C70.3374 86.8937 70.1146 86.9169 69.5036 87.0152C68.1626 87.2309 67.1725 87.3534 67.1756 87.3033C67.1766 87.2882 67.2557 87.1741 67.3515 87.0496C67.5128 86.8398 67.5635 86.8 68.0453 86.5045C69.0593 85.8826 70.3271 85.0102 71.2208 84.3191C71.437 84.152 71.6311 84.0086 71.6522 84.0005C71.6782 83.9905 71.7019 84.0434 71.7257 84.1639L71.7607 84.3422L71.9669 84.4102C72.9029 84.7192 73.8525 84.8596 75.0014 84.8589C76.0714 84.8582 76.7373 84.7552 77.6653 84.4467C78.7359 84.0908 79.6333 83.5369 80.484 82.7067C80.8775 82.3227 80.9014 82.2929 80.8356 82.2685C80.6723 82.2079 79.5333 81.9979 79.0528 81.9397C78.3638 81.8564 77.5044 81.8296 77.0348 81.8769C76.4418 81.9365 76.1241 82.0156 75.2561 82.3194C74.0293 82.7489 73.1363 83.0254 73.1363 82.9758C73.1363 82.9603 73.1762 82.8685 73.2251 82.7718C73.2916 82.64 73.3932 82.5241 73.6302 82.3099C74.6118 81.4224 75.6909 80.3308 76.6526 79.2526L77.1123 78.7372L77.3181 78.776C77.95 78.8952 79.2222 78.9245 79.9854 78.8376C82.4646 78.555 84.3647 77.4631 85.7136 75.5458L85.8564 75.3429L85.7568 75.3232C85.5424 75.2808 83.7766 75.2667 83.3404 75.3039C82.5252 75.3733 81.7554 75.5314 81.2477 75.7335C81.1168 75.7857 80.7276 75.9777 80.3829 76.1602C79.7145 76.5141 78.6356 77.0587 78.5031 77.109C78.402 77.1475 78.3748 77.1896 78.9186 76.4657C79.6949 75.4323 80.504 74.2417 81.172 73.1497C81.3572 72.847 81.5272 72.5755 81.5497 72.5464C81.5816 72.5051 81.6548 72.4899 81.8811 72.4774C82.8756 72.4225 83.4902 72.3257 84.3119 72.0945C86.6578 71.4344 88.3914 70.0089 89.378 67.9288C89.431 67.8172 89.4479 67.753 89.4245 67.7531C89.4042 67.7531 89.1812 67.7731 88.9289 67.7975C87.4791 67.9377 86.1454 68.2651 85.2971 68.689C84.9242 68.8753 84.7322 69.0019 84.0989 69.4792C83.388 70.0148 82.794 70.4416 82.7576 70.4428C82.7436 70.4433 82.7369 70.4333 82.7427 70.4208C82.7486 70.4082 82.9749 69.9575 83.2457 69.4194C83.8138 68.2905 84.1241 67.6286 84.5569 66.6232L84.8655 65.9062L85.2517 65.8382C88.4528 65.2742 90.7979 63.4704 91.8036 60.7986L91.8811 60.5924L91.7504 60.613C91.6785 60.6243 91.5784 60.6398 91.5279 60.6473C90.3741 60.8203 88.9827 61.2486 88.0984 61.703C87.5627 61.9782 87.3989 62.1005 86.5287 62.8759C86.0561 63.2969 85.8281 63.4862 85.8142 63.469C85.8089 63.4624 85.8927 63.2093 86.0005 62.9066C86.2868 62.1027 86.679 60.8591 86.9601 59.8643C87.0956 59.385 87.2224 58.9397 87.2421 58.8747L87.2778 58.7566L87.7059 58.6131C90.6469 57.6269 92.7195 55.5855 93.4113 52.9936C93.4643 52.7952 93.5319 52.4977 93.5616 52.3324L93.6156 52.0318L93.5349 52.052C93.1075 52.1587 91.5058 52.9134 90.9164 53.2856C90.019 53.8524 89.6167 54.2277 88.9286 55.1402C88.3532 55.9031 87.843 56.5412 87.8237 56.5219C87.8161 56.5143 87.851 56.3104 87.9013 56.0688C88.0303 55.4483 88.1946 54.5444 88.2729 54.0242C88.3389 53.5862 88.342 53.5765 88.5356 53.2217C88.7905 52.7544 89.0555 52.1735 89.2461 51.6647C90.1269 49.3129 90.2107 47.0896 89.4964 45.0268C89.3641 44.6449 89.1032 44.0563 89.0661 44.0563C89.0539 44.0563 88.9673 44.2317 88.8736 44.4462ZM61.9654 53.3253C62.0896 53.3566 62.1105 53.3751 62.1647 53.5011C62.1981 53.5786 62.2598 53.7658 62.302 53.9172C62.4273 54.3673 62.4356 54.3738 62.4173 54.0089C62.408 53.8239 62.3928 53.6278 62.3835 53.5732C62.3688 53.4866 62.3751 53.4738 62.4324 53.4738C62.6243 53.4738 62.9339 53.7531 63.0704 54.0494C63.1686 54.2627 63.1958 54.5547 63.1295 54.6845C63.0904 54.7609 63.0898 54.7968 63.125 54.9415C63.1937 55.2237 63.6797 57.378 63.7769 57.831C63.7913 57.8982 63.8613 58.2078 63.9324 58.5189C64.0035 58.83 64.0731 59.1396 64.0871 59.2069C64.101 59.2742 64.1328 59.4153 64.1576 59.5205C64.2007 59.7035 64.1998 59.7171 64.1373 59.8312L64.0719 59.9506L64.1418 60.282C64.1803 60.4642 64.2994 61.0399 64.4065 61.5613C64.5136 62.0826 64.6229 62.6123 64.6492 62.7385C64.6756 62.8646 64.6972 62.9769 64.6972 62.9881C64.6972 62.9993 64.8039 63.0172 64.9342 63.0279C65.2576 63.0544 65.2903 63.0632 65.3975 63.1535C65.5121 63.2499 65.5641 63.4198 65.523 63.5634C65.4899 63.6787 65.358 63.8321 65.2588 63.8708C65.2069 63.8909 65.1859 63.9392 65.1568 64.1047C64.9813 65.1019 64.9119 65.5135 64.9116 65.5591C64.9113 65.6054 64.9427 65.6126 65.1453 65.6126C65.3768 65.6126 65.3806 65.6139 65.4904 65.7294C65.5515 65.7936 65.6196 65.9064 65.6416 65.98C65.7449 66.3246 65.909 66.6075 66.1766 66.9022C66.5055 67.2642 66.6647 67.4742 66.7754 67.6918C66.9799 68.094 67.0645 68.5027 67.0635 69.083C67.0626 69.575 67.0146 69.7493 66.8083 70.0103C66.686 70.1651 66.4482 70.3703 66.4218 70.3439C66.4133 70.3354 66.4489 70.2615 66.5009 70.1797C66.6119 70.005 66.6692 69.8223 66.7306 69.4477C66.8103 68.9613 66.7805 68.7077 66.5915 68.2646C66.4657 67.9699 66.0404 67.3143 65.9265 67.2397C65.8869 67.2137 65.7567 67.0744 65.6372 66.93C65.5177 66.7856 65.4286 66.6908 65.4392 66.7193C65.5018 66.8879 65.6796 67.6862 65.7035 67.9059C65.731 68.1593 65.7177 68.4562 65.6789 68.4562C65.6683 68.4562 65.6299 68.3319 65.5936 68.18C65.4917 67.7535 65.3812 67.5483 65.1046 67.2717C64.973 67.1402 64.7897 66.9927 64.6972 66.9439C64.5161 66.8484 64.3303 66.7123 64.3303 66.6752C64.3303 66.6626 64.3929 66.6522 64.4694 66.6522C64.5459 66.6522 64.6491 66.6313 64.6986 66.6057C64.7993 66.5536 64.9418 66.3029 64.9418 66.1779V66.0989L64.6845 66.108C64.543 66.113 64.4186 66.1084 64.4079 66.0978C64.3973 66.0872 64.4649 65.6177 64.5582 65.0544C64.6515 64.4911 64.7278 64.0158 64.7278 63.9983C64.7278 63.9727 64.4523 63.8904 64.4326 63.9102C64.4296 63.9132 64.3491 64.3835 64.2537 64.9552C64.1583 65.527 64.0764 65.9987 64.0718 66.0034C64.0672 66.0081 63.9499 65.8876 63.8111 65.7356L63.5587 65.4591L63.5343 65.2072C63.5208 65.0686 63.4944 64.7695 63.4755 64.5425C63.4567 64.3154 63.4341 64.0712 63.4253 63.9997C63.4104 63.8789 63.4144 63.8698 63.4818 63.8698C63.6335 63.8698 63.6543 63.9179 63.7304 64.4441C63.77 64.718 63.8102 64.9499 63.8198 64.9594C63.8293 64.969 63.8467 64.9238 63.8582 64.859C63.8699 64.7942 63.9251 64.5349 63.9811 64.2827C64.0371 64.0305 64.0732 63.816 64.0614 63.806C64.0495 63.796 63.8816 63.7579 63.6882 63.7213C63.2612 63.6405 62.941 63.6375 62.6945 63.712L62.511 63.7675L62.521 64.0842C62.5336 64.4883 62.6362 64.8406 62.777 64.9642C62.8933 65.0663 63.1073 65.3318 63.1073 65.374C63.1073 65.3911 63.0901 65.3982 63.069 65.3898C63.048 65.3814 62.9551 65.3454 62.8626 65.3099L62.6945 65.2453L62.9289 65.4703C63.0579 65.594 63.2299 65.7262 63.3111 65.7639C63.6215 65.908 63.7339 66.0685 63.8085 66.4742C63.8728 66.8241 63.933 67.0125 64.0199 67.1358C64.1897 67.3769 64.2176 67.477 64.2324 67.8982C64.2402 68.1222 64.2345 68.303 64.2196 68.3026C64.2048 68.3022 64.1536 68.1793 64.1058 68.0295C64.0126 67.7377 63.8608 67.4558 63.6884 67.2545C63.6297 67.1858 63.4083 67.0162 63.1964 66.8775C62.9845 66.7389 62.7677 66.5759 62.7145 66.5154C62.592 66.3758 62.4752 66.1461 62.4229 65.9417C62.3699 65.7345 62.2806 65.6667 62.0375 65.6492L61.8536 65.6359V65.5057C61.8536 65.4273 61.8354 65.3604 61.8078 65.3374C61.7482 65.288 61.7466 65.0051 61.8052 64.8649C61.829 64.8079 61.8821 64.7393 61.9231 64.7124L61.9976 64.6635L61.9088 64.2743C61.69 63.3153 60.9058 59.8268 60.7181 58.9776C60.6494 58.6665 60.5627 58.2438 60.5255 58.0383L60.4578 57.6647L60.5586 57.5185C60.6666 57.362 60.7549 57.0761 60.7497 56.8996C60.747 56.8058 60.7382 56.8199 60.6833 57.0054C60.622 57.2121 60.6079 57.231 60.2679 57.5596C59.978 57.8398 59.8883 57.9085 59.7592 57.9492C59.673 57.9764 59.4881 58.0824 59.3484 58.1848C59.2086 58.2872 59.003 58.4201 58.8916 58.4801C58.7802 58.5402 58.6376 58.6217 58.5749 58.6612C58.5122 58.7006 58.453 58.733 58.4434 58.733C58.4337 58.733 58.2948 58.8086 58.1346 58.9011C57.9743 58.9936 57.8386 59.0693 57.8328 59.0693C57.8271 59.0693 57.7033 59.1381 57.5577 59.2222C57.4121 59.3063 57.2884 59.3751 57.2829 59.3751C57.2659 59.3751 56.3151 59.9275 56.1157 60.0533C55.7231 60.3009 55.3621 60.7687 54.991 61.511C54.8787 61.7356 54.7822 61.9145 54.7765 61.9085C54.7709 61.9025 54.7919 61.7669 54.8232 61.6071C55.0963 60.2151 55.1462 59.8959 55.0807 59.9614C55.0721 59.97 55.0115 60.2509 54.946 60.5857C54.8806 60.9204 54.7955 61.3526 54.757 61.546C54.7185 61.7394 54.6855 62.0077 54.6837 62.1422C54.6818 62.2767 54.6432 62.6662 54.5978 63.0076C54.5524 63.3491 54.5156 63.6518 54.516 63.6803C54.5164 63.7089 54.5617 63.6496 54.6166 63.5487C54.6716 63.4478 54.8729 63.0763 55.064 62.7232C55.4302 62.0464 55.6609 61.6506 55.9577 61.19C56.2375 60.7559 56.8774 60.2228 57.5992 59.8225C57.7397 59.7446 57.8596 59.6808 57.8655 59.6808C57.8853 59.6808 58.5625 59.2968 58.8724 59.1099C59.7459 58.5831 60.0741 58.3804 60.1633 58.3127L60.2617 58.238L60.329 58.3767C60.385 58.4919 60.3898 58.5234 60.3569 58.563C60.3351 58.5892 60.2831 58.6106 60.2414 58.6106C60.1996 58.6106 59.8401 58.791 59.4425 59.0113C59.0449 59.2317 58.6301 59.4612 58.5208 59.5212C58.4115 59.5812 58.2808 59.653 58.2303 59.6808C58.1799 59.7086 57.9131 59.8537 57.6375 60.0034C57.0983 60.2962 57.151 60.2511 56.5652 60.9192C56.2054 61.3294 56.0093 61.6624 55.3335 63.0113C54.9676 63.7415 54.6682 64.3511 54.6682 64.3661C54.6682 64.381 54.68 64.3859 54.6945 64.3769C54.7089 64.368 54.8672 64.3584 55.0461 64.3555L55.3715 64.3503L55.4308 64.1482C55.4635 64.0371 55.5954 63.5885 55.7239 63.1512C55.8525 62.714 55.9796 62.3318 56.0063 62.302C56.0331 62.2721 56.111 62.044 56.1795 61.7949L56.304 61.3422L56.5175 61.106C56.6349 60.9762 56.7354 60.8833 56.7408 60.8995C56.7463 60.9158 56.6728 61.209 56.5776 61.551C56.4718 61.9308 56.4006 62.2501 56.3946 62.3715C56.3877 62.5123 56.3057 62.8335 56.1136 63.4723L55.8424 64.3743L56.0608 64.4049C56.2054 64.4251 56.3168 64.4612 56.3907 64.5119C56.5005 64.5871 56.5023 64.5917 56.5026 64.7947C56.5028 65.0327 56.4573 65.0692 56.4262 64.8559C56.3954 64.6446 56.3021 64.5794 56.013 64.5672L55.7884 64.5577L55.7005 64.8593C55.6522 65.0251 55.619 65.1671 55.6266 65.1747C55.6343 65.1824 55.9319 65.2071 56.288 65.2297C56.6441 65.2522 56.9383 65.2754 56.9419 65.2811C56.9455 65.2869 56.9857 65.3473 57.0314 65.4155C57.1028 65.5222 57.1139 65.569 57.1114 65.7519L57.1086 65.9643L57.0512 65.7801C57.0144 65.6616 56.9578 65.5608 56.8926 65.4977L56.7913 65.3995L56.3795 65.3827C56.153 65.3735 55.9109 65.36 55.8416 65.3528L55.7155 65.3397L55.6935 65.7666L55.6715 66.1936L55.3915 66.1973L55.1116 66.2011L55.4326 66.2563C55.7061 66.3034 55.8429 66.3082 56.3562 66.2891C56.8584 66.2704 56.9683 66.258 57.016 66.2148C57.0925 66.1456 57.1143 66.1495 57.1143 66.2323C57.1143 66.368 56.9808 66.5099 56.7816 66.5859C56.6174 66.6485 56.5199 66.6596 55.9755 66.6776L55.3562 66.6981L55.295 66.8135C55.2169 66.961 55.2394 66.9766 55.5676 67.0028C56.094 67.0447 56.5284 67.1129 56.7479 67.188C56.8737 67.231 57.1112 67.2925 57.2756 67.3246C57.449 67.3585 57.6121 67.4097 57.6639 67.4467C57.8178 67.5563 57.9626 67.7508 58.0013 67.9C58.0374 68.0394 58.0474 68.6523 58.0163 68.8175C58.0058 68.8734 58.022 68.8557 58.0674 68.762C58.1227 68.6475 58.1343 68.5678 58.1363 68.2881C58.1384 67.9804 58.1314 67.9371 58.0545 67.7804C57.9938 67.6569 57.9185 67.5683 57.7848 67.4632C57.617 67.3314 57.5679 67.3107 57.2727 67.2473C57.0931 67.2086 56.8429 67.1423 56.7168 67.0999C56.5796 67.0537 56.3156 67.003 56.0594 66.9735C55.824 66.9464 55.6111 66.9174 55.5863 66.9089C55.4332 66.8566 55.7396 66.8366 56.6982 66.8361C57.8726 66.8356 57.7706 66.8231 58.4902 67.0553C58.7851 67.1505 59.1217 67.3105 59.2474 67.4153C59.3219 67.4774 59.4363 67.7038 59.4374 67.7912C59.4379 67.8283 59.4124 67.846 59.354 67.8489C59.2715 67.853 59.2713 67.8533 59.3464 67.8671C59.3884 67.8748 59.4384 67.8939 59.4574 67.9095C59.4987 67.9434 59.5751 68.4044 59.5502 68.4693C59.5373 68.503 59.471 68.5171 59.2943 68.5237L59.0559 68.5327L59.2852 68.5633L59.5145 68.594L59.506 68.762C59.4777 69.3198 59.3199 69.4417 58.4749 69.5577C57.9023 69.6364 57.7493 69.6367 57.0837 69.5601C56.2481 69.4639 55.4263 69.3733 54.9588 69.3257C54.232 69.2517 54.0567 69.1085 54.0567 68.589V68.3339H53.5216H52.9865V68.6397V68.9454L52.6578 68.949C52.3147 68.9528 52.3452 68.9672 52.8107 69.0212L52.9865 69.0416V69.203C52.9865 69.5088 52.8693 69.7142 52.61 69.8629L52.4514 69.9539L51.7176 69.9511C51.314 69.9496 50.9494 69.9384 50.9073 69.9263C50.8325 69.9047 50.8335 69.9029 50.9532 69.8406C51.0205 69.8056 51.1088 69.7412 51.1496 69.6975C51.2131 69.6296 51.2505 69.6178 51.4095 69.6159C51.5117 69.6146 51.6572 69.6037 51.7329 69.5916C51.8571 69.5718 51.8427 69.5678 51.5843 69.5498C51.4269 69.5389 51.2922 69.524 51.2849 69.5167C51.2776 69.5094 51.2859 69.4157 51.3033 69.3085C51.3207 69.2013 51.335 68.9458 51.3351 68.7408L51.3354 68.368L51.4653 68.3577C51.5918 68.3476 51.5928 68.3467 51.5036 68.3228C51.4531 68.3093 51.3946 68.2929 51.3736 68.2865C51.3506 68.2794 51.3354 68.2211 51.3354 68.1399C51.3354 67.9543 51.2646 67.8016 51.1079 67.6493C50.9183 67.465 50.4377 67.1479 50.3124 67.1244C50.2539 67.1134 50.0783 67.1175 49.9222 67.1336C49.7661 67.1496 49.6315 67.1567 49.6231 67.1495C49.6147 67.1421 49.6391 67.1108 49.6774 67.0798C49.7851 66.9924 50.0263 66.9731 50.9685 66.9759C51.7963 66.9785 51.8483 66.982 52.0081 67.0469C52.3404 67.1818 52.5279 67.2726 52.5279 67.2985C52.5279 67.313 52.4419 67.3264 52.3368 67.3283L52.1457 67.3316L52.4208 67.3715C52.5722 67.3934 52.7007 67.4068 52.7064 67.4011C52.7121 67.3955 52.6855 67.3487 52.6475 67.2972C52.5558 67.1733 52.3791 67.059 52.2381 67.0325C52.1489 67.0158 52.1153 66.9904 52.0839 66.9158L52.0438 66.8204L50.8182 66.8318C50.1441 66.838 49.5925 66.8367 49.5925 66.8288C49.5925 66.821 49.8143 66.7613 50.0852 66.6963C50.3562 66.6313 50.5642 66.5735 50.5475 66.5679C50.5308 66.5624 50.2305 66.6066 49.8801 66.6662C49.5296 66.7258 49.1977 66.7745 49.1425 66.7745C48.9702 66.7745 48.8379 66.5789 48.9887 66.5472C49.0265 66.5392 49.3326 66.4683 49.669 66.3895C50.0053 66.3108 50.3699 66.2274 50.4793 66.2041C50.5886 66.1809 50.6918 66.1552 50.7086 66.147C50.7443 66.1297 50.3807 66.1599 50.2576 66.1844C50.1755 66.2008 50.1735 66.1978 50.1735 66.0598C50.1735 65.982 50.1677 65.9184 50.1607 65.9184C50.1537 65.9184 49.9921 65.9747 49.8015 66.0435C49.3711 66.1989 49.1899 66.2552 49.1665 66.2407C49.1565 66.2345 49.1534 66.1658 49.1596 66.0881L49.1708 65.9467L49.3686 65.857C49.5229 65.787 49.5946 65.7709 49.6942 65.7837C49.7783 65.7944 49.8793 65.7801 49.99 65.7417L50.1582 65.6833L50.1666 65.201C50.1745 64.75 50.1716 64.72 50.1208 64.7388C49.6571 64.9099 49.2326 65.0933 49.1594 65.1542C49.073 65.226 49.0636 65.2556 49.0095 65.6261C48.9778 65.8434 48.9457 66.036 48.9382 66.0539C48.9308 66.0719 48.9238 65.8664 48.9227 65.5973C48.9214 65.2604 48.9328 65.0844 48.9594 65.0318C48.987 64.9771 49.0865 64.917 49.3106 64.8198C49.5742 64.7054 49.6231 64.6734 49.6231 64.6153C49.6231 64.4817 49.6796 64.4028 49.9207 64.1995L50.1642 63.9941L50.1812 63.3858C50.2048 62.5353 50.1988 62.5454 50.8997 62.1827L51.1519 62.0521V61.8945C51.1519 61.7062 51.1942 61.6606 51.3562 61.6739C51.4678 61.6831 51.4734 61.6888 51.4827 61.8023C51.4881 61.8675 51.4778 61.9356 51.4598 61.9536C51.4418 61.9716 51.4271 61.9951 51.4271 62.0059C51.4271 62.0167 51.7058 62.0347 52.0463 62.046C52.3868 62.0572 52.7515 62.075 52.8566 62.0856L53.0477 62.1049V61.982C53.0477 61.8277 53.099 61.7843 53.2671 61.7964L53.3993 61.8059L53.4087 61.9535C53.4139 62.0347 53.4036 62.1186 53.3859 62.1399C53.3623 62.1684 53.3708 62.1943 53.4175 62.2366C53.4526 62.2684 53.4943 62.3185 53.51 62.3479C53.539 62.402 53.6151 63.7376 53.6495 64.7947C53.6598 65.11 53.6784 65.368 53.691 65.368C53.7367 65.368 53.7575 64.2967 53.7246 63.637C53.7062 63.2689 53.6828 62.7545 53.6725 62.4938L53.6539 62.0199L53.8271 61.5307C54.7511 58.9217 54.7205 58.9939 55.026 58.6977C55.3482 58.3852 55.4679 58.327 56.4307 58.0138C57.275 57.7391 57.3858 57.6941 58.3108 57.249C58.8515 56.9889 59.3039 56.7761 59.3163 56.7761C59.3286 56.7761 59.4365 56.6884 59.5559 56.5813C59.8034 56.3594 59.8765 56.3367 60.2436 56.3678C60.5109 56.3904 60.4744 56.4432 60.5533 55.9199C60.58 55.7434 60.6164 55.5026 60.6342 55.3848C60.652 55.2671 60.6791 55.1048 60.6945 55.0241C60.7564 54.698 60.7507 54.6965 60.452 54.9615C60.3033 55.0935 60.0568 55.3115 59.9041 55.446C59.6797 55.6439 59.6196 55.7152 59.5899 55.8192C59.5559 55.9384 59.4826 56.0047 58.5927 56.7212L57.6322 57.4946L56.7159 57.8007C56.2119 57.9691 55.7995 58.0996 55.7995 58.0906C55.7995 58.0817 55.9268 57.949 56.0824 57.7957C56.3288 57.5529 56.3823 57.5145 56.4983 57.4973C56.6035 57.4817 56.6743 57.4394 56.8347 57.2962C56.9464 57.1964 57.4894 56.729 58.0413 56.2575C58.9646 55.4687 59.0539 55.4001 59.1584 55.4001C59.2526 55.4001 59.3116 55.3675 59.504 55.209C59.6316 55.1039 59.9848 54.815 60.2889 54.567L60.8417 54.116L60.8508 53.926L60.8599 53.7361L61.1198 53.5595C61.5046 53.2981 61.6726 53.2516 61.9654 53.3253ZM62.2677 55.3888C62.2461 55.5604 62.2051 55.8094 62.155 56.0741C62.1326 56.1921 62.1273 56.3935 62.1402 56.6321C62.1649 57.0879 62.2125 58.0542 62.2496 58.8553C62.2648 59.1832 62.2921 59.6854 62.3102 59.9713C62.3283 60.2572 62.3716 61.0895 62.4064 61.8209C62.4412 62.5523 62.4731 63.1541 62.4773 63.1583C62.4815 63.1625 62.5596 63.1451 62.6508 63.1198C62.7421 63.0945 62.9516 63.0651 63.1164 63.0545C63.3615 63.0387 63.413 63.027 63.399 62.9906C63.3895 62.966 63.3476 62.5862 63.3057 62.1466C63.2638 61.7069 63.2221 61.2991 63.213 61.2402C63.2039 61.1814 63.1829 60.9818 63.1663 60.7969C63.108 60.1467 63.0787 59.845 63.0326 59.4209C62.9781 58.9179 62.978 58.9164 63.0086 58.9164C63.0304 58.9164 63.0604 59.0301 63.1415 59.4209C63.1589 59.505 63.1928 59.6357 63.2168 59.7114C63.2408 59.7871 63.2604 59.8745 63.2603 59.9057C63.2602 59.937 63.2945 59.9895 63.3366 60.0226C63.3961 60.0694 63.4131 60.1111 63.4136 60.2105C63.414 60.2807 63.427 60.4276 63.4426 60.537C63.4581 60.6463 63.4788 60.8646 63.4883 61.0223C63.4979 61.1799 63.5123 61.3195 63.5204 61.3325C63.5284 61.3455 63.5488 61.533 63.5658 61.7492C63.6755 63.1536 63.6535 63.0442 63.8268 63.0442C63.9003 63.0442 63.9968 63.0277 64.041 63.0075C64.1079 62.9771 64.1193 62.955 64.1084 62.8776C64.0928 62.7675 63.8875 61.7477 63.8389 61.5392C63.8204 61.4599 63.8005 61.3636 63.7945 61.3252C63.7886 61.2869 63.7302 60.9954 63.6646 60.6775C63.5434 60.089 63.5438 60.09 63.3467 59.8755C63.3138 59.8397 63.2666 59.7159 63.2418 59.6003C63.217 59.4849 63.182 59.3215 63.1639 59.2375C63.1459 59.1534 63.1204 59.0295 63.1072 58.9623C63.0941 58.895 63.0391 58.6336 62.9851 58.3813C62.931 58.1291 62.8733 57.8539 62.8567 57.7698C62.7899 57.4299 62.7743 57.355 62.6816 56.929C62.5513 56.3302 62.5237 56.2007 62.4955 56.0575C62.4109 55.6271 62.3321 55.2894 62.3111 55.2665C62.2976 55.2519 62.2781 55.3069 62.2677 55.3888ZM40.6038 56.7073C40.7127 56.8376 40.9238 57.0956 41.0729 57.2806C41.4819 57.788 41.4247 57.7544 41.8814 57.7548L42.2695 57.7552L42.6158 58.1218L42.962 58.4883H43.2318H43.5015L43.9175 58.8613C44.1462 59.0665 44.3334 59.2453 44.3334 59.2588C44.3334 59.2723 42.9734 59.2833 41.3111 59.2833H38.2888L38.0134 58.7116L37.738 58.14L37.8553 57.8515C37.9199 57.6929 37.9883 57.5442 38.0074 57.5212C38.0332 57.4902 38.138 57.4789 38.413 57.4777L38.7838 57.476L39.1115 56.9732L39.4391 56.4703H39.9224H40.4057L40.6038 56.7073ZM54.6782 59.6387C54.619 59.7291 54.6134 59.9053 54.6677 59.9707C54.7062 60.0171 54.6912 60.1076 54.472 61.1485C54.3086 61.9245 54.2933 61.9839 54.2353 62.0658C54.1782 62.1464 54.1158 62.4661 54.1219 62.6467C54.1253 62.7491 54.1266 62.7478 54.1511 62.6161C54.1652 62.5405 54.1864 62.4098 54.1981 62.3257C54.2098 62.2416 54.2504 62.1246 54.2882 62.0658C54.326 62.0069 54.3662 61.8968 54.3775 61.8212C54.3889 61.7455 54.4098 61.6354 54.424 61.5765C54.4382 61.5177 54.4662 61.387 54.4863 61.2861C54.5063 61.1852 54.5405 61.0269 54.5624 60.9344C54.5842 60.842 54.6181 60.6837 54.6376 60.5828C54.6572 60.4819 54.6927 60.314 54.7165 60.2096C54.7714 59.9699 54.771 59.9254 54.7141 59.9254C54.6833 59.9254 54.6682 59.8946 54.6682 59.8317C54.6682 59.6747 54.7161 59.6197 54.8527 59.6197C54.9194 59.6197 54.974 59.6059 54.974 59.5891C54.974 59.5723 54.9192 59.5585 54.8524 59.5585C54.7549 59.5585 54.7203 59.5744 54.6782 59.6387ZM45.3966 59.633C45.4138 59.6502 45.9874 61.034 46.1361 61.417C46.2172 61.6261 46.2589 61.773 46.2419 61.7899C46.2141 61.8176 44.4399 62.2647 41.765 62.9183C40.9998 63.1052 39.9266 63.3674 39.3801 63.501C38.3571 63.7509 37.763 63.8942 37.0716 64.0576C36.8529 64.1092 36.5655 64.1776 36.4328 64.2094C36.1469 64.278 36.1963 64.3168 35.9213 63.8086C35.4898 63.0112 33.8924 60.4524 33.7101 60.2664C33.6312 60.1861 33.5324 60.1795 30.62 60.0608C29.9136 60.032 29.3048 59.997 29.267 59.983C29.2073 59.9609 29.1982 59.9356 29.1982 59.7937C29.1982 59.7036 29.2039 59.6241 29.2109 59.6171C29.2264 59.6016 45.381 59.6175 45.3966 59.633ZM34.0521 61.9083L34.6102 62.759L34.61 62.9857C34.6099 63.1104 34.6008 63.3483 34.5899 63.5144L34.5699 63.8163L34.3836 63.7895C34.2812 63.7748 33.9841 63.7631 33.7234 63.7636C33.2081 63.7645 32.9882 63.8058 32.5031 63.9929C31.5738 64.3512 30.8033 65.2541 30.5539 66.2769L30.4698 66.6216H29.834H29.1982V64.6495V62.6773H30.2804H31.3627L31.6441 62.0123C31.7989 61.6465 31.9534 61.2819 31.9874 61.202L32.0493 61.0568L32.7717 61.0571L33.4941 61.0575L34.0521 61.9083ZM32.2352 61.4153C32.2085 61.4788 32.1146 61.7181 32.0265 61.9472L31.8664 62.3637L32.0503 62.3829C32.2879 62.4077 33.7798 62.4022 33.8649 62.3761C33.9254 62.3576 33.9089 62.3212 33.6191 61.8364L33.3083 61.3167L32.7961 61.3083L32.2839 61.2999L32.2352 61.4153ZM51.5829 62.3607C51.5119 62.4104 51.5113 62.4159 51.53 62.8117C51.5404 63.0321 51.5622 63.3569 51.5784 63.5334C51.5946 63.71 51.6085 64.0505 51.6092 64.2902C51.61 64.5299 51.614 64.7266 51.6182 64.7275C51.6468 64.7333 52.3754 64.7913 52.7419 64.8169C52.9857 64.834 53.2369 64.8561 53.2999 64.866L53.4146 64.8842L53.4148 64.7057C53.4151 64.3261 53.3517 63.108 53.3186 62.8608C53.2612 62.431 53.2108 62.3925 52.6402 62.3438C52.0513 62.2935 51.6702 62.2996 51.5829 62.3607ZM50.8721 62.5334C50.3976 62.7893 50.4467 62.62 50.456 63.9707L50.464 65.1318L50.8156 65.3443C51.4247 65.7123 51.4851 65.7347 51.9671 65.7702C52.1986 65.7873 52.597 65.7967 52.8523 65.7911C53.4451 65.7779 53.4452 65.7779 53.4452 65.398V65.1318L53.0553 65.0954C52.3624 65.0306 52.0275 65.0032 51.8246 64.9944L51.6259 64.9858L51.6046 65.2425C51.5929 65.3837 51.5721 65.5105 51.5583 65.5242C51.5446 65.5379 51.4755 65.5198 51.4046 65.4838L51.2759 65.4184L51.2674 65.0324L51.2589 64.6463L50.999 64.6868C50.8561 64.709 50.6876 64.7356 50.6245 64.7459L50.5098 64.7645V64.6519C50.5098 64.5186 50.5421 64.5014 51.0033 64.3887L51.298 64.3168L51.2831 63.6117C51.2653 62.7703 51.2393 62.3949 51.1978 62.383C51.181 62.3782 51.0344 62.4459 50.8721 62.5334ZM43.5079 63.5218V63.9958L43.2862 63.971C43.1643 63.9574 42.7962 63.9475 42.4683 63.949C41.9126 63.9516 41.8535 63.9574 41.5999 64.0343C40.8716 64.2551 40.2597 64.6898 39.9119 65.2335C39.8538 65.3243 39.7929 65.3986 39.7766 65.3986C39.7598 65.3986 39.747 65.2861 39.747 65.1387V64.8788H39.0761C38.6809 64.8788 38.3978 64.8667 38.3871 64.8495C38.3578 64.8021 38.4558 64.2599 38.4984 64.2336C38.5425 64.2063 40.187 63.7993 41.5816 63.4704C42.0945 63.3495 42.7274 63.1993 42.9881 63.1366C43.2487 63.074 43.4723 63.0284 43.4849 63.0353C43.4975 63.0422 43.5079 63.2611 43.5079 63.5218ZM42.809 64.5434C43.4528 64.6074 43.9837 64.8641 44.4283 65.3263C45.3444 66.2788 45.4264 67.7301 44.6236 68.7851C44.3133 69.1929 43.7653 69.5658 43.2632 69.7107C42.9409 69.8038 42.3235 69.8274 41.988 69.7594C41.1919 69.5981 40.5138 69.0573 40.1432 68.2881C39.9602 67.9085 39.8998 67.6255 39.9001 67.1504C39.9005 66.3961 40.1248 65.8642 40.6842 65.2905C40.7995 65.1723 40.9601 65.03 41.0409 64.9743C41.3462 64.7643 41.8453 64.5775 42.1931 64.5431C42.3192 64.5307 42.4381 64.5185 42.4574 64.5162C42.4766 64.5138 42.6348 64.526 42.809 64.5434ZM34.4642 64.5858C34.9516 64.679 35.3256 64.8891 35.7451 65.3055C36.3193 65.8755 36.5717 66.5225 36.5267 67.3096C36.4468 68.7114 35.3004 69.8016 33.9063 69.8016C33.3479 69.8016 32.8794 69.665 32.4223 69.369C31.9008 69.0312 31.4627 68.4217 31.3231 67.8396C31.2561 67.5599 31.2321 67.017 31.2748 66.7447C31.4387 65.6993 32.3141 64.7747 33.3282 64.5757C33.5481 64.5326 34.2172 64.5385 34.4642 64.5858ZM50.0818 64.9501C50.0818 65.0056 50.0569 65.029 49.9697 65.0558C49.9081 65.0747 49.8461 65.0831 49.8321 65.0744C49.7756 65.0395 49.8122 64.9651 49.9059 64.9244C50.0463 64.8634 50.0818 64.8686 50.0818 64.9501ZM39.1785 65.3364C39.2242 65.3538 39.2656 65.4008 39.2795 65.451C39.2924 65.4979 39.3028 65.9146 39.3026 66.377C39.3022 67.2857 39.2943 67.3355 39.1422 67.378C39.0965 67.3909 38.6497 67.401 38.1495 67.4006C37.2473 67.3998 37.2394 67.3993 37.171 67.331C37.1035 67.2635 37.1019 67.2461 37.093 66.445C37.083 65.5378 37.0973 65.403 37.2105 65.3458C37.3031 65.2989 39.0579 65.2905 39.1785 65.3364ZM61.3194 65.7156C61.3898 65.7891 61.5262 65.9991 61.6225 66.1824C61.7188 66.3656 61.8481 66.587 61.9097 66.6743C62.2877 67.2097 62.4107 67.4008 62.5354 67.6463C62.7108 67.9917 62.8228 68.3241 62.8643 68.6225C62.9212 69.0316 62.8205 69.7412 62.6618 70.0498C62.6392 70.0938 62.571 70.1949 62.5103 70.2744C62.4495 70.354 62.4075 70.4269 62.417 70.4363C62.4265 70.4458 62.5685 70.4517 62.7325 70.4494C62.8966 70.4472 63.1703 70.459 63.3407 70.4758C63.5111 70.4925 64.0238 70.5259 64.4799 70.55C64.936 70.574 65.3316 70.6063 65.3592 70.6218C65.4161 70.6536 65.1499 70.687 64.2233 70.7644C63.9038 70.7911 63.4841 70.8263 63.2907 70.8426C61.7891 70.9691 61.7961 70.9689 61.2845 70.9177C60.7455 70.8639 60.7037 70.8562 60.5101 70.7738L60.3744 70.7161L60.6252 70.4853C60.9211 70.213 61.1047 69.9824 61.2414 69.7113C61.351 69.4942 61.5573 68.9446 61.5369 68.9243C61.5299 68.9173 61.46 69.0321 61.3815 69.1795C61.0856 69.7358 60.6931 70.1837 60.2346 70.4885C60.0578 70.6061 60.0032 70.6271 59.8751 70.6271C59.5135 70.6271 58.6479 70.4546 58.5458 70.3621C58.4105 70.2397 58.5156 70.1418 59.0712 69.8728C59.4991 69.6656 59.5931 69.6284 59.7924 69.587C60.1919 69.504 60.5933 69.083 60.7668 68.5648C60.9266 68.0874 60.9529 67.4586 60.8459 66.6675C60.7459 65.9276 60.7704 65.7331 60.9767 65.6314C61.1262 65.5576 61.181 65.5711 61.3194 65.7156ZM33.5859 65.7094C33.2387 65.7747 32.8621 66.0277 32.6472 66.34C32.4759 66.589 32.4262 66.7789 32.425 67.1889C32.424 67.5558 32.4244 67.5584 32.5419 67.7961C32.9176 68.5561 33.7913 68.8665 34.5337 68.5037C34.8051 68.371 34.9706 68.229 35.1275 67.994C35.5291 67.3926 35.435 66.572 34.9084 66.0844C34.529 65.7333 34.1023 65.6122 33.5859 65.7094ZM42.2042 65.7055C42.0404 65.738 41.7231 65.8975 41.5614 66.0287C41.0671 66.43 40.8999 67.2246 41.1867 67.8098C41.3158 68.0731 41.6233 68.3843 41.8684 68.4995C42.1556 68.6346 42.467 68.686 42.7431 68.644C43.5991 68.5137 44.1692 67.7007 43.9939 66.8601C43.8263 66.0564 43.0292 65.5422 42.2042 65.7055ZM34.2424 66.4322C34.7598 66.6904 34.8524 67.3662 34.4209 67.7355C33.9315 68.1545 33.1788 67.8743 33.0949 67.2418C33.0492 66.8976 33.2875 66.4944 33.5944 66.3964C33.8951 66.3005 33.9888 66.3056 34.2424 66.4322ZM42.8352 66.3967C42.9789 66.4563 43.1961 66.6699 43.2662 66.8204C43.3023 66.898 43.3233 67.0129 43.3237 67.1348C43.3249 67.471 43.1827 67.6985 42.8772 67.8489C42.6965 67.9378 42.6649 67.9438 42.4656 67.9271C41.8711 67.8773 41.5601 67.3166 41.8288 66.779C42.023 66.3902 42.4389 66.2323 42.8352 66.3967ZM33.7022 66.8632C33.3975 67.0543 33.5964 67.5314 33.9528 67.4645C34.1271 67.4318 34.2127 67.3278 34.2127 67.1486C34.2127 67.0247 34.198 66.9859 34.1244 66.9154C34.0061 66.8021 33.8336 66.7807 33.7022 66.8632ZM42.3884 66.8351C42.3529 66.8494 42.2944 66.8986 42.2584 66.9443C42.0975 67.1489 42.2676 67.4778 42.5344 67.4778C42.6456 67.4778 42.7979 67.3842 42.8359 67.2927C42.9216 67.0858 42.7579 66.8032 42.5547 66.807C42.4988 66.8081 42.4239 66.8207 42.3884 66.8351ZM50.3964 67.2375C50.747 67.4158 51.134 67.7377 51.2168 67.9199C51.2626 68.0208 51.2729 68.1218 51.273 68.4715C51.2732 68.9671 51.23 69.4376 51.1749 69.5397C51.1235 69.6351 50.9774 69.7537 50.841 69.8107L50.7294 69.8573L50.1839 69.5494C49.1888 68.9876 49.1565 68.9669 49.0601 68.8299C48.974 68.7073 48.9684 68.6806 48.9561 68.3372C48.9387 67.8489 48.983 67.7119 49.2367 67.4697C49.4374 67.278 49.5262 67.2414 49.883 67.2032C50.2271 67.1664 50.2611 67.1687 50.3964 67.2375ZM49.9925 67.4247C49.849 67.4979 49.8882 67.5291 50.1495 67.5499C50.2889 67.5609 50.4372 67.5778 50.4793 67.5873C50.5291 67.5987 50.4977 67.5667 50.3889 67.4954C50.2132 67.3801 50.1143 67.3625 49.9925 67.4247ZM51.0017 68.1352C51.0049 68.1931 51.0558 68.2906 51.0576 68.2422C51.0585 68.217 51.0459 68.1757 51.0296 68.1505C51.0133 68.1252 51.0007 68.1184 51.0017 68.1352ZM51.0528 68.632C51.0349 69.0174 51.0211 69.0601 50.8951 69.1185L50.8003 69.1625L50.892 69.1437C51.0491 69.1115 51.0643 69.0742 51.0827 68.6741C51.0921 68.4702 51.0926 68.3033 51.0839 68.3033C51.0752 68.3033 51.0612 68.4513 51.0528 68.632ZM55.983 68.4553C56.0755 68.4696 56.3782 68.4911 56.6557 68.5032C57.0469 68.5203 57.1525 68.517 57.126 68.4886C57.1022 68.4632 56.8965 68.4485 56.4533 68.4407C56.0321 68.4332 55.8721 68.4382 55.983 68.4553ZM56.4722 69.1574C56.5647 69.1716 56.7766 69.1919 56.9432 69.2025C57.1098 69.2131 57.2783 69.2299 57.3177 69.2398C57.3571 69.2497 57.4135 69.2485 57.4429 69.2372C57.5636 69.1907 57.3874 69.164 56.854 69.1481C56.5052 69.1376 56.3656 69.1411 56.4722 69.1574ZM50.2499 69.2376C50.7554 69.4779 50.9279 69.5384 50.9432 69.4805C50.9476 69.4637 50.7797 69.392 50.57 69.3212C50.1628 69.1837 50.1045 69.1684 50.2499 69.2376ZM42.9786 90.0627C42.967 90.0744 42.9575 91.1135 42.9575 92.372V94.6601H43.4467H43.9359V93.6144C43.9359 93.0037 43.9472 92.5808 43.9631 92.5978C43.978 92.6137 44.1257 93.0843 44.2914 93.6435L44.5925 94.6601H45.1051H45.6176V92.3516V90.0431H45.1288H44.64L44.6319 91.0751L44.6239 92.107L44.2862 91.0827L43.9486 90.0584L43.4742 90.05C43.2132 90.0454 42.9902 90.0511 42.9786 90.0627ZM45.954 90.5017V90.9604H46.3056H46.6572V92.8103V94.6601H47.2382H47.8191V92.8103V90.9604H48.186H48.5529V90.5017V90.0431H47.2535H45.954V90.5017ZM48.8281 92.3516V94.6601H49.3479H49.8677L49.8698 93.1542C49.8711 92.2394 49.8826 91.6724 49.8993 91.7095C49.9144 91.7431 50.0101 92.3761 50.1121 93.116C50.2141 93.856 50.3056 94.5061 50.3154 94.5608L50.3332 94.6601H50.692H51.0508L51.0986 94.3009C51.1249 94.1032 51.2119 93.4256 51.292 92.795C51.3721 92.1643 51.449 91.6353 51.463 91.6193C51.4769 91.6034 51.4883 92.281 51.4883 93.1252V94.6601H52.0081H52.5279V92.3511V90.0421L51.7558 90.0502L50.9838 90.0584L50.845 91.1042C50.7687 91.6794 50.6965 92.1598 50.6845 92.1718C50.6725 92.1838 50.6627 92.1725 50.6627 92.1466C50.6627 92.09 50.3956 90.2471 50.37 90.1272L50.3521 90.0431H49.5901H48.8281V92.3516Z" fill="#0070E0"/>
<path d="M113.148 27V15.3636H115.256V20.2898H120.648V15.3636H122.761V27H120.648V22.0568H115.256V27H113.148ZM125.054 27V15.3636H132.622V17.1307H127.162V20.2898H132.23V22.0568H127.162V25.233H132.668V27H125.054ZM142.256 15.3636V17.1307H136.881V27H134.773V15.3636H142.256ZM153.92 21.1818C153.92 22.4356 153.686 23.5095 153.216 24.4034C152.75 25.2936 152.114 25.9754 151.307 26.4489C150.504 26.9223 149.593 27.1591 148.574 27.1591C147.555 27.1591 146.642 26.9223 145.835 26.4489C145.032 25.9716 144.396 25.2879 143.926 24.3977C143.46 23.5038 143.227 22.4318 143.227 21.1818C143.227 19.928 143.46 18.8561 143.926 17.9659C144.396 17.072 145.032 16.3883 145.835 15.9148C146.642 15.4413 147.555 15.2045 148.574 15.2045C149.593 15.2045 150.504 15.4413 151.307 15.9148C152.114 16.3883 152.75 17.072 153.216 17.9659C153.686 18.8561 153.92 19.928 153.92 21.1818ZM151.801 21.1818C151.801 20.2992 151.663 19.5549 151.386 18.9489C151.114 18.339 150.735 17.8788 150.25 17.5682C149.765 17.2538 149.206 17.0966 148.574 17.0966C147.941 17.0966 147.383 17.2538 146.898 17.5682C146.413 17.8788 146.032 18.339 145.756 18.9489C145.483 19.5549 145.347 20.2992 145.347 21.1818C145.347 22.0644 145.483 22.8106 145.756 23.4205C146.032 24.0265 146.413 24.4867 146.898 24.8011C147.383 25.1117 147.941 25.267 148.574 25.267C149.206 25.267 149.765 25.1117 150.25 24.8011C150.735 24.4867 151.114 24.0265 151.386 23.4205C151.663 22.8106 151.801 22.0644 151.801 21.1818ZM165.874 19.2898H163.749C163.688 18.9413 163.576 18.6326 163.413 18.3636C163.25 18.0909 163.048 17.8598 162.805 17.6705C162.563 17.4811 162.286 17.339 161.976 17.2443C161.669 17.1458 161.338 17.0966 160.982 17.0966C160.349 17.0966 159.788 17.2557 159.3 17.5739C158.811 17.8883 158.429 18.3504 158.152 18.9602C157.875 19.5663 157.737 20.3068 157.737 21.1818C157.737 22.072 157.875 22.822 158.152 23.4318C158.432 24.0379 158.815 24.4962 159.3 24.8068C159.788 25.1136 160.347 25.267 160.976 25.267C161.324 25.267 161.65 25.2216 161.953 25.1307C162.26 25.036 162.535 24.8977 162.777 24.7159C163.023 24.5341 163.23 24.3106 163.396 24.0455C163.567 23.7803 163.684 23.4773 163.749 23.1364L165.874 23.1477C165.794 23.7008 165.622 24.2197 165.357 24.7045C165.095 25.1894 164.752 25.6174 164.328 25.9886C163.904 26.3561 163.408 26.6439 162.839 26.8523C162.271 27.0568 161.641 27.1591 160.947 27.1591C159.925 27.1591 159.012 26.9223 158.209 26.4489C157.406 25.9754 156.773 25.2917 156.311 24.3977C155.849 23.5038 155.618 22.4318 155.618 21.1818C155.618 19.928 155.851 18.8561 156.317 17.9659C156.783 17.072 157.417 16.3883 158.22 15.9148C159.023 15.4413 159.932 15.2045 160.947 15.2045C161.595 15.2045 162.197 15.2955 162.754 15.4773C163.311 15.6591 163.807 15.9261 164.243 16.2784C164.679 16.6269 165.036 17.0549 165.317 17.5625C165.601 18.0663 165.786 18.642 165.874 19.2898ZM168.844 27.1591V25.3864H169.509C169.808 25.3864 170.054 25.3428 170.247 25.2557C170.44 25.1686 170.596 25.0436 170.713 24.8807C170.834 24.7178 170.935 24.5284 171.014 24.3125L171.168 23.9205L167.009 15.3636H169.213L172.111 21.5909L174.616 15.3636H176.787L172.776 24.8523C172.59 25.2614 172.376 25.642 172.134 25.9943C171.891 26.3428 171.575 26.625 171.185 26.8409C170.798 27.053 170.295 27.1591 169.673 27.1591H168.844ZM177.533 29.8068V25.2784H178.311C178.572 25.0701 178.817 24.7765 179.044 24.3977C179.271 24.0189 179.464 23.5 179.624 22.8409C179.783 22.1818 179.893 21.3295 179.953 20.2841L180.26 15.3636H187.697V25.2784H188.993V29.7955H186.97V27H179.555V29.8068H177.533ZM180.766 25.2784H185.675V17.1307H182.158L181.976 20.2841C181.927 21.0758 181.847 21.7841 181.737 22.4091C181.627 23.0341 181.489 23.5852 181.322 24.0625C181.156 24.536 180.97 24.9413 180.766 25.2784ZM192.205 27H189.955L194.051 15.3636H196.653L200.756 27H198.506L195.398 17.75H195.307L192.205 27ZM192.278 22.4375H198.415V24.1307H192.278V22.4375ZM202.288 27V15.3636H206.652C207.546 15.3636 208.296 15.5303 208.902 15.8636C209.512 16.197 209.972 16.6553 210.283 17.2386C210.597 17.8182 210.754 18.4773 210.754 19.2159C210.754 19.9621 210.597 20.625 210.283 21.2045C209.968 21.7841 209.504 22.2405 208.891 22.5739C208.277 22.9034 207.521 23.0682 206.624 23.0682H203.732V21.3352H206.339C206.862 21.3352 207.29 21.2443 207.624 21.0625C207.957 20.8807 208.203 20.6307 208.362 20.3125C208.525 19.9943 208.607 19.6288 208.607 19.2159C208.607 18.803 208.525 18.4394 208.362 18.125C208.203 17.8106 207.955 17.5663 207.618 17.392C207.285 17.214 206.855 17.125 206.328 17.125H204.396V27H202.288ZM222.545 19.2898H220.42C220.36 18.9413 220.248 18.6326 220.085 18.3636C219.922 18.0909 219.72 17.8598 219.477 17.6705C219.235 17.4811 218.958 17.339 218.648 17.2443C218.341 17.1458 218.009 17.0966 217.653 17.0966C217.021 17.0966 216.46 17.2557 215.972 17.5739C215.483 17.8883 215.1 18.3504 214.824 18.9602C214.547 19.5663 214.409 20.3068 214.409 21.1818C214.409 22.072 214.547 22.822 214.824 23.4318C215.104 24.0379 215.487 24.4962 215.972 24.8068C216.46 25.1136 217.019 25.267 217.648 25.267C217.996 25.267 218.322 25.2216 218.625 25.1307C218.932 25.036 219.206 24.8977 219.449 24.7159C219.695 24.5341 219.902 24.3106 220.068 24.0455C220.239 23.7803 220.356 23.4773 220.42 23.1364L222.545 23.1477C222.466 23.7008 222.294 24.2197 222.028 24.7045C221.767 25.1894 221.424 25.6174 221 25.9886C220.576 26.3561 220.08 26.6439 219.511 26.8523C218.943 27.0568 218.313 27.1591 217.619 27.1591C216.597 27.1591 215.684 26.9223 214.881 26.4489C214.078 25.9754 213.445 25.2917 212.983 24.3977C212.521 23.5038 212.29 22.4318 212.29 21.1818C212.29 19.928 212.523 18.8561 212.989 17.9659C213.455 17.072 214.089 16.3883 214.892 15.9148C215.695 15.4413 216.604 15.2045 217.619 15.2045C218.267 15.2045 218.869 15.2955 219.426 15.4773C219.983 15.6591 220.479 15.9261 220.915 16.2784C221.35 16.6269 221.708 17.0549 221.989 17.5625C222.273 18.0663 222.458 18.642 222.545 19.2898ZM223.964 17.1307V15.3636H233.249V17.1307H229.652V27H227.561V17.1307H223.964ZM235.038 27V15.3636H239.493C240.334 15.3636 241.033 15.4962 241.589 15.7614C242.15 16.0227 242.569 16.3807 242.845 16.8352C243.125 17.2898 243.266 17.8049 243.266 18.3807C243.266 18.8542 243.175 19.2595 242.993 19.5966C242.811 19.9299 242.567 20.2008 242.26 20.4091C241.953 20.6174 241.61 20.767 241.232 20.858V20.9716C241.644 20.9943 242.04 21.1212 242.419 21.3523C242.802 21.5795 243.114 21.9015 243.357 22.3182C243.599 22.7348 243.72 23.2386 243.72 23.8295C243.72 24.4318 243.574 24.9735 243.283 25.4545C242.991 25.9318 242.552 26.3087 241.964 26.5852C241.377 26.8617 240.639 27 239.749 27H235.038ZM237.146 25.2386H239.413C240.179 25.2386 240.73 25.0928 241.067 24.8011C241.408 24.5057 241.578 24.1269 241.578 23.6648C241.578 23.3201 241.493 23.0095 241.322 22.733C241.152 22.4527 240.91 22.233 240.595 22.0739C240.281 21.911 239.906 21.8295 239.47 21.8295H237.146V25.2386ZM237.146 20.3125H239.232C239.595 20.3125 239.923 20.2462 240.214 20.1136C240.506 19.9773 240.735 19.786 240.902 19.5398C241.072 19.2898 241.158 18.9943 241.158 18.6534C241.158 18.2027 240.999 17.8314 240.68 17.5398C240.366 17.2481 239.898 17.1023 239.277 17.1023H237.146V20.3125ZM245.554 27V15.3636H253.122V17.1307H247.662V20.2898H252.73V22.0568H247.662V25.233H253.168V27H245.554ZM255.273 27V15.3636H257.381V20.2898H262.773V15.3636H264.886V27H262.773V22.0568H257.381V27H255.273ZM267.179 27V15.3636H269.287V20.2898H274.679V15.3636H276.793V27H274.679V22.0568H269.287V27H267.179ZM289.483 21.1818C289.483 22.4356 289.248 23.5095 288.778 24.4034C288.313 25.2936 287.676 25.9754 286.869 26.4489C286.066 26.9223 285.155 27.1591 284.136 27.1591C283.117 27.1591 282.205 26.9223 281.398 26.4489C280.595 25.9716 279.958 25.2879 279.489 24.3977C279.023 23.5038 278.79 22.4318 278.79 21.1818C278.79 19.928 279.023 18.8561 279.489 17.9659C279.958 17.072 280.595 16.3883 281.398 15.9148C282.205 15.4413 283.117 15.2045 284.136 15.2045C285.155 15.2045 286.066 15.4413 286.869 15.9148C287.676 16.3883 288.313 17.072 288.778 17.9659C289.248 18.8561 289.483 19.928 289.483 21.1818ZM287.364 21.1818C287.364 20.2992 287.225 19.5549 286.949 18.9489C286.676 18.339 286.297 17.8788 285.812 17.5682C285.328 17.2538 284.769 17.0966 284.136 17.0966C283.504 17.0966 282.945 17.2538 282.46 17.5682C281.975 17.8788 281.595 18.339 281.318 18.9489C281.045 19.5549 280.909 20.2992 280.909 21.1818C280.909 22.0644 281.045 22.8106 281.318 23.4205C281.595 24.0265 281.975 24.4867 282.46 24.8011C282.945 25.1117 283.504 25.267 284.136 25.267C284.769 25.267 285.328 25.1117 285.812 24.8011C286.297 24.4867 286.676 24.0265 286.949 23.4205C287.225 22.8106 287.364 22.0644 287.364 21.1818ZM291.476 27V15.3636H299.044V17.1307H293.584V20.2898H298.652V22.0568H293.584V25.233H299.089V27H291.476ZM123.545 39.1818C123.545 40.4356 123.311 41.5095 122.841 42.4034C122.375 43.2936 121.739 43.9754 120.932 44.4489C120.129 44.9223 119.218 45.1591 118.199 45.1591C117.18 45.1591 116.267 44.9223 115.46 44.4489C114.657 43.9716 114.021 43.2879 113.551 42.3977C113.085 41.5038 112.852 40.4318 112.852 39.1818C112.852 37.928 113.085 36.8561 113.551 35.9659C114.021 35.072 114.657 34.3883 115.46 33.9148C116.267 33.4413 117.18 33.2045 118.199 33.2045C119.218 33.2045 120.129 33.4413 120.932 33.9148C121.739 34.3883 122.375 35.072 122.841 35.9659C123.311 36.8561 123.545 37.928 123.545 39.1818ZM121.426 39.1818C121.426 38.2992 121.288 37.5549 121.011 36.9489C120.739 36.339 120.36 35.8788 119.875 35.5682C119.39 35.2538 118.831 35.0966 118.199 35.0966C117.566 35.0966 117.008 35.2538 116.523 35.5682C116.038 35.8788 115.657 36.339 115.381 36.9489C115.108 37.5549 114.972 38.2992 114.972 39.1818C114.972 40.0644 115.108 40.8106 115.381 41.4205C115.657 42.0265 116.038 42.4867 116.523 42.8011C117.008 43.1117 117.566 43.267 118.199 43.267C118.831 43.267 119.39 43.1117 119.875 42.8011C120.36 42.4867 120.739 42.0265 121.011 41.4205C121.288 40.8106 121.426 40.0644 121.426 39.1818ZM125.538 45V33.3636H133.021V35.1307H127.646V37.858H129.891C130.781 37.858 131.544 38.0038 132.18 38.2955C132.821 38.5833 133.311 38.9905 133.652 39.517C133.993 40.0436 134.163 40.6629 134.163 41.375C134.163 42.0909 133.993 42.7216 133.652 43.267C133.311 43.8087 132.821 44.233 132.18 44.5398C131.544 44.8466 130.781 45 129.891 45H125.538ZM127.646 43.2727H129.891C130.36 43.2727 130.758 43.1837 131.084 43.0057C131.41 42.8277 131.656 42.5928 131.822 42.3011C131.993 42.0095 132.078 41.6932 132.078 41.3523C132.078 40.8598 131.889 40.4413 131.51 40.0966C131.135 39.7481 130.595 39.5739 129.891 39.5739H127.646V43.2727ZM136.007 45V33.3636H140.371C141.265 33.3636 142.015 33.5303 142.621 33.8636C143.231 34.197 143.691 34.6553 144.001 35.2386C144.316 35.8182 144.473 36.4773 144.473 37.2159C144.473 37.9621 144.316 38.625 144.001 39.2045C143.687 39.7841 143.223 40.2405 142.609 40.5739C141.996 40.9034 141.24 41.0682 140.342 41.0682H137.45V39.3352H140.058C140.581 39.3352 141.009 39.2443 141.342 39.0625C141.676 38.8807 141.922 38.6307 142.081 38.3125C142.244 37.9943 142.325 37.6288 142.325 37.2159C142.325 36.803 142.244 36.4394 142.081 36.125C141.922 35.8106 141.674 35.5663 141.337 35.392C141.003 35.214 140.573 35.125 140.047 35.125H138.115V45H136.007ZM146.501 45H144.251L148.348 33.3636H150.95L155.053 45H152.803L149.695 35.75H149.604L146.501 45ZM146.575 40.4375H152.712V42.1307H146.575V40.4375ZM160.648 45.1591C159.83 45.1591 159.102 45.0189 158.466 44.7386C157.833 44.4583 157.333 44.0682 156.966 43.5682C156.598 43.0682 156.403 42.4905 156.381 41.8352H158.517C158.536 42.1496 158.64 42.4242 158.83 42.6591C159.019 42.8902 159.271 43.0701 159.585 43.1989C159.9 43.3277 160.252 43.392 160.642 43.392C161.059 43.392 161.428 43.3201 161.75 43.1761C162.072 43.0284 162.324 42.8239 162.506 42.5625C162.688 42.3011 162.777 42 162.773 41.6591C162.777 41.3068 162.686 40.9962 162.5 40.7273C162.314 40.4583 162.045 40.2481 161.693 40.0966C161.345 39.9451 160.924 39.8693 160.432 39.8693H159.403V38.2443H160.432C160.837 38.2443 161.191 38.1742 161.494 38.0341C161.801 37.8939 162.042 37.697 162.216 37.4432C162.39 37.1856 162.475 36.8883 162.472 36.5511C162.475 36.2216 162.402 35.9356 162.25 35.6932C162.102 35.447 161.892 35.2557 161.619 35.1193C161.35 34.983 161.034 34.9148 160.67 34.9148C160.314 34.9148 159.985 34.9792 159.682 35.108C159.379 35.2367 159.134 35.4205 158.949 35.6591C158.763 35.8939 158.665 36.1742 158.653 36.5H156.625C156.64 35.8485 156.828 35.2765 157.188 34.7841C157.551 34.2879 158.036 33.9015 158.642 33.625C159.248 33.3447 159.928 33.2045 160.682 33.2045C161.458 33.2045 162.133 33.3504 162.705 33.642C163.28 33.9299 163.725 34.3182 164.04 34.8068C164.354 35.2955 164.511 35.8352 164.511 36.4261C164.515 37.0814 164.322 37.6307 163.932 38.0739C163.545 38.517 163.038 38.8068 162.409 38.9432V39.0341C163.227 39.1477 163.854 39.4508 164.29 39.9432C164.729 40.4318 164.947 41.0398 164.943 41.767C164.943 42.4186 164.758 43.0019 164.386 43.517C164.019 44.0284 163.511 44.4299 162.864 44.7216C162.22 45.0133 161.481 45.1591 160.648 45.1591ZM177.405 39.1818C177.405 40.4356 177.17 41.5095 176.7 42.4034C176.234 43.2936 175.598 43.9754 174.791 44.4489C173.988 44.9223 173.077 45.1591 172.058 45.1591C171.039 45.1591 170.126 44.9223 169.32 44.4489C168.517 43.9716 167.88 43.2879 167.411 42.3977C166.945 41.5038 166.712 40.4318 166.712 39.1818C166.712 37.928 166.945 36.8561 167.411 35.9659C167.88 35.072 168.517 34.3883 169.32 33.9148C170.126 33.4413 171.039 33.2045 172.058 33.2045C173.077 33.2045 173.988 33.4413 174.791 33.9148C175.598 34.3883 176.234 35.072 176.7 35.9659C177.17 36.8561 177.405 37.928 177.405 39.1818ZM175.286 39.1818C175.286 38.2992 175.147 37.5549 174.871 36.9489C174.598 36.339 174.219 35.8788 173.734 35.5682C173.25 35.2538 172.691 35.0966 172.058 35.0966C171.426 35.0966 170.867 35.2538 170.382 35.5682C169.897 35.8788 169.517 36.339 169.24 36.9489C168.967 37.5549 168.831 38.2992 168.831 39.1818C168.831 40.0644 168.967 40.8106 169.24 41.4205C169.517 42.0265 169.897 42.4867 170.382 42.8011C170.867 43.1117 171.426 43.267 172.058 43.267C172.691 43.267 173.25 43.1117 173.734 42.8011C174.219 42.4867 174.598 42.0265 174.871 41.4205C175.147 40.8106 175.286 40.0644 175.286 39.1818ZM179.398 45V33.3636H183.852C184.693 33.3636 185.392 33.4962 185.949 33.7614C186.509 34.0227 186.928 34.3807 187.205 34.8352C187.485 35.2898 187.625 35.8049 187.625 36.3807C187.625 36.8542 187.534 37.2595 187.352 37.5966C187.17 37.9299 186.926 38.2008 186.619 38.4091C186.312 38.6174 185.97 38.767 185.591 38.858V38.9716C186.004 38.9943 186.4 39.1212 186.778 39.3523C187.161 39.5795 187.473 39.9015 187.716 40.3182C187.958 40.7348 188.08 41.2386 188.08 41.8295C188.08 42.4318 187.934 42.9735 187.642 43.4545C187.35 43.9318 186.911 44.3087 186.324 44.5852C185.737 44.8617 184.998 45 184.108 45H179.398ZM181.506 43.2386H183.773C184.538 43.2386 185.089 43.0928 185.426 42.8011C185.767 42.5057 185.938 42.1269 185.938 41.6648C185.938 41.3201 185.852 41.0095 185.682 40.733C185.511 40.4527 185.269 40.233 184.955 40.0739C184.64 39.911 184.265 39.8295 183.83 39.8295H181.506V43.2386ZM181.506 38.3125H183.591C183.955 38.3125 184.282 38.2462 184.574 38.1136C184.866 37.9773 185.095 37.786 185.261 37.5398C185.432 37.2898 185.517 36.9943 185.517 36.6534C185.517 36.2027 185.358 35.8314 185.04 35.5398C184.725 35.2481 184.258 35.1023 183.636 35.1023H181.506V38.3125ZM191.408 45H189.158L193.254 33.3636H195.857L199.959 45H197.709L194.601 35.75H194.51L191.408 45ZM191.482 40.4375H197.618V42.1307H191.482V40.4375ZM199.574 35.1307V33.3636H208.858V35.1307H205.261V45H203.17V35.1307H199.574ZM210.648 45V33.3636H218.216V35.1307H212.756V38.2898H217.824V40.0568H212.756V43.233H218.261V45H210.648ZM219.611 45V43.25L219.94 43.233C220.387 43.2064 220.741 43.0455 221.003 42.75C221.268 42.4545 221.463 41.9792 221.588 41.3239C221.717 40.6686 221.802 39.7898 221.844 38.6875L222.037 33.3636H229.662V45H227.599V35.0966H224.003L223.821 39.3409C223.768 40.6136 223.628 41.6686 223.401 42.5057C223.177 43.3428 222.81 43.9678 222.298 44.3807C221.791 44.7936 221.084 45 220.179 45H219.611ZM233.386 37.858H236.341C237.231 37.858 237.994 38.0038 238.631 38.2955C239.271 38.5833 239.761 38.9905 240.102 39.517C240.443 40.0436 240.614 40.6629 240.614 41.375C240.614 42.0909 240.443 42.7216 240.102 43.267C239.761 43.8087 239.271 44.233 238.631 44.5398C237.994 44.8466 237.231 45 236.341 45H231.983V33.3636H234.097V43.2727H236.341C236.811 43.2727 237.208 43.1837 237.534 43.0057C237.86 42.8277 238.106 42.5928 238.273 42.3011C238.443 42.0095 238.528 41.6932 238.528 41.3523C238.528 40.8598 238.339 40.4413 237.96 40.0966C237.585 39.7481 237.045 39.5739 236.341 39.5739H233.386V37.858ZM242.663 45V33.3636H244.771V38.2898H250.163V33.3636H252.277V45H250.163V40.0568H244.771V45H242.663ZM264.967 39.1818C264.967 40.4356 264.732 41.5095 264.263 42.4034C263.797 43.2936 263.161 43.9754 262.354 44.4489C261.551 44.9223 260.64 45.1591 259.621 45.1591C258.602 45.1591 257.689 44.9223 256.882 44.4489C256.079 43.9716 255.443 43.2879 254.973 42.3977C254.507 41.5038 254.274 40.4318 254.274 39.1818C254.274 37.928 254.507 36.8561 254.973 35.9659C255.443 35.072 256.079 34.3883 256.882 33.9148C257.689 33.4413 258.602 33.2045 259.621 33.2045C260.64 33.2045 261.551 33.4413 262.354 33.9148C263.161 34.3883 263.797 35.072 264.263 35.9659C264.732 36.8561 264.967 37.928 264.967 39.1818ZM262.848 39.1818C262.848 38.2992 262.71 37.5549 262.433 36.9489C262.161 36.339 261.782 35.8788 261.297 35.5682C260.812 35.2538 260.253 35.0966 259.621 35.0966C258.988 35.0966 258.429 35.2538 257.945 35.5682C257.46 35.8788 257.079 36.339 256.803 36.9489C256.53 37.5549 256.393 38.2992 256.393 39.1818C256.393 40.0644 256.53 40.8106 256.803 41.4205C257.079 42.0265 257.46 42.4867 257.945 42.8011C258.429 43.1117 258.988 43.267 259.621 43.267C260.253 43.267 260.812 43.1117 261.297 42.8011C261.782 42.4867 262.161 42.0265 262.433 41.4205C262.71 40.8106 262.848 40.0644 262.848 39.1818ZM266.96 45V33.3636H274.528V35.1307H269.068V38.2898H274.136V40.0568H269.068V43.233H274.574V45H266.96ZM114.188 63.1591V61.3864H114.852C115.152 61.3864 115.398 61.3428 115.591 61.2557C115.784 61.1686 115.939 61.0436 116.057 60.8807C116.178 60.7178 116.278 60.5284 116.358 60.3125L116.511 59.9205L112.352 51.3636H114.557L117.455 57.5909L119.96 51.3636H122.131L118.119 60.8523C117.934 61.2614 117.72 61.642 117.477 61.9943C117.235 62.3428 116.919 62.625 116.528 62.8409C116.142 63.053 115.638 63.1591 115.017 63.1591H114.188ZM123.979 51.3636H126.041V55.1591C126.041 55.6515 126.126 56.0417 126.297 56.3295C126.471 56.6174 126.729 56.8239 127.07 56.9489C127.411 57.0739 127.835 57.1364 128.342 57.1364C128.57 57.1364 128.814 57.1288 129.075 57.1136C129.34 57.0947 129.607 57.0701 129.876 57.0398C130.145 57.0057 130.403 56.9659 130.649 56.9205C130.895 56.8712 131.115 56.8182 131.308 56.7614V58.4773C131.115 58.5379 130.899 58.5928 130.661 58.642C130.422 58.6913 130.17 58.733 129.905 58.767C129.64 58.8011 129.375 58.8277 129.109 58.8466C128.844 58.8655 128.589 58.875 128.342 58.875C127.452 58.875 126.679 58.7481 126.024 58.4943C125.373 58.2367 124.869 57.8352 124.513 57.2898C124.157 56.7443 123.979 56.0341 123.979 55.1591V51.3636ZM130.962 51.3636H133.036V63H130.962V51.3636ZM135.601 63V51.3636H139.964C140.858 51.3636 141.608 51.5303 142.214 51.8636C142.824 52.197 143.285 52.6553 143.595 53.2386C143.91 53.8182 144.067 54.4773 144.067 55.2159C144.067 55.9621 143.91 56.625 143.595 57.2045C143.281 57.7841 142.817 58.2405 142.203 58.5739C141.589 58.9034 140.834 59.0682 139.936 59.0682H137.044V57.3352H139.652C140.175 57.3352 140.603 57.2443 140.936 57.0625C141.269 56.8807 141.516 56.6307 141.675 56.3125C141.838 55.9943 141.919 55.6288 141.919 55.2159C141.919 54.803 141.838 54.4394 141.675 54.125C141.516 53.8106 141.268 53.5663 140.93 53.392C140.597 53.214 140.167 53.125 139.641 53.125H137.709V63H135.601ZM145.898 63V51.3636H153.466V53.1307H148.006V56.2898H153.074V58.0568H148.006V61.233H153.511V63H145.898ZM163.821 51.3636V63H161.753V51.3636H163.821ZM154.918 63L158.611 56.8864L155.128 51.3636H157.713L160.463 56.2784H165.162L167.866 51.3636H170.44L167.009 56.8807L170.656 63H168.162L165.463 58.233H160.139L157.389 63H154.918ZM171.501 65.8068V61.2784H172.28C172.541 61.0701 172.786 60.7765 173.013 60.3977C173.24 60.0189 173.433 59.5 173.592 58.8409C173.751 58.1818 173.861 57.3295 173.922 56.2841L174.229 51.3636H181.666V61.2784H182.962V65.7955H180.939V63H173.524V65.8068H171.501ZM174.734 61.2784H179.643V53.1307H176.126L175.945 56.2841C175.895 57.0758 175.816 57.7841 175.706 58.4091C175.596 59.0341 175.458 59.5852 175.291 60.0625C175.125 60.536 174.939 60.9413 174.734 61.2784ZM184.679 63V51.3636H192.247V53.1307H186.787V56.2898H191.855V58.0568H186.787V61.233H192.293V63H184.679ZM194.398 63V51.3636H196.506V56.2898H201.898V51.3636H204.011V63H201.898V58.0568H196.506V63H194.398ZM206.304 51.3636H208.395V59.2955H208.503L213.974 51.3636H215.866V63H213.759V55.0739H213.662L208.173 63H206.304V51.3636ZM218.163 63V51.3636H225.732V53.1307H220.271V56.2898H225.339V58.0568H220.271V61.233H225.777V63H218.163ZM246.703 56.3352V58.0284H230.703V56.3352H246.703ZM114.188 81.1591V79.3864H114.852C115.152 79.3864 115.398 79.3428 115.591 79.2557C115.784 79.1686 115.939 79.0436 116.057 78.8807C116.178 78.7178 116.278 78.5284 116.358 78.3125L116.511 77.9205L112.352 69.3636H114.557L117.455 75.5909L119.96 69.3636H122.131L118.119 78.8523C117.934 79.2614 117.72 79.642 117.477 79.9943C117.235 80.3428 116.919 80.625 116.528 80.8409C116.142 81.053 115.638 81.1591 115.017 81.1591H114.188ZM123.979 69.3636H126.041V73.1591C126.041 73.6515 126.126 74.0417 126.297 74.3295C126.471 74.6174 126.729 74.8239 127.07 74.9489C127.411 75.0739 127.835 75.1364 128.342 75.1364C128.57 75.1364 128.814 75.1288 129.075 75.1136C129.34 75.0947 129.607 75.0701 129.876 75.0398C130.145 75.0057 130.403 74.9659 130.649 74.9205C130.895 74.8712 131.115 74.8182 131.308 74.7614V76.4773C131.115 76.5379 130.899 76.5928 130.661 76.642C130.422 76.6913 130.17 76.733 129.905 76.767C129.64 76.8011 129.375 76.8277 129.109 76.8466C128.844 76.8655 128.589 76.875 128.342 76.875C127.452 76.875 126.679 76.7481 126.024 76.4943C125.373 76.2367 124.869 75.8352 124.513 75.2898C124.157 74.7443 123.979 74.0341 123.979 73.1591V69.3636ZM130.962 69.3636H133.036V81H130.962V69.3636ZM135.601 81V69.3636H143.169V71.1307H137.709V74.2898H142.777V76.0568H137.709V79.233H143.214V81H135.601ZM145.32 81V69.3636H152.803V71.1307H147.428V73.858H149.672C150.562 73.858 151.325 74.0038 151.962 74.2955C152.602 74.5833 153.092 74.9905 153.433 75.517C153.774 76.0436 153.945 76.6629 153.945 77.375C153.945 78.0909 153.774 78.7216 153.433 79.267C153.092 79.8087 152.602 80.233 151.962 80.5398C151.325 80.8466 150.562 81 149.672 81H145.32ZM147.428 79.2727H149.672C150.142 79.2727 150.539 79.1837 150.865 79.0057C151.191 78.8277 151.437 78.5928 151.604 78.3011C151.774 78.0095 151.859 77.6932 151.859 77.3523C151.859 76.8598 151.67 76.4413 151.291 76.0966C150.916 75.7481 150.376 75.5739 149.672 75.5739H147.428V79.2727ZM155.788 81V69.3636H157.896V74.2898H163.288V69.3636H165.402V81H163.288V76.0568H157.896V81H155.788ZM169.121 73.858H172.075C172.965 73.858 173.729 74.0038 174.365 74.2955C175.005 74.5833 175.496 74.9905 175.837 75.517C176.178 76.0436 176.348 76.6629 176.348 77.375C176.348 78.0909 176.178 78.7216 175.837 79.267C175.496 79.8087 175.005 80.233 174.365 80.5398C173.729 80.8466 172.965 81 172.075 81H167.717V69.3636H169.831V79.2727H172.075C172.545 79.2727 172.943 79.1837 173.268 79.0057C173.594 78.8277 173.84 78.5928 174.007 78.3011C174.178 78.0095 174.263 77.6932 174.263 77.3523C174.263 76.8598 174.073 76.4413 173.695 76.0966C173.32 75.7481 172.78 75.5739 172.075 75.5739H169.121V73.858ZM179.467 69.3636V81H177.354V69.3636H179.467ZM181.757 69.3636H183.848V77.2955H183.956L189.428 69.3636H191.32V81H189.212V73.0739H189.115L183.626 81H181.757V69.3636ZM187.666 66.3636H189.206C189.206 67.0265 188.965 67.5644 188.484 67.9773C188.007 68.3864 187.359 68.5909 186.541 68.5909C185.731 68.5909 185.085 68.3864 184.604 67.9773C184.126 67.5644 183.89 67.0265 183.893 66.3636H185.422C185.422 66.6364 185.505 66.8807 185.672 67.0966C185.842 67.3087 186.132 67.4148 186.541 67.4148C186.943 67.4148 187.229 67.3087 187.399 67.0966C187.573 66.8845 187.662 66.6402 187.666 66.3636ZM208.352 79.2386L208.199 83.75H206.153V81H205.335V79.2386H208.352ZM197.585 81V69.3636H199.608V79.25H204.835V69.3636H206.875V81H197.585ZM210.07 81V69.3636H217.638V71.1307H212.178V74.2898H217.246V76.0568H212.178V79.233H217.683V81H210.07ZM219.788 81V69.3636H221.896V74.2898H227.288V69.3636H229.402V81H227.288V76.0568H221.896V81H219.788ZM231.183 71.1307V69.3636H240.467V71.1307H236.871V81H234.78V71.1307H231.183ZM242.257 81V69.3636H246.621C247.515 69.3636 248.265 69.5303 248.871 69.8636C249.481 70.197 249.941 70.6553 250.251 71.2386C250.566 71.8182 250.723 72.4773 250.723 73.2159C250.723 73.9621 250.566 74.625 250.251 75.2045C249.937 75.7841 249.473 76.2405 248.859 76.5739C248.246 76.9034 247.49 77.0682 246.592 77.0682H243.7V75.3352H246.308C246.831 75.3352 247.259 75.2443 247.592 75.0625C247.926 74.8807 248.172 74.6307 248.331 74.3125C248.494 73.9943 248.575 73.6288 248.575 73.2159C248.575 72.803 248.494 72.4394 248.331 72.125C248.172 71.8106 247.924 71.5663 247.587 71.392C247.253 71.214 246.823 71.125 246.297 71.125H244.365V81H242.257Z" fill="#0070E0"/>
</svg>
